<svg width="1926" height="470" viewBox="0 0 1926 470" fill="none" xmlns="http://www.w3.org/2000/svg">
<mask id="path-1-outside-1_555_2" maskUnits="userSpaceOnUse" x="320" y="111" width="1287" height="288" fill="black">
<rect fill="white" x="320" y="111" width="1287" height="288"/>
<path d="M322.877 113H501.377V176H490.877V155H480.377V134H469.877V123.5H417.377V134H427.877V302H438.377V312.5H459.377V323H364.877V312.5H385.877V302H396.377V123.5H364.877V134H343.877V144.5H333.377V176H322.877V113ZM606.295 312.5V323H532.795V312.5H522.295V302H511.795V281H501.295V228.5H511.795V207.5H522.295V197H532.795V186.5H553.795V176H585.295V186.5H606.295V197H616.795V207.5H627.295V218H637.795V281H627.295V302H616.795V312.5H606.295ZM564.295 186.5V197H543.295V207.5H532.795V281H543.295V302H553.795V312.5H585.295V302H595.795V291.5H606.295V218H595.795V197H574.795V186.5H564.295ZM700.912 197V302H732.412V312.5H721.912V323H679.912V312.5H669.412V197H648.412V186.5H658.912V176H669.412V165.5H679.912V155H690.412V144.5H700.912V186.5H742.912V197H700.912ZM742.912 302H732.412V291.5H742.912V302ZM879.541 239H774.541V249.5H785.041V281H795.541V291.5H806.041V302H858.541V312.5H848.041V323H785.041V312.5H774.541V302H764.041V281H753.541V228.5H764.041V207.5H774.541V197H785.041V186.5H806.041V176H837.541V186.5H858.541V197H869.041V218H879.541V239ZM816.541 186.5V197H795.541V207.5H785.041V228.5H848.041V207.5H837.541V197H827.041V186.5H816.541ZM869.041 302H858.541V291.5H869.041V302ZM1058.11 197V207.5H1037.11V197H1047.61V186.5H1068.61V176H1100.11V186.5H1121.11V197H1131.61V312.5H1152.61V323H1079.11V312.5H1089.61V302H1100.11V218H1089.61V197H1058.11ZM963.611 197V207.5H953.111V197H963.611V186.5H984.611V176H1005.61V186.5H1026.61V207.5H1037.11V312.5H1058.11V323H984.611V312.5H1005.61V207.5H995.111V197H963.611ZM900.611 323V312.5H921.611V207.5H911.111V197H900.611V186.5H942.611V176H953.111V197H942.611V207.5H953.111V312.5H974.111V323H900.611ZM1268.11 176V186.5H1257.61V176H1268.11V165.5H1299.61V176H1310.11V197H1278.61V176H1268.11ZM1152.61 344H1173.61V323H1163.11V291.5H1173.61V281H1194.61V270.5H1173.61V260H1163.11V207.5H1173.61V197H1184.11V186.5H1205.11V176H1236.61V186.5H1257.61V197H1268.11V207.5H1278.61V249.5H1268.11V270.5H1257.61V281H1194.61V291.5H1184.11V312.5H1268.11V323H1289.11V375.5H1278.61V386H1257.61V396.5H1184.11V386H1152.61V344ZM1205.11 270.5H1236.61V260H1247.11V197H1236.61V186.5H1215.61V197H1205.11V207.5H1194.61V260H1205.11V270.5ZM1194.61 323H1184.11V333.5H1194.61V323ZM1194.61 386H1247.11V375.5H1268.11V344H1205.11V333.5H1194.61V344H1173.61V375.5H1194.61V386ZM1425.63 239H1320.63V249.5H1331.13V281H1341.63V291.5H1352.13V302H1404.63V312.5H1394.13V323H1331.13V312.5H1320.63V302H1310.13V281H1299.63V228.5H1310.13V207.5H1320.63V197H1331.13V186.5H1352.13V176H1383.63V186.5H1404.63V197H1415.13V218H1425.63V239ZM1362.63 186.5V197H1341.63V207.5H1331.13V228.5H1394.13V207.5H1383.63V197H1373.13V186.5H1362.63ZM1415.13 302H1404.63V291.5H1415.13V302ZM1499.21 176V197H1509.71V186.5H1530.71V176H1562.21V186.5H1572.71V197H1583.21V312.5H1604.21V323H1530.71V312.5H1551.71V197H1509.71V207.5H1499.21V197H1488.71V207.5H1499.21V312.5H1520.21V323H1446.71V312.5H1467.71V197H1446.71V186.5H1488.71V176H1499.21Z"/>
</mask>
<path d="M322.877 113V111H320.877V113H322.877ZM501.377 113H503.377V111H501.377V113ZM501.377 176V178H503.377V176H501.377ZM490.877 176H488.877V178H490.877V176ZM490.877 155H492.877V153H490.877V155ZM480.377 155H478.377V157H480.377V155ZM480.377 134H482.377V132H480.377V134ZM469.877 134H467.877V136H469.877V134ZM469.877 123.5H471.877V121.5H469.877V123.5ZM417.377 123.5V121.5H415.377V123.5H417.377ZM417.377 134H415.377V136H417.377V134ZM427.877 134H429.877V132H427.877V134ZM427.877 302H425.877V304H427.877V302ZM438.377 302H440.377V300H438.377V302ZM438.377 312.5H436.377V314.5H438.377V312.5ZM459.377 312.5H461.377V310.5H459.377V312.5ZM459.377 323V325H461.377V323H459.377ZM364.877 323H362.877V325H364.877V323ZM364.877 312.5V310.5H362.877V312.5H364.877ZM385.877 312.5V314.5H387.877V312.5H385.877ZM385.877 302V300H383.877V302H385.877ZM396.377 302V304H398.377V302H396.377ZM396.377 123.5H398.377V121.5H396.377V123.5ZM364.877 123.5V121.5H362.877V123.5H364.877ZM364.877 134V136H366.877V134H364.877ZM343.877 134V132H341.877V134H343.877ZM343.877 144.5V146.5H345.877V144.5H343.877ZM333.377 144.5V142.5H331.377V144.5H333.377ZM333.377 176V178H335.377V176H333.377ZM322.877 176H320.877V178H322.877V176ZM322.877 115H501.377V111H322.877V115ZM499.377 113V176H503.377V113H499.377ZM501.377 174H490.877V178H501.377V174ZM492.877 176V155H488.877V176H492.877ZM490.877 153H480.377V157H490.877V153ZM482.377 155V134H478.377V155H482.377ZM480.377 132H469.877V136H480.377V132ZM471.877 134V123.5H467.877V134H471.877ZM469.877 121.5H417.377V125.5H469.877V121.5ZM415.377 123.5V134H419.377V123.5H415.377ZM417.377 136H427.877V132H417.377V136ZM425.877 134V302H429.877V134H425.877ZM427.877 304H438.377V300H427.877V304ZM436.377 302V312.5H440.377V302H436.377ZM438.377 314.5H459.377V310.5H438.377V314.5ZM457.377 312.5V323H461.377V312.5H457.377ZM459.377 321H364.877V325H459.377V321ZM366.877 323V312.5H362.877V323H366.877ZM364.877 314.5H385.877V310.5H364.877V314.5ZM387.877 312.5V302H383.877V312.5H387.877ZM385.877 304H396.377V300H385.877V304ZM398.377 302V123.5H394.377V302H398.377ZM396.377 121.5H364.877V125.5H396.377V121.5ZM362.877 123.5V134H366.877V123.5H362.877ZM364.877 132H343.877V136H364.877V132ZM341.877 134V144.5H345.877V134H341.877ZM343.877 142.5H333.377V146.5H343.877V142.5ZM331.377 144.5V176H335.377V144.5H331.377ZM333.377 174H322.877V178H333.377V174ZM324.877 176V113H320.877V176H324.877ZM606.295 312.5V310.5H604.295V312.5H606.295ZM606.295 323V325H608.295V323H606.295ZM532.795 323H530.795V325H532.795V323ZM532.795 312.5H534.795V310.5H532.795V312.5ZM522.295 312.5H520.295V314.5H522.295V312.5ZM522.295 302H524.295V300H522.295V302ZM511.795 302H509.795V304H511.795V302ZM511.795 281H513.795V279H511.795V281ZM501.295 281H499.295V283H501.295V281ZM501.295 228.5V226.5H499.295V228.5H501.295ZM511.795 228.5V230.5H513.795V228.5H511.795ZM511.795 207.5V205.5H509.795V207.5H511.795ZM522.295 207.5V209.5H524.295V207.5H522.295ZM522.295 197V195H520.295V197H522.295ZM532.795 197V199H534.795V197H532.795ZM532.795 186.5V184.5H530.795V186.5H532.795ZM553.795 186.5V188.5H555.795V186.5H553.795ZM553.795 176V174H551.795V176H553.795ZM585.295 176H587.295V174H585.295V176ZM585.295 186.5H583.295V188.5H585.295V186.5ZM606.295 186.5H608.295V184.5H606.295V186.5ZM606.295 197H604.295V199H606.295V197ZM616.795 197H618.795V195H616.795V197ZM616.795 207.5H614.795V209.5H616.795V207.5ZM627.295 207.5H629.295V205.5H627.295V207.5ZM627.295 218H625.295V220H627.295V218ZM637.795 218H639.795V216H637.795V218ZM637.795 281V283H639.795V281H637.795ZM627.295 281V279H625.295V281H627.295ZM627.295 302V304H629.295V302H627.295ZM616.795 302V300H614.795V302H616.795ZM616.795 312.5V314.5H618.795V312.5H616.795ZM564.295 186.5V184.5H562.295V186.5H564.295ZM564.295 197V199H566.295V197H564.295ZM543.295 197V195H541.295V197H543.295ZM543.295 207.5V209.5H545.295V207.5H543.295ZM532.795 207.5V205.5H530.795V207.5H532.795ZM532.795 281H530.795V283H532.795V281ZM543.295 281H545.295V279H543.295V281ZM543.295 302H541.295V304H543.295V302ZM553.795 302H555.795V300H553.795V302ZM553.795 312.5H551.795V314.5H553.795V312.5ZM585.295 312.5V314.5H587.295V312.5H585.295ZM585.295 302V300H583.295V302H585.295ZM595.795 302V304H597.795V302H595.795ZM595.795 291.5V289.5H593.795V291.5H595.795ZM606.295 291.5V293.5H608.295V291.5H606.295ZM606.295 218H608.295V216H606.295V218ZM595.795 218H593.795V220H595.795V218ZM595.795 197H597.795V195H595.795V197ZM574.795 197H572.795V199H574.795V197ZM574.795 186.5H576.795V184.5H574.795V186.5ZM604.295 312.5V323H608.295V312.5H604.295ZM606.295 321H532.795V325H606.295V321ZM534.795 323V312.5H530.795V323H534.795ZM532.795 310.5H522.295V314.5H532.795V310.5ZM524.295 312.5V302H520.295V312.5H524.295ZM522.295 300H511.795V304H522.295V300ZM513.795 302V281H509.795V302H513.795ZM511.795 279H501.295V283H511.795V279ZM503.295 281V228.5H499.295V281H503.295ZM501.295 230.5H511.795V226.5H501.295V230.5ZM513.795 228.5V207.5H509.795V228.5H513.795ZM511.795 209.5H522.295V205.5H511.795V209.5ZM524.295 207.5V197H520.295V207.5H524.295ZM522.295 199H532.795V195H522.295V199ZM534.795 197V186.5H530.795V197H534.795ZM532.795 188.5H553.795V184.5H532.795V188.5ZM555.795 186.5V176H551.795V186.5H555.795ZM553.795 178H585.295V174H553.795V178ZM583.295 176V186.5H587.295V176H583.295ZM585.295 188.5H606.295V184.5H585.295V188.5ZM604.295 186.5V197H608.295V186.5H604.295ZM606.295 199H616.795V195H606.295V199ZM614.795 197V207.5H618.795V197H614.795ZM616.795 209.5H627.295V205.5H616.795V209.5ZM625.295 207.5V218H629.295V207.5H625.295ZM627.295 220H637.795V216H627.295V220ZM635.795 218V281H639.795V218H635.795ZM637.795 279H627.295V283H637.795V279ZM625.295 281V302H629.295V281H625.295ZM627.295 300H616.795V304H627.295V300ZM614.795 302V312.5H618.795V302H614.795ZM616.795 310.5H606.295V314.5H616.795V310.5ZM562.295 186.5V197H566.295V186.5H562.295ZM564.295 195H543.295V199H564.295V195ZM541.295 197V207.5H545.295V197H541.295ZM543.295 205.5H532.795V209.5H543.295V205.5ZM530.795 207.5V281H534.795V207.5H530.795ZM532.795 283H543.295V279H532.795V283ZM541.295 281V302H545.295V281H541.295ZM543.295 304H553.795V300H543.295V304ZM551.795 302V312.5H555.795V302H551.795ZM553.795 314.5H585.295V310.5H553.795V314.5ZM587.295 312.5V302H583.295V312.5H587.295ZM585.295 304H595.795V300H585.295V304ZM597.795 302V291.5H593.795V302H597.795ZM595.795 293.5H606.295V289.5H595.795V293.5ZM608.295 291.5V218H604.295V291.5H608.295ZM606.295 216H595.795V220H606.295V216ZM597.795 218V197H593.795V218H597.795ZM595.795 195H574.795V199H595.795V195ZM576.795 197V186.5H572.795V197H576.795ZM574.795 184.5H564.295V188.5H574.795V184.5ZM700.912 197V195H698.912V197H700.912ZM700.912 302H698.912V304H700.912V302ZM732.412 302H734.412V300H732.412V302ZM732.412 312.5V314.5H734.412V312.5H732.412ZM721.912 312.5V310.5H719.912V312.5H721.912ZM721.912 323V325H723.912V323H721.912ZM679.912 323H677.912V325H679.912V323ZM679.912 312.5H681.912V310.5H679.912V312.5ZM669.412 312.5H667.412V314.5H669.412V312.5ZM669.412 197H671.412V195H669.412V197ZM648.412 197H646.412V199H648.412V197ZM648.412 186.5V184.5H646.412V186.5H648.412ZM658.912 186.5V188.5H660.912V186.5H658.912ZM658.912 176V174H656.912V176H658.912ZM669.412 176V178H671.412V176H669.412ZM669.412 165.5V163.5H667.412V165.5H669.412ZM679.912 165.5V167.5H681.912V165.5H679.912ZM679.912 155V153H677.912V155H679.912ZM690.412 155V157H692.412V155H690.412ZM690.412 144.5V142.5H688.412V144.5H690.412ZM700.912 144.5H702.912V142.5H700.912V144.5ZM700.912 186.5H698.912V188.5H700.912V186.5ZM742.912 186.5H744.912V184.5H742.912V186.5ZM742.912 197V199H744.912V197H742.912ZM742.912 302V304H744.912V302H742.912ZM732.412 302H730.412V304H732.412V302ZM732.412 291.5V289.5H730.412V291.5H732.412ZM742.912 291.5H744.912V289.5H742.912V291.5ZM698.912 197V302H702.912V197H698.912ZM700.912 304H732.412V300H700.912V304ZM730.412 302V312.5H734.412V302H730.412ZM732.412 310.5H721.912V314.5H732.412V310.5ZM719.912 312.5V323H723.912V312.5H719.912ZM721.912 321H679.912V325H721.912V321ZM681.912 323V312.5H677.912V323H681.912ZM679.912 310.5H669.412V314.5H679.912V310.5ZM671.412 312.5V197H667.412V312.5H671.412ZM669.412 195H648.412V199H669.412V195ZM650.412 197V186.5H646.412V197H650.412ZM648.412 188.5H658.912V184.5H648.412V188.5ZM660.912 186.5V176H656.912V186.5H660.912ZM658.912 178H669.412V174H658.912V178ZM671.412 176V165.5H667.412V176H671.412ZM669.412 167.5H679.912V163.5H669.412V167.5ZM681.912 165.5V155H677.912V165.5H681.912ZM679.912 157H690.412V153H679.912V157ZM692.412 155V144.5H688.412V155H692.412ZM690.412 146.5H700.912V142.5H690.412V146.5ZM698.912 144.5V186.5H702.912V144.5H698.912ZM700.912 188.5H742.912V184.5H700.912V188.5ZM740.912 186.5V197H744.912V186.5H740.912ZM742.912 195H700.912V199H742.912V195ZM742.912 300H732.412V304H742.912V300ZM734.412 302V291.5H730.412V302H734.412ZM732.412 293.5H742.912V289.5H732.412V293.5ZM740.912 291.5V302H744.912V291.5H740.912ZM879.541 239V241H881.541V239H879.541ZM774.541 239V237H772.541V239H774.541ZM774.541 249.5H772.541V251.5H774.541V249.5ZM785.041 249.5H787.041V247.5H785.041V249.5ZM785.041 281H783.041V283H785.041V281ZM795.541 281H797.541V279H795.541V281ZM795.541 291.5H793.541V293.5H795.541V291.5ZM806.041 291.5H808.041V289.5H806.041V291.5ZM806.041 302H804.041V304H806.041V302ZM858.541 302H860.541V300H858.541V302ZM858.541 312.5V314.5H860.541V312.5H858.541ZM848.041 312.5V310.5H846.041V312.5H848.041ZM848.041 323V325H850.041V323H848.041ZM785.041 323H783.041V325H785.041V323ZM785.041 312.5H787.041V310.5H785.041V312.5ZM774.541 312.5H772.541V314.5H774.541V312.5ZM774.541 302H776.541V300H774.541V302ZM764.041 302H762.041V304H764.041V302ZM764.041 281H766.041V279H764.041V281ZM753.541 281H751.541V283H753.541V281ZM753.541 228.5V226.5H751.541V228.5H753.541ZM764.041 228.5V230.5H766.041V228.5H764.041ZM764.041 207.5V205.5H762.041V207.5H764.041ZM774.541 207.5V209.5H776.541V207.5H774.541ZM774.541 197V195H772.541V197H774.541ZM785.041 197V199H787.041V197H785.041ZM785.041 186.5V184.5H783.041V186.5H785.041ZM806.041 186.5V188.5H808.041V186.5H806.041ZM806.041 176V174H804.041V176H806.041ZM837.541 176H839.541V174H837.541V176ZM837.541 186.5H835.541V188.5H837.541V186.5ZM858.541 186.5H860.541V184.5H858.541V186.5ZM858.541 197H856.541V199H858.541V197ZM869.041 197H871.041V195H869.041V197ZM869.041 218H867.041V220H869.041V218ZM879.541 218H881.541V216H879.541V218ZM816.541 186.5V184.5H814.541V186.5H816.541ZM816.541 197V199H818.541V197H816.541ZM795.541 197V195H793.541V197H795.541ZM795.541 207.5V209.5H797.541V207.5H795.541ZM785.041 207.5V205.5H783.041V207.5H785.041ZM785.041 228.5H783.041V230.5H785.041V228.5ZM848.041 228.5V230.5H850.041V228.5H848.041ZM848.041 207.5H850.041V205.5H848.041V207.5ZM837.541 207.5H835.541V209.5H837.541V207.5ZM837.541 197H839.541V195H837.541V197ZM827.041 197H825.041V199H827.041V197ZM827.041 186.5H829.041V184.5H827.041V186.5ZM869.041 302V304H871.041V302H869.041ZM858.541 302H856.541V304H858.541V302ZM858.541 291.5V289.5H856.541V291.5H858.541ZM869.041 291.5H871.041V289.5H869.041V291.5ZM879.541 237H774.541V241H879.541V237ZM772.541 239V249.5H776.541V239H772.541ZM774.541 251.5H785.041V247.5H774.541V251.5ZM783.041 249.5V281H787.041V249.5H783.041ZM785.041 283H795.541V279H785.041V283ZM793.541 281V291.5H797.541V281H793.541ZM795.541 293.5H806.041V289.5H795.541V293.5ZM804.041 291.5V302H808.041V291.5H804.041ZM806.041 304H858.541V300H806.041V304ZM856.541 302V312.5H860.541V302H856.541ZM858.541 310.5H848.041V314.5H858.541V310.5ZM846.041 312.5V323H850.041V312.5H846.041ZM848.041 321H785.041V325H848.041V321ZM787.041 323V312.5H783.041V323H787.041ZM785.041 310.5H774.541V314.5H785.041V310.5ZM776.541 312.5V302H772.541V312.5H776.541ZM774.541 300H764.041V304H774.541V300ZM766.041 302V281H762.041V302H766.041ZM764.041 279H753.541V283H764.041V279ZM755.541 281V228.5H751.541V281H755.541ZM753.541 230.5H764.041V226.5H753.541V230.5ZM766.041 228.5V207.5H762.041V228.5H766.041ZM764.041 209.5H774.541V205.5H764.041V209.5ZM776.541 207.5V197H772.541V207.5H776.541ZM774.541 199H785.041V195H774.541V199ZM787.041 197V186.5H783.041V197H787.041ZM785.041 188.5H806.041V184.5H785.041V188.5ZM808.041 186.5V176H804.041V186.5H808.041ZM806.041 178H837.541V174H806.041V178ZM835.541 176V186.5H839.541V176H835.541ZM837.541 188.5H858.541V184.5H837.541V188.5ZM856.541 186.5V197H860.541V186.5H856.541ZM858.541 199H869.041V195H858.541V199ZM867.041 197V218H871.041V197H867.041ZM869.041 220H879.541V216H869.041V220ZM877.541 218V239H881.541V218H877.541ZM814.541 186.5V197H818.541V186.5H814.541ZM816.541 195H795.541V199H816.541V195ZM793.541 197V207.5H797.541V197H793.541ZM795.541 205.5H785.041V209.5H795.541V205.5ZM783.041 207.5V228.5H787.041V207.5H783.041ZM785.041 230.5H848.041V226.5H785.041V230.5ZM850.041 228.5V207.5H846.041V228.5H850.041ZM848.041 205.5H837.541V209.5H848.041V205.5ZM839.541 207.5V197H835.541V207.5H839.541ZM837.541 195H827.041V199H837.541V195ZM829.041 197V186.5H825.041V197H829.041ZM827.041 184.5H816.541V188.5H827.041V184.5ZM869.041 300H858.541V304H869.041V300ZM860.541 302V291.5H856.541V302H860.541ZM858.541 293.5H869.041V289.5H858.541V293.5ZM867.041 291.5V302H871.041V291.5H867.041ZM1058.11 197V195H1056.11V197H1058.11ZM1058.11 207.5V209.5H1060.11V207.5H1058.11ZM1037.11 207.5H1035.11V209.5H1037.11V207.5ZM1037.11 197V195H1035.11V197H1037.11ZM1047.61 197V199H1049.61V197H1047.61ZM1047.61 186.5V184.5H1045.61V186.5H1047.61ZM1068.61 186.5V188.5H1070.61V186.5H1068.61ZM1068.61 176V174H1066.61V176H1068.61ZM1100.11 176H1102.11V174H1100.11V176ZM1100.11 186.5H1098.11V188.5H1100.11V186.5ZM1121.11 186.5H1123.11V184.5H1121.11V186.5ZM1121.11 197H1119.11V199H1121.11V197ZM1131.61 197H1133.61V195H1131.61V197ZM1131.61 312.5H1129.61V314.5H1131.61V312.5ZM1152.61 312.5H1154.61V310.5H1152.61V312.5ZM1152.61 323V325H1154.61V323H1152.61ZM1079.11 323H1077.11V325H1079.11V323ZM1079.11 312.5V310.5H1077.11V312.5H1079.11ZM1089.61 312.5V314.5H1091.61V312.5H1089.61ZM1089.61 302V300H1087.61V302H1089.61ZM1100.11 302V304H1102.11V302H1100.11ZM1100.11 218H1102.11V216H1100.11V218ZM1089.61 218H1087.61V220H1089.61V218ZM1089.61 197H1091.61V195H1089.61V197ZM963.611 207.5V209.5H965.611V207.5H963.611ZM953.111 207.5H951.111V209.5H953.111V207.5ZM953.111 197V195H951.111V197H953.111ZM963.611 186.5V184.5H961.611V186.5H963.611ZM984.611 186.5V188.5H986.611V186.5H984.611ZM984.611 176V174H982.611V176H984.611ZM1005.61 176H1007.61V174H1005.61V176ZM1005.61 186.5H1003.61V188.5H1005.61V186.5ZM1026.61 186.5H1028.61V184.5H1026.61V186.5ZM1026.61 207.5H1024.61V209.5H1026.61V207.5ZM1037.11 207.5H1039.11V205.5H1037.11V207.5ZM1037.11 312.5H1035.11V314.5H1037.11V312.5ZM1058.11 312.5H1060.11V310.5H1058.11V312.5ZM1058.11 323V325H1060.11V323H1058.11ZM984.611 323H982.611V325H984.611V323ZM984.611 312.5V310.5H982.611V312.5H984.611ZM1005.61 312.5V314.5H1007.61V312.5H1005.61ZM1005.61 207.5H1007.61V205.5H1005.61V207.5ZM995.111 207.5H993.111V209.5H995.111V207.5ZM995.111 197H997.111V195H995.111V197ZM900.611 323H898.611V325H900.611V323ZM900.611 312.5V310.5H898.611V312.5H900.611ZM921.611 312.5V314.5H923.611V312.5H921.611ZM921.611 207.5H923.611V205.5H921.611V207.5ZM911.111 207.5H909.111V209.5H911.111V207.5ZM911.111 197H913.111V195H911.111V197ZM900.611 197H898.611V199H900.611V197ZM900.611 186.5V184.5H898.611V186.5H900.611ZM942.611 186.5V188.5H944.611V186.5H942.611ZM942.611 176V174H940.611V176H942.611ZM953.111 176H955.111V174H953.111V176ZM953.111 197V199H955.111V197H953.111ZM942.611 197V195H940.611V197H942.611ZM942.611 207.5H940.611V209.5H942.611V207.5ZM953.111 207.5H955.111V205.5H953.111V207.5ZM953.111 312.5H951.111V314.5H953.111V312.5ZM974.111 312.5H976.111V310.5H974.111V312.5ZM974.111 323V325H976.111V323H974.111ZM1056.11 197V207.5H1060.11V197H1056.11ZM1058.11 205.5H1037.11V209.5H1058.11V205.5ZM1039.11 207.5V197H1035.11V207.5H1039.11ZM1037.11 199H1047.61V195H1037.11V199ZM1049.61 197V186.5H1045.61V197H1049.61ZM1047.61 188.5H1068.61V184.5H1047.61V188.5ZM1070.61 186.5V176H1066.61V186.5H1070.61ZM1068.61 178H1100.11V174H1068.61V178ZM1098.11 176V186.5H1102.11V176H1098.11ZM1100.11 188.5H1121.11V184.5H1100.11V188.5ZM1119.11 186.5V197H1123.11V186.5H1119.11ZM1121.11 199H1131.61V195H1121.11V199ZM1129.61 197V312.5H1133.61V197H1129.61ZM1131.61 314.5H1152.61V310.5H1131.61V314.5ZM1150.61 312.5V323H1154.61V312.5H1150.61ZM1152.61 321H1079.11V325H1152.61V321ZM1081.11 323V312.5H1077.11V323H1081.11ZM1079.11 314.5H1089.61V310.5H1079.11V314.5ZM1091.61 312.5V302H1087.61V312.5H1091.61ZM1089.61 304H1100.11V300H1089.61V304ZM1102.11 302V218H1098.11V302H1102.11ZM1100.11 216H1089.61V220H1100.11V216ZM1091.61 218V197H1087.61V218H1091.61ZM1089.61 195H1058.11V199H1089.61V195ZM961.611 197V207.5H965.611V197H961.611ZM963.611 205.5H953.111V209.5H963.611V205.5ZM955.111 207.5V197H951.111V207.5H955.111ZM953.111 199H963.611V195H953.111V199ZM965.611 197V186.5H961.611V197H965.611ZM963.611 188.5H984.611V184.5H963.611V188.5ZM986.611 186.5V176H982.611V186.5H986.611ZM984.611 178H1005.61V174H984.611V178ZM1003.61 176V186.5H1007.61V176H1003.61ZM1005.61 188.5H1026.61V184.5H1005.61V188.5ZM1024.61 186.5V207.5H1028.61V186.5H1024.61ZM1026.61 209.5H1037.11V205.5H1026.61V209.5ZM1035.11 207.5V312.5H1039.11V207.5H1035.11ZM1037.11 314.5H1058.11V310.5H1037.11V314.5ZM1056.11 312.5V323H1060.11V312.5H1056.11ZM1058.11 321H984.611V325H1058.11V321ZM986.611 323V312.5H982.611V323H986.611ZM984.611 314.5H1005.61V310.5H984.611V314.5ZM1007.61 312.5V207.5H1003.61V312.5H1007.61ZM1005.61 205.5H995.111V209.5H1005.61V205.5ZM997.111 207.5V197H993.111V207.5H997.111ZM995.111 195H963.611V199H995.111V195ZM902.611 323V312.5H898.611V323H902.611ZM900.611 314.5H921.611V310.5H900.611V314.5ZM923.611 312.5V207.5H919.611V312.5H923.611ZM921.611 205.5H911.111V209.5H921.611V205.5ZM913.111 207.5V197H909.111V207.5H913.111ZM911.111 195H900.611V199H911.111V195ZM902.611 197V186.5H898.611V197H902.611ZM900.611 188.5H942.611V184.5H900.611V188.5ZM944.611 186.5V176H940.611V186.5H944.611ZM942.611 178H953.111V174H942.611V178ZM951.111 176V197H955.111V176H951.111ZM953.111 195H942.611V199H953.111V195ZM940.611 197V207.5H944.611V197H940.611ZM942.611 209.5H953.111V205.5H942.611V209.5ZM951.111 207.5V312.5H955.111V207.5H951.111ZM953.111 314.5H974.111V310.5H953.111V314.5ZM972.111 312.5V323H976.111V312.5H972.111ZM974.111 321H900.611V325H974.111V321ZM1268.11 186.5V188.5H1270.11V186.5H1268.11ZM1257.61 186.5H1255.61V188.5H1257.61V186.5ZM1257.61 176V174H1255.61V176H1257.61ZM1268.11 165.5V163.5H1266.11V165.5H1268.11ZM1299.61 165.5H1301.61V163.5H1299.61V165.5ZM1299.61 176H1297.61V178H1299.61V176ZM1310.11 176H1312.11V174H1310.11V176ZM1310.11 197V199H1312.11V197H1310.11ZM1278.61 197H1276.61V199H1278.61V197ZM1278.61 176H1280.61V174H1278.61V176ZM1152.61 344V342H1150.61V344H1152.61ZM1173.61 344V346H1175.61V344H1173.61ZM1173.61 323H1175.61V321H1173.61V323ZM1163.11 323H1161.11V325H1163.11V323ZM1163.11 291.5V289.5H1161.11V291.5H1163.11ZM1173.61 291.5V293.5H1175.61V291.5H1173.61ZM1173.61 281V279H1171.61V281H1173.61ZM1194.61 281V283H1196.61V281H1194.61ZM1194.61 270.5H1196.61V268.5H1194.61V270.5ZM1173.61 270.5H1171.61V272.5H1173.61V270.5ZM1173.61 260H1175.61V258H1173.61V260ZM1163.11 260H1161.11V262H1163.11V260ZM1163.11 207.5V205.5H1161.11V207.5H1163.11ZM1173.61 207.5V209.5H1175.61V207.5H1173.61ZM1173.61 197V195H1171.61V197H1173.61ZM1184.11 197V199H1186.11V197H1184.11ZM1184.11 186.5V184.5H1182.11V186.5H1184.11ZM1205.11 186.5V188.5H1207.11V186.5H1205.11ZM1205.11 176V174H1203.11V176H1205.11ZM1236.61 176H1238.61V174H1236.61V176ZM1236.61 186.5H1234.61V188.5H1236.61V186.5ZM1257.61 186.5H1259.61V184.5H1257.61V186.5ZM1257.61 197H1255.61V199H1257.61V197ZM1268.11 197H1270.11V195H1268.11V197ZM1268.11 207.5H1266.11V209.5H1268.11V207.5ZM1278.61 207.5H1280.61V205.5H1278.61V207.5ZM1278.61 249.5V251.5H1280.61V249.5H1278.61ZM1268.11 249.5V247.5H1266.11V249.5H1268.11ZM1268.11 270.5V272.5H1270.11V270.5H1268.11ZM1257.61 270.5V268.5H1255.61V270.5H1257.61ZM1257.61 281V283H1259.61V281H1257.61ZM1194.61 281V279H1192.61V281H1194.61ZM1194.61 291.5V293.5H1196.61V291.5H1194.61ZM1184.11 291.5V289.5H1182.11V291.5H1184.11ZM1184.11 312.5H1182.11V314.5H1184.11V312.5ZM1268.11 312.5H1270.11V310.5H1268.11V312.5ZM1268.11 323H1266.11V325H1268.11V323ZM1289.11 323H1291.11V321H1289.11V323ZM1289.11 375.5V377.5H1291.11V375.5H1289.11ZM1278.61 375.5V373.5H1276.61V375.5H1278.61ZM1278.61 386V388H1280.61V386H1278.61ZM1257.61 386V384H1255.61V386H1257.61ZM1257.61 396.5V398.5H1259.61V396.5H1257.61ZM1184.11 396.5H1182.11V398.5H1184.11V396.5ZM1184.11 386H1186.11V384H1184.11V386ZM1152.61 386H1150.61V388H1152.61V386ZM1205.11 270.5H1203.11V272.5H1205.11V270.5ZM1236.61 270.5V272.5H1238.61V270.5H1236.61ZM1236.61 260V258H1234.61V260H1236.61ZM1247.11 260V262H1249.11V260H1247.11ZM1247.11 197H1249.11V195H1247.11V197ZM1236.61 197H1234.61V199H1236.61V197ZM1236.61 186.5H1238.61V184.5H1236.61V186.5ZM1215.61 186.5V184.5H1213.61V186.5H1215.61ZM1215.61 197V199H1217.61V197H1215.61ZM1205.11 197V195H1203.11V197H1205.11ZM1205.11 207.5V209.5H1207.11V207.5H1205.11ZM1194.61 207.5V205.5H1192.61V207.5H1194.61ZM1194.61 260H1192.61V262H1194.61V260ZM1205.11 260H1207.11V258H1205.11V260ZM1194.61 323H1196.61V321H1194.61V323ZM1184.11 323V321H1182.11V323H1184.11ZM1184.11 333.5H1182.11V335.5H1184.11V333.5ZM1194.61 333.5V335.5H1196.61V333.5H1194.61ZM1194.61 386H1192.61V388H1194.61V386ZM1247.11 386V388H1249.11V386H1247.11ZM1247.11 375.5V373.5H1245.11V375.5H1247.11ZM1268.11 375.5V377.5H1270.11V375.5H1268.11ZM1268.11 344H1270.11V342H1268.11V344ZM1205.11 344H1203.11V346H1205.11V344ZM1205.11 333.5H1207.11V331.5H1205.11V333.5ZM1194.61 333.5V331.5H1192.61V333.5H1194.61ZM1194.61 344V346H1196.61V344H1194.61ZM1173.61 344V342H1171.61V344H1173.61ZM1173.61 375.5H1171.61V377.5H1173.61V375.5ZM1194.61 375.5H1196.61V373.5H1194.61V375.5ZM1266.11 176V186.5H1270.11V176H1266.11ZM1268.11 184.5H1257.61V188.5H1268.11V184.5ZM1259.61 186.5V176H1255.61V186.5H1259.61ZM1257.61 178H1268.11V174H1257.61V178ZM1270.11 176V165.5H1266.11V176H1270.11ZM1268.11 167.5H1299.61V163.5H1268.11V167.5ZM1297.61 165.5V176H1301.61V165.5H1297.61ZM1299.61 178H1310.11V174H1299.61V178ZM1308.11 176V197H1312.11V176H1308.11ZM1310.11 195H1278.61V199H1310.11V195ZM1280.61 197V176H1276.61V197H1280.61ZM1278.61 174H1268.11V178H1278.61V174ZM1152.61 346H1173.61V342H1152.61V346ZM1175.61 344V323H1171.61V344H1175.61ZM1173.61 321H1163.11V325H1173.61V321ZM1165.11 323V291.5H1161.11V323H1165.11ZM1163.11 293.5H1173.61V289.5H1163.11V293.5ZM1175.61 291.5V281H1171.61V291.5H1175.61ZM1173.61 283H1194.61V279H1173.61V283ZM1196.61 281V270.5H1192.61V281H1196.61ZM1194.61 268.5H1173.61V272.5H1194.61V268.5ZM1175.61 270.5V260H1171.61V270.5H1175.61ZM1173.61 258H1163.11V262H1173.61V258ZM1165.11 260V207.5H1161.11V260H1165.11ZM1163.11 209.5H1173.61V205.5H1163.11V209.5ZM1175.61 207.5V197H1171.61V207.5H1175.61ZM1173.61 199H1184.11V195H1173.61V199ZM1186.11 197V186.5H1182.11V197H1186.11ZM1184.11 188.5H1205.11V184.5H1184.11V188.5ZM1207.11 186.5V176H1203.11V186.5H1207.11ZM1205.11 178H1236.61V174H1205.11V178ZM1234.61 176V186.5H1238.61V176H1234.61ZM1236.61 188.5H1257.61V184.5H1236.61V188.5ZM1255.61 186.5V197H1259.61V186.5H1255.61ZM1257.61 199H1268.11V195H1257.61V199ZM1266.11 197V207.5H1270.11V197H1266.11ZM1268.11 209.5H1278.61V205.5H1268.11V209.5ZM1276.61 207.5V249.5H1280.61V207.5H1276.61ZM1278.61 247.5H1268.11V251.5H1278.61V247.5ZM1266.11 249.5V270.5H1270.11V249.5H1266.11ZM1268.11 268.5H1257.61V272.5H1268.11V268.5ZM1255.61 270.5V281H1259.61V270.5H1255.61ZM1257.61 279H1194.61V283H1257.61V279ZM1192.61 281V291.5H1196.61V281H1192.61ZM1194.61 289.5H1184.11V293.5H1194.61V289.5ZM1182.11 291.5V312.5H1186.11V291.5H1182.11ZM1184.11 314.5H1268.11V310.5H1184.11V314.5ZM1266.11 312.5V323H1270.11V312.5H1266.11ZM1268.11 325H1289.11V321H1268.11V325ZM1287.11 323V375.5H1291.11V323H1287.11ZM1289.11 373.5H1278.61V377.5H1289.11V373.5ZM1276.61 375.5V386H1280.61V375.5H1276.61ZM1278.61 384H1257.61V388H1278.61V384ZM1255.61 386V396.5H1259.61V386H1255.61ZM1257.61 394.5H1184.11V398.5H1257.61V394.5ZM1186.11 396.5V386H1182.11V396.5H1186.11ZM1184.11 384H1152.61V388H1184.11V384ZM1154.61 386V344H1150.61V386H1154.61ZM1205.11 272.5H1236.61V268.5H1205.11V272.5ZM1238.61 270.5V260H1234.61V270.5H1238.61ZM1236.61 262H1247.11V258H1236.61V262ZM1249.11 260V197H1245.11V260H1249.11ZM1247.11 195H1236.61V199H1247.11V195ZM1238.61 197V186.5H1234.61V197H1238.61ZM1236.61 184.5H1215.61V188.5H1236.61V184.5ZM1213.61 186.5V197H1217.61V186.5H1213.61ZM1215.61 195H1205.11V199H1215.61V195ZM1203.11 197V207.5H1207.11V197H1203.11ZM1205.11 205.5H1194.61V209.5H1205.11V205.5ZM1192.61 207.5V260H1196.61V207.5H1192.61ZM1194.61 262H1205.11V258H1194.61V262ZM1203.11 260V270.5H1207.11V260H1203.11ZM1194.61 321H1184.11V325H1194.61V321ZM1182.11 323V333.5H1186.11V323H1182.11ZM1184.11 335.5H1194.61V331.5H1184.11V335.5ZM1196.61 333.5V323H1192.61V333.5H1196.61ZM1194.61 388H1247.11V384H1194.61V388ZM1249.11 386V375.5H1245.11V386H1249.11ZM1247.11 377.5H1268.11V373.5H1247.11V377.5ZM1270.11 375.5V344H1266.11V375.5H1270.11ZM1268.11 342H1205.11V346H1268.11V342ZM1207.11 344V333.5H1203.11V344H1207.11ZM1205.11 331.5H1194.61V335.5H1205.11V331.5ZM1192.61 333.5V344H1196.61V333.5H1192.61ZM1194.61 342H1173.61V346H1194.61V342ZM1171.61 344V375.5H1175.61V344H1171.61ZM1173.61 377.5H1194.61V373.5H1173.61V377.5ZM1192.61 375.5V386H1196.61V375.5H1192.61ZM1425.63 239V241H1427.63V239H1425.63ZM1320.63 239V237H1318.63V239H1320.63ZM1320.63 249.5H1318.63V251.5H1320.63V249.5ZM1331.13 249.5H1333.13V247.5H1331.13V249.5ZM1331.13 281H1329.13V283H1331.13V281ZM1341.63 281H1343.63V279H1341.63V281ZM1341.63 291.5H1339.63V293.5H1341.63V291.5ZM1352.13 291.5H1354.13V289.5H1352.13V291.5ZM1352.13 302H1350.13V304H1352.13V302ZM1404.63 302H1406.63V300H1404.63V302ZM1404.63 312.5V314.5H1406.63V312.5H1404.63ZM1394.13 312.5V310.5H1392.13V312.5H1394.13ZM1394.13 323V325H1396.13V323H1394.13ZM1331.13 323H1329.13V325H1331.13V323ZM1331.13 312.5H1333.13V310.5H1331.13V312.5ZM1320.63 312.5H1318.63V314.5H1320.63V312.5ZM1320.63 302H1322.63V300H1320.63V302ZM1310.13 302H1308.13V304H1310.13V302ZM1310.13 281H1312.13V279H1310.13V281ZM1299.63 281H1297.63V283H1299.63V281ZM1299.63 228.5V226.5H1297.63V228.5H1299.63ZM1310.13 228.5V230.5H1312.13V228.5H1310.13ZM1310.13 207.5V205.5H1308.13V207.5H1310.13ZM1320.63 207.5V209.5H1322.63V207.5H1320.63ZM1320.63 197V195H1318.63V197H1320.63ZM1331.13 197V199H1333.13V197H1331.13ZM1331.13 186.5V184.5H1329.13V186.5H1331.13ZM1352.13 186.5V188.5H1354.13V186.5H1352.13ZM1352.13 176V174H1350.13V176H1352.13ZM1383.63 176H1385.63V174H1383.63V176ZM1383.63 186.5H1381.63V188.5H1383.63V186.5ZM1404.63 186.5H1406.63V184.5H1404.63V186.5ZM1404.63 197H1402.63V199H1404.63V197ZM1415.13 197H1417.13V195H1415.13V197ZM1415.13 218H1413.13V220H1415.13V218ZM1425.63 218H1427.63V216H1425.63V218ZM1362.63 186.5V184.5H1360.63V186.5H1362.63ZM1362.63 197V199H1364.63V197H1362.63ZM1341.63 197V195H1339.63V197H1341.63ZM1341.63 207.5V209.5H1343.63V207.5H1341.63ZM1331.13 207.5V205.5H1329.13V207.5H1331.13ZM1331.13 228.5H1329.13V230.5H1331.13V228.5ZM1394.13 228.5V230.5H1396.13V228.5H1394.13ZM1394.13 207.5H1396.13V205.5H1394.13V207.5ZM1383.63 207.5H1381.63V209.5H1383.63V207.5ZM1383.63 197H1385.63V195H1383.63V197ZM1373.13 197H1371.13V199H1373.13V197ZM1373.13 186.5H1375.13V184.5H1373.13V186.5ZM1415.13 302V304H1417.13V302H1415.13ZM1404.63 302H1402.63V304H1404.63V302ZM1404.63 291.5V289.5H1402.63V291.5H1404.63ZM1415.13 291.5H1417.13V289.5H1415.13V291.5ZM1425.63 237H1320.63V241H1425.63V237ZM1318.63 239V249.5H1322.63V239H1318.63ZM1320.63 251.5H1331.13V247.5H1320.63V251.5ZM1329.13 249.5V281H1333.13V249.5H1329.13ZM1331.13 283H1341.63V279H1331.13V283ZM1339.63 281V291.5H1343.63V281H1339.63ZM1341.63 293.5H1352.13V289.5H1341.63V293.5ZM1350.13 291.5V302H1354.13V291.5H1350.13ZM1352.13 304H1404.63V300H1352.13V304ZM1402.63 302V312.5H1406.63V302H1402.63ZM1404.63 310.5H1394.13V314.5H1404.63V310.5ZM1392.13 312.5V323H1396.13V312.5H1392.13ZM1394.13 321H1331.13V325H1394.13V321ZM1333.13 323V312.5H1329.13V323H1333.13ZM1331.13 310.5H1320.63V314.5H1331.13V310.5ZM1322.63 312.5V302H1318.63V312.5H1322.63ZM1320.63 300H1310.13V304H1320.63V300ZM1312.13 302V281H1308.13V302H1312.13ZM1310.13 279H1299.63V283H1310.13V279ZM1301.63 281V228.5H1297.63V281H1301.63ZM1299.63 230.5H1310.13V226.5H1299.63V230.5ZM1312.13 228.5V207.5H1308.13V228.5H1312.13ZM1310.13 209.5H1320.63V205.5H1310.13V209.5ZM1322.63 207.5V197H1318.63V207.5H1322.63ZM1320.63 199H1331.13V195H1320.63V199ZM1333.13 197V186.5H1329.13V197H1333.13ZM1331.13 188.5H1352.13V184.5H1331.13V188.5ZM1354.13 186.5V176H1350.13V186.5H1354.13ZM1352.13 178H1383.63V174H1352.13V178ZM1381.63 176V186.5H1385.63V176H1381.63ZM1383.63 188.5H1404.63V184.5H1383.63V188.5ZM1402.63 186.5V197H1406.63V186.5H1402.63ZM1404.63 199H1415.13V195H1404.63V199ZM1413.13 197V218H1417.13V197H1413.13ZM1415.13 220H1425.63V216H1415.13V220ZM1423.63 218V239H1427.63V218H1423.63ZM1360.63 186.5V197H1364.63V186.5H1360.63ZM1362.63 195H1341.63V199H1362.63V195ZM1339.63 197V207.5H1343.63V197H1339.63ZM1341.63 205.5H1331.13V209.5H1341.63V205.5ZM1329.13 207.5V228.5H1333.13V207.5H1329.13ZM1331.13 230.5H1394.13V226.5H1331.13V230.5ZM1396.13 228.5V207.5H1392.13V228.5H1396.13ZM1394.13 205.5H1383.63V209.5H1394.13V205.5ZM1385.63 207.5V197H1381.63V207.5H1385.63ZM1383.63 195H1373.13V199H1383.63V195ZM1375.13 197V186.5H1371.13V197H1375.13ZM1373.13 184.5H1362.63V188.5H1373.13V184.5ZM1415.13 300H1404.63V304H1415.13V300ZM1406.63 302V291.5H1402.63V302H1406.63ZM1404.63 293.5H1415.13V289.5H1404.63V293.5ZM1413.13 291.5V302H1417.13V291.5H1413.13ZM1499.21 176H1501.21V174H1499.21V176ZM1499.21 197H1497.21V199H1499.21V197ZM1509.71 197V199H1511.71V197H1509.71ZM1509.71 186.5V184.5H1507.71V186.5H1509.71ZM1530.71 186.5V188.5H1532.71V186.5H1530.71ZM1530.71 176V174H1528.71V176H1530.71ZM1562.21 176H1564.21V174H1562.21V176ZM1562.21 186.5H1560.21V188.5H1562.21V186.5ZM1572.71 186.5H1574.71V184.5H1572.71V186.5ZM1572.71 197H1570.71V199H1572.71V197ZM1583.21 197H1585.21V195H1583.21V197ZM1583.21 312.5H1581.21V314.5H1583.21V312.5ZM1604.21 312.5H1606.21V310.5H1604.21V312.5ZM1604.21 323V325H1606.21V323H1604.21ZM1530.71 323H1528.71V325H1530.71V323ZM1530.71 312.5V310.5H1528.71V312.5H1530.71ZM1551.71 312.5V314.5H1553.71V312.5H1551.71ZM1551.71 197H1553.71V195H1551.71V197ZM1509.71 197V195H1507.71V197H1509.71ZM1509.71 207.5V209.5H1511.71V207.5H1509.71ZM1499.21 207.5H1497.21V209.5H1499.21V207.5ZM1499.21 197H1501.21V195H1499.21V197ZM1488.71 197V195H1486.71V197H1488.71ZM1488.71 207.5H1486.71V209.5H1488.71V207.5ZM1499.21 207.5H1501.21V205.5H1499.21V207.5ZM1499.21 312.5H1497.21V314.5H1499.21V312.5ZM1520.21 312.5H1522.21V310.5H1520.21V312.5ZM1520.21 323V325H1522.21V323H1520.21ZM1446.71 323H1444.71V325H1446.71V323ZM1446.71 312.5V310.5H1444.71V312.5H1446.71ZM1467.71 312.5V314.5H1469.71V312.5H1467.71ZM1467.71 197H1469.71V195H1467.71V197ZM1446.71 197H1444.71V199H1446.71V197ZM1446.71 186.5V184.5H1444.71V186.5H1446.71ZM1488.71 186.5V188.5H1490.71V186.5H1488.71ZM1488.71 176V174H1486.71V176H1488.71ZM1497.21 176V197H1501.21V176H1497.21ZM1499.21 199H1509.71V195H1499.21V199ZM1511.71 197V186.5H1507.71V197H1511.71ZM1509.71 188.5H1530.71V184.5H1509.71V188.5ZM1532.71 186.5V176H1528.71V186.5H1532.71ZM1530.71 178H1562.21V174H1530.71V178ZM1560.21 176V186.5H1564.21V176H1560.21ZM1562.21 188.5H1572.71V184.5H1562.21V188.5ZM1570.71 186.5V197H1574.71V186.5H1570.71ZM1572.71 199H1583.21V195H1572.71V199ZM1581.21 197V312.5H1585.21V197H1581.21ZM1583.21 314.5H1604.21V310.5H1583.21V314.5ZM1602.21 312.5V323H1606.21V312.5H1602.21ZM1604.21 321H1530.71V325H1604.21V321ZM1532.71 323V312.5H1528.71V323H1532.71ZM1530.71 314.5H1551.71V310.5H1530.71V314.5ZM1553.71 312.5V197H1549.71V312.5H1553.71ZM1551.71 195H1509.71V199H1551.71V195ZM1507.71 197V207.5H1511.71V197H1507.71ZM1509.71 205.5H1499.21V209.5H1509.71V205.5ZM1501.21 207.5V197H1497.21V207.5H1501.21ZM1499.21 195H1488.71V199H1499.21V195ZM1486.71 197V207.5H1490.71V197H1486.71ZM1488.71 209.5H1499.21V205.5H1488.71V209.5ZM1497.21 207.5V312.5H1501.21V207.5H1497.21ZM1499.21 314.5H1520.21V310.5H1499.21V314.5ZM1518.21 312.5V323H1522.21V312.5H1518.21ZM1520.21 321H1446.71V325H1520.21V321ZM1448.71 323V312.5H1444.71V323H1448.71ZM1446.71 314.5H1467.71V310.5H1446.71V314.5ZM1469.71 312.5V197H1465.71V312.5H1469.71ZM1467.71 195H1446.71V199H1467.71V195ZM1448.71 197V186.5H1444.71V197H1448.71ZM1446.71 188.5H1488.71V184.5H1446.71V188.5ZM1490.71 186.5V176H1486.71V186.5H1490.71ZM1488.71 178H1499.21V174H1488.71V178Z" fill="black" mask="url(#path-1-outside-1_555_2)"/>
<rect x="1.5" y="1.5" width="1923" height="467" rx="233.5" stroke="black" stroke-width="3"/>
<mask id="path-4-outside-2_555_2" maskUnits="userSpaceOnUse" x="320" y="111" width="1287" height="288" fill="black">
<rect fill="white" x="320" y="111" width="1287" height="288"/>
<path d="M322.877 113H501.377V176H490.877V155H480.377V134H469.877V123.5H417.377V134H427.877V302H438.377V312.5H459.377V323H364.877V312.5H385.877V302H396.377V123.5H364.877V134H343.877V144.5H333.377V176H322.877V113ZM606.295 312.5V323H532.795V312.5H522.295V302H511.795V281H501.295V228.5H511.795V207.5H522.295V197H532.795V186.5H553.795V176H585.295V186.5H606.295V197H616.795V207.5H627.295V218H637.795V281H627.295V302H616.795V312.5H606.295ZM564.295 186.5V197H543.295V207.5H532.795V281H543.295V302H553.795V312.5H585.295V302H595.795V291.5H606.295V218H595.795V197H574.795V186.5H564.295ZM700.912 197V302H732.412V312.5H721.912V323H679.912V312.5H669.412V197H648.412V186.5H658.912V176H669.412V165.5H679.912V155H690.412V144.5H700.912V186.5H742.912V197H700.912ZM742.912 302H732.412V291.5H742.912V302ZM879.541 239H774.541V249.5H785.041V281H795.541V291.5H806.041V302H858.541V312.5H848.041V323H785.041V312.5H774.541V302H764.041V281H753.541V228.5H764.041V207.5H774.541V197H785.041V186.5H806.041V176H837.541V186.5H858.541V197H869.041V218H879.541V239ZM816.541 186.5V197H795.541V207.5H785.041V228.5H848.041V207.5H837.541V197H827.041V186.5H816.541ZM869.041 302H858.541V291.5H869.041V302ZM1058.11 197V207.5H1037.11V197H1047.61V186.5H1068.61V176H1100.11V186.5H1121.11V197H1131.61V312.5H1152.61V323H1079.11V312.5H1089.61V302H1100.11V218H1089.61V197H1058.11ZM963.611 197V207.5H953.111V197H963.611V186.5H984.611V176H1005.61V186.5H1026.61V207.5H1037.11V312.5H1058.11V323H984.611V312.5H1005.61V207.5H995.111V197H963.611ZM900.611 323V312.5H921.611V207.5H911.111V197H900.611V186.5H942.611V176H953.111V197H942.611V207.5H953.111V312.5H974.111V323H900.611ZM1268.11 176V186.5H1257.61V176H1268.11V165.5H1299.61V176H1310.11V197H1278.61V176H1268.11ZM1152.61 344H1173.61V323H1163.11V291.5H1173.61V281H1194.61V270.5H1173.61V260H1163.11V207.5H1173.61V197H1184.11V186.5H1205.11V176H1236.61V186.5H1257.61V197H1268.11V207.5H1278.61V249.5H1268.11V270.5H1257.61V281H1194.61V291.5H1184.11V312.5H1268.11V323H1289.11V375.5H1278.61V386H1257.61V396.5H1184.11V386H1152.61V344ZM1205.11 270.5H1236.61V260H1247.11V197H1236.61V186.5H1215.61V197H1205.11V207.5H1194.61V260H1205.11V270.5ZM1194.61 323H1184.11V333.5H1194.61V323ZM1194.61 386H1247.11V375.5H1268.11V344H1205.11V333.5H1194.61V344H1173.61V375.5H1194.61V386ZM1425.63 239H1320.63V249.5H1331.13V281H1341.63V291.5H1352.13V302H1404.63V312.5H1394.13V323H1331.13V312.5H1320.63V302H1310.13V281H1299.63V228.5H1310.13V207.5H1320.63V197H1331.13V186.5H1352.13V176H1383.63V186.5H1404.63V197H1415.13V218H1425.63V239ZM1362.63 186.5V197H1341.63V207.5H1331.13V228.5H1394.13V207.5H1383.63V197H1373.13V186.5H1362.63ZM1415.13 302H1404.63V291.5H1415.13V302ZM1499.21 176V197H1509.71V186.5H1530.71V176H1562.21V186.5H1572.71V197H1583.21V312.5H1604.21V323H1530.71V312.5H1551.71V197H1509.71V207.5H1499.21V197H1488.71V207.5H1499.21V312.5H1520.21V323H1446.71V312.5H1467.71V197H1446.71V186.5H1488.71V176H1499.21Z"/>
</mask>
<path d="M322.877 113V111H320.877V113H322.877ZM501.377 113H503.377V111H501.377V113ZM501.377 176V178H503.377V176H501.377ZM490.877 176H488.877V178H490.877V176ZM490.877 155H492.877V153H490.877V155ZM480.377 155H478.377V157H480.377V155ZM480.377 134H482.377V132H480.377V134ZM469.877 134H467.877V136H469.877V134ZM469.877 123.5H471.877V121.5H469.877V123.5ZM417.377 123.5V121.5H415.377V123.5H417.377ZM417.377 134H415.377V136H417.377V134ZM427.877 134H429.877V132H427.877V134ZM427.877 302H425.877V304H427.877V302ZM438.377 302H440.377V300H438.377V302ZM438.377 312.5H436.377V314.5H438.377V312.5ZM459.377 312.5H461.377V310.5H459.377V312.5ZM459.377 323V325H461.377V323H459.377ZM364.877 323H362.877V325H364.877V323ZM364.877 312.5V310.5H362.877V312.5H364.877ZM385.877 312.5V314.5H387.877V312.5H385.877ZM385.877 302V300H383.877V302H385.877ZM396.377 302V304H398.377V302H396.377ZM396.377 123.5H398.377V121.5H396.377V123.5ZM364.877 123.5V121.5H362.877V123.5H364.877ZM364.877 134V136H366.877V134H364.877ZM343.877 134V132H341.877V134H343.877ZM343.877 144.5V146.5H345.877V144.5H343.877ZM333.377 144.5V142.5H331.377V144.5H333.377ZM333.377 176V178H335.377V176H333.377ZM322.877 176H320.877V178H322.877V176ZM322.877 115H501.377V111H322.877V115ZM499.377 113V176H503.377V113H499.377ZM501.377 174H490.877V178H501.377V174ZM492.877 176V155H488.877V176H492.877ZM490.877 153H480.377V157H490.877V153ZM482.377 155V134H478.377V155H482.377ZM480.377 132H469.877V136H480.377V132ZM471.877 134V123.5H467.877V134H471.877ZM469.877 121.5H417.377V125.5H469.877V121.5ZM415.377 123.5V134H419.377V123.5H415.377ZM417.377 136H427.877V132H417.377V136ZM425.877 134V302H429.877V134H425.877ZM427.877 304H438.377V300H427.877V304ZM436.377 302V312.5H440.377V302H436.377ZM438.377 314.5H459.377V310.5H438.377V314.5ZM457.377 312.5V323H461.377V312.5H457.377ZM459.377 321H364.877V325H459.377V321ZM366.877 323V312.5H362.877V323H366.877ZM364.877 314.5H385.877V310.5H364.877V314.5ZM387.877 312.5V302H383.877V312.5H387.877ZM385.877 304H396.377V300H385.877V304ZM398.377 302V123.5H394.377V302H398.377ZM396.377 121.5H364.877V125.5H396.377V121.5ZM362.877 123.5V134H366.877V123.5H362.877ZM364.877 132H343.877V136H364.877V132ZM341.877 134V144.5H345.877V134H341.877ZM343.877 142.5H333.377V146.5H343.877V142.5ZM331.377 144.5V176H335.377V144.5H331.377ZM333.377 174H322.877V178H333.377V174ZM324.877 176V113H320.877V176H324.877ZM606.295 312.5V310.5H604.295V312.5H606.295ZM606.295 323V325H608.295V323H606.295ZM532.795 323H530.795V325H532.795V323ZM532.795 312.5H534.795V310.5H532.795V312.5ZM522.295 312.5H520.295V314.5H522.295V312.5ZM522.295 302H524.295V300H522.295V302ZM511.795 302H509.795V304H511.795V302ZM511.795 281H513.795V279H511.795V281ZM501.295 281H499.295V283H501.295V281ZM501.295 228.5V226.5H499.295V228.5H501.295ZM511.795 228.5V230.5H513.795V228.5H511.795ZM511.795 207.5V205.5H509.795V207.5H511.795ZM522.295 207.5V209.5H524.295V207.5H522.295ZM522.295 197V195H520.295V197H522.295ZM532.795 197V199H534.795V197H532.795ZM532.795 186.5V184.5H530.795V186.5H532.795ZM553.795 186.5V188.5H555.795V186.5H553.795ZM553.795 176V174H551.795V176H553.795ZM585.295 176H587.295V174H585.295V176ZM585.295 186.5H583.295V188.5H585.295V186.5ZM606.295 186.5H608.295V184.5H606.295V186.5ZM606.295 197H604.295V199H606.295V197ZM616.795 197H618.795V195H616.795V197ZM616.795 207.5H614.795V209.5H616.795V207.5ZM627.295 207.5H629.295V205.5H627.295V207.5ZM627.295 218H625.295V220H627.295V218ZM637.795 218H639.795V216H637.795V218ZM637.795 281V283H639.795V281H637.795ZM627.295 281V279H625.295V281H627.295ZM627.295 302V304H629.295V302H627.295ZM616.795 302V300H614.795V302H616.795ZM616.795 312.5V314.5H618.795V312.5H616.795ZM564.295 186.5V184.5H562.295V186.5H564.295ZM564.295 197V199H566.295V197H564.295ZM543.295 197V195H541.295V197H543.295ZM543.295 207.5V209.5H545.295V207.5H543.295ZM532.795 207.5V205.5H530.795V207.5H532.795ZM532.795 281H530.795V283H532.795V281ZM543.295 281H545.295V279H543.295V281ZM543.295 302H541.295V304H543.295V302ZM553.795 302H555.795V300H553.795V302ZM553.795 312.5H551.795V314.5H553.795V312.5ZM585.295 312.5V314.5H587.295V312.5H585.295ZM585.295 302V300H583.295V302H585.295ZM595.795 302V304H597.795V302H595.795ZM595.795 291.5V289.5H593.795V291.5H595.795ZM606.295 291.5V293.5H608.295V291.5H606.295ZM606.295 218H608.295V216H606.295V218ZM595.795 218H593.795V220H595.795V218ZM595.795 197H597.795V195H595.795V197ZM574.795 197H572.795V199H574.795V197ZM574.795 186.5H576.795V184.5H574.795V186.5ZM604.295 312.5V323H608.295V312.5H604.295ZM606.295 321H532.795V325H606.295V321ZM534.795 323V312.5H530.795V323H534.795ZM532.795 310.5H522.295V314.5H532.795V310.5ZM524.295 312.5V302H520.295V312.5H524.295ZM522.295 300H511.795V304H522.295V300ZM513.795 302V281H509.795V302H513.795ZM511.795 279H501.295V283H511.795V279ZM503.295 281V228.5H499.295V281H503.295ZM501.295 230.5H511.795V226.5H501.295V230.5ZM513.795 228.5V207.5H509.795V228.5H513.795ZM511.795 209.5H522.295V205.5H511.795V209.5ZM524.295 207.5V197H520.295V207.5H524.295ZM522.295 199H532.795V195H522.295V199ZM534.795 197V186.5H530.795V197H534.795ZM532.795 188.5H553.795V184.5H532.795V188.5ZM555.795 186.5V176H551.795V186.5H555.795ZM553.795 178H585.295V174H553.795V178ZM583.295 176V186.5H587.295V176H583.295ZM585.295 188.5H606.295V184.5H585.295V188.5ZM604.295 186.5V197H608.295V186.5H604.295ZM606.295 199H616.795V195H606.295V199ZM614.795 197V207.5H618.795V197H614.795ZM616.795 209.5H627.295V205.5H616.795V209.5ZM625.295 207.5V218H629.295V207.5H625.295ZM627.295 220H637.795V216H627.295V220ZM635.795 218V281H639.795V218H635.795ZM637.795 279H627.295V283H637.795V279ZM625.295 281V302H629.295V281H625.295ZM627.295 300H616.795V304H627.295V300ZM614.795 302V312.5H618.795V302H614.795ZM616.795 310.5H606.295V314.5H616.795V310.5ZM562.295 186.5V197H566.295V186.5H562.295ZM564.295 195H543.295V199H564.295V195ZM541.295 197V207.5H545.295V197H541.295ZM543.295 205.5H532.795V209.5H543.295V205.5ZM530.795 207.5V281H534.795V207.5H530.795ZM532.795 283H543.295V279H532.795V283ZM541.295 281V302H545.295V281H541.295ZM543.295 304H553.795V300H543.295V304ZM551.795 302V312.5H555.795V302H551.795ZM553.795 314.5H585.295V310.5H553.795V314.5ZM587.295 312.5V302H583.295V312.5H587.295ZM585.295 304H595.795V300H585.295V304ZM597.795 302V291.5H593.795V302H597.795ZM595.795 293.5H606.295V289.5H595.795V293.5ZM608.295 291.5V218H604.295V291.5H608.295ZM606.295 216H595.795V220H606.295V216ZM597.795 218V197H593.795V218H597.795ZM595.795 195H574.795V199H595.795V195ZM576.795 197V186.5H572.795V197H576.795ZM574.795 184.5H564.295V188.5H574.795V184.5ZM700.912 197V195H698.912V197H700.912ZM700.912 302H698.912V304H700.912V302ZM732.412 302H734.412V300H732.412V302ZM732.412 312.5V314.5H734.412V312.5H732.412ZM721.912 312.5V310.5H719.912V312.5H721.912ZM721.912 323V325H723.912V323H721.912ZM679.912 323H677.912V325H679.912V323ZM679.912 312.5H681.912V310.5H679.912V312.5ZM669.412 312.5H667.412V314.5H669.412V312.5ZM669.412 197H671.412V195H669.412V197ZM648.412 197H646.412V199H648.412V197ZM648.412 186.5V184.5H646.412V186.5H648.412ZM658.912 186.5V188.5H660.912V186.5H658.912ZM658.912 176V174H656.912V176H658.912ZM669.412 176V178H671.412V176H669.412ZM669.412 165.5V163.5H667.412V165.5H669.412ZM679.912 165.5V167.5H681.912V165.5H679.912ZM679.912 155V153H677.912V155H679.912ZM690.412 155V157H692.412V155H690.412ZM690.412 144.5V142.5H688.412V144.5H690.412ZM700.912 144.5H702.912V142.5H700.912V144.5ZM700.912 186.5H698.912V188.5H700.912V186.5ZM742.912 186.5H744.912V184.5H742.912V186.5ZM742.912 197V199H744.912V197H742.912ZM742.912 302V304H744.912V302H742.912ZM732.412 302H730.412V304H732.412V302ZM732.412 291.5V289.5H730.412V291.5H732.412ZM742.912 291.5H744.912V289.5H742.912V291.5ZM698.912 197V302H702.912V197H698.912ZM700.912 304H732.412V300H700.912V304ZM730.412 302V312.5H734.412V302H730.412ZM732.412 310.5H721.912V314.5H732.412V310.5ZM719.912 312.5V323H723.912V312.5H719.912ZM721.912 321H679.912V325H721.912V321ZM681.912 323V312.5H677.912V323H681.912ZM679.912 310.5H669.412V314.5H679.912V310.5ZM671.412 312.5V197H667.412V312.5H671.412ZM669.412 195H648.412V199H669.412V195ZM650.412 197V186.5H646.412V197H650.412ZM648.412 188.5H658.912V184.5H648.412V188.5ZM660.912 186.5V176H656.912V186.5H660.912ZM658.912 178H669.412V174H658.912V178ZM671.412 176V165.5H667.412V176H671.412ZM669.412 167.5H679.912V163.5H669.412V167.5ZM681.912 165.5V155H677.912V165.5H681.912ZM679.912 157H690.412V153H679.912V157ZM692.412 155V144.5H688.412V155H692.412ZM690.412 146.5H700.912V142.5H690.412V146.5ZM698.912 144.5V186.5H702.912V144.5H698.912ZM700.912 188.5H742.912V184.5H700.912V188.5ZM740.912 186.5V197H744.912V186.5H740.912ZM742.912 195H700.912V199H742.912V195ZM742.912 300H732.412V304H742.912V300ZM734.412 302V291.5H730.412V302H734.412ZM732.412 293.5H742.912V289.5H732.412V293.5ZM740.912 291.5V302H744.912V291.5H740.912ZM879.541 239V241H881.541V239H879.541ZM774.541 239V237H772.541V239H774.541ZM774.541 249.5H772.541V251.5H774.541V249.5ZM785.041 249.5H787.041V247.5H785.041V249.5ZM785.041 281H783.041V283H785.041V281ZM795.541 281H797.541V279H795.541V281ZM795.541 291.5H793.541V293.5H795.541V291.5ZM806.041 291.5H808.041V289.5H806.041V291.5ZM806.041 302H804.041V304H806.041V302ZM858.541 302H860.541V300H858.541V302ZM858.541 312.5V314.5H860.541V312.5H858.541ZM848.041 312.5V310.5H846.041V312.5H848.041ZM848.041 323V325H850.041V323H848.041ZM785.041 323H783.041V325H785.041V323ZM785.041 312.5H787.041V310.5H785.041V312.5ZM774.541 312.5H772.541V314.5H774.541V312.5ZM774.541 302H776.541V300H774.541V302ZM764.041 302H762.041V304H764.041V302ZM764.041 281H766.041V279H764.041V281ZM753.541 281H751.541V283H753.541V281ZM753.541 228.5V226.5H751.541V228.5H753.541ZM764.041 228.5V230.5H766.041V228.5H764.041ZM764.041 207.5V205.5H762.041V207.5H764.041ZM774.541 207.5V209.5H776.541V207.5H774.541ZM774.541 197V195H772.541V197H774.541ZM785.041 197V199H787.041V197H785.041ZM785.041 186.5V184.5H783.041V186.5H785.041ZM806.041 186.5V188.5H808.041V186.5H806.041ZM806.041 176V174H804.041V176H806.041ZM837.541 176H839.541V174H837.541V176ZM837.541 186.5H835.541V188.5H837.541V186.5ZM858.541 186.5H860.541V184.5H858.541V186.5ZM858.541 197H856.541V199H858.541V197ZM869.041 197H871.041V195H869.041V197ZM869.041 218H867.041V220H869.041V218ZM879.541 218H881.541V216H879.541V218ZM816.541 186.5V184.5H814.541V186.5H816.541ZM816.541 197V199H818.541V197H816.541ZM795.541 197V195H793.541V197H795.541ZM795.541 207.5V209.5H797.541V207.5H795.541ZM785.041 207.5V205.5H783.041V207.5H785.041ZM785.041 228.5H783.041V230.5H785.041V228.5ZM848.041 228.5V230.5H850.041V228.5H848.041ZM848.041 207.5H850.041V205.5H848.041V207.5ZM837.541 207.5H835.541V209.5H837.541V207.5ZM837.541 197H839.541V195H837.541V197ZM827.041 197H825.041V199H827.041V197ZM827.041 186.5H829.041V184.5H827.041V186.5ZM869.041 302V304H871.041V302H869.041ZM858.541 302H856.541V304H858.541V302ZM858.541 291.5V289.5H856.541V291.5H858.541ZM869.041 291.5H871.041V289.5H869.041V291.5ZM879.541 237H774.541V241H879.541V237ZM772.541 239V249.5H776.541V239H772.541ZM774.541 251.5H785.041V247.5H774.541V251.5ZM783.041 249.5V281H787.041V249.5H783.041ZM785.041 283H795.541V279H785.041V283ZM793.541 281V291.5H797.541V281H793.541ZM795.541 293.5H806.041V289.5H795.541V293.5ZM804.041 291.5V302H808.041V291.5H804.041ZM806.041 304H858.541V300H806.041V304ZM856.541 302V312.5H860.541V302H856.541ZM858.541 310.5H848.041V314.5H858.541V310.5ZM846.041 312.5V323H850.041V312.5H846.041ZM848.041 321H785.041V325H848.041V321ZM787.041 323V312.5H783.041V323H787.041ZM785.041 310.5H774.541V314.5H785.041V310.5ZM776.541 312.5V302H772.541V312.5H776.541ZM774.541 300H764.041V304H774.541V300ZM766.041 302V281H762.041V302H766.041ZM764.041 279H753.541V283H764.041V279ZM755.541 281V228.5H751.541V281H755.541ZM753.541 230.5H764.041V226.5H753.541V230.5ZM766.041 228.5V207.5H762.041V228.5H766.041ZM764.041 209.5H774.541V205.5H764.041V209.5ZM776.541 207.5V197H772.541V207.5H776.541ZM774.541 199H785.041V195H774.541V199ZM787.041 197V186.5H783.041V197H787.041ZM785.041 188.5H806.041V184.5H785.041V188.5ZM808.041 186.5V176H804.041V186.5H808.041ZM806.041 178H837.541V174H806.041V178ZM835.541 176V186.5H839.541V176H835.541ZM837.541 188.5H858.541V184.5H837.541V188.5ZM856.541 186.5V197H860.541V186.5H856.541ZM858.541 199H869.041V195H858.541V199ZM867.041 197V218H871.041V197H867.041ZM869.041 220H879.541V216H869.041V220ZM877.541 218V239H881.541V218H877.541ZM814.541 186.5V197H818.541V186.5H814.541ZM816.541 195H795.541V199H816.541V195ZM793.541 197V207.5H797.541V197H793.541ZM795.541 205.5H785.041V209.5H795.541V205.5ZM783.041 207.5V228.5H787.041V207.5H783.041ZM785.041 230.5H848.041V226.5H785.041V230.5ZM850.041 228.5V207.5H846.041V228.5H850.041ZM848.041 205.5H837.541V209.5H848.041V205.5ZM839.541 207.5V197H835.541V207.5H839.541ZM837.541 195H827.041V199H837.541V195ZM829.041 197V186.5H825.041V197H829.041ZM827.041 184.5H816.541V188.5H827.041V184.5ZM869.041 300H858.541V304H869.041V300ZM860.541 302V291.5H856.541V302H860.541ZM858.541 293.5H869.041V289.5H858.541V293.5ZM867.041 291.5V302H871.041V291.5H867.041ZM1058.11 197V195H1056.11V197H1058.11ZM1058.11 207.5V209.5H1060.11V207.5H1058.11ZM1037.11 207.5H1035.11V209.5H1037.11V207.5ZM1037.11 197V195H1035.11V197H1037.11ZM1047.61 197V199H1049.61V197H1047.61ZM1047.61 186.5V184.5H1045.61V186.5H1047.61ZM1068.61 186.5V188.5H1070.61V186.5H1068.61ZM1068.61 176V174H1066.61V176H1068.61ZM1100.11 176H1102.11V174H1100.11V176ZM1100.11 186.5H1098.11V188.5H1100.11V186.5ZM1121.11 186.5H1123.11V184.5H1121.11V186.5ZM1121.11 197H1119.11V199H1121.11V197ZM1131.61 197H1133.61V195H1131.61V197ZM1131.61 312.5H1129.61V314.5H1131.61V312.5ZM1152.61 312.5H1154.61V310.5H1152.61V312.5ZM1152.61 323V325H1154.61V323H1152.61ZM1079.11 323H1077.11V325H1079.11V323ZM1079.11 312.5V310.5H1077.11V312.5H1079.11ZM1089.61 312.5V314.5H1091.61V312.5H1089.61ZM1089.61 302V300H1087.61V302H1089.61ZM1100.11 302V304H1102.11V302H1100.11ZM1100.11 218H1102.11V216H1100.11V218ZM1089.61 218H1087.61V220H1089.61V218ZM1089.61 197H1091.61V195H1089.61V197ZM963.611 207.5V209.5H965.611V207.5H963.611ZM953.111 207.5H951.111V209.5H953.111V207.5ZM953.111 197V195H951.111V197H953.111ZM963.611 186.5V184.5H961.611V186.5H963.611ZM984.611 186.5V188.5H986.611V186.5H984.611ZM984.611 176V174H982.611V176H984.611ZM1005.61 176H1007.61V174H1005.61V176ZM1005.61 186.5H1003.61V188.5H1005.61V186.5ZM1026.61 186.5H1028.61V184.5H1026.61V186.5ZM1026.61 207.5H1024.61V209.5H1026.61V207.5ZM1037.11 207.5H1039.11V205.5H1037.11V207.5ZM1037.11 312.5H1035.11V314.5H1037.11V312.5ZM1058.11 312.5H1060.11V310.5H1058.11V312.5ZM1058.11 323V325H1060.11V323H1058.11ZM984.611 323H982.611V325H984.611V323ZM984.611 312.5V310.5H982.611V312.5H984.611ZM1005.61 312.5V314.5H1007.61V312.5H1005.61ZM1005.61 207.5H1007.61V205.5H1005.61V207.5ZM995.111 207.5H993.111V209.5H995.111V207.5ZM995.111 197H997.111V195H995.111V197ZM900.611 323H898.611V325H900.611V323ZM900.611 312.5V310.5H898.611V312.5H900.611ZM921.611 312.5V314.5H923.611V312.5H921.611ZM921.611 207.5H923.611V205.5H921.611V207.5ZM911.111 207.5H909.111V209.5H911.111V207.5ZM911.111 197H913.111V195H911.111V197ZM900.611 197H898.611V199H900.611V197ZM900.611 186.5V184.5H898.611V186.5H900.611ZM942.611 186.5V188.5H944.611V186.5H942.611ZM942.611 176V174H940.611V176H942.611ZM953.111 176H955.111V174H953.111V176ZM953.111 197V199H955.111V197H953.111ZM942.611 197V195H940.611V197H942.611ZM942.611 207.5H940.611V209.5H942.611V207.5ZM953.111 207.5H955.111V205.5H953.111V207.5ZM953.111 312.5H951.111V314.5H953.111V312.5ZM974.111 312.5H976.111V310.5H974.111V312.5ZM974.111 323V325H976.111V323H974.111ZM1056.11 197V207.5H1060.11V197H1056.11ZM1058.11 205.5H1037.11V209.5H1058.11V205.5ZM1039.11 207.5V197H1035.11V207.5H1039.11ZM1037.11 199H1047.61V195H1037.11V199ZM1049.61 197V186.5H1045.61V197H1049.61ZM1047.61 188.5H1068.61V184.5H1047.61V188.5ZM1070.61 186.5V176H1066.61V186.5H1070.61ZM1068.61 178H1100.11V174H1068.61V178ZM1098.11 176V186.5H1102.11V176H1098.11ZM1100.11 188.5H1121.11V184.5H1100.11V188.5ZM1119.11 186.5V197H1123.11V186.5H1119.11ZM1121.11 199H1131.61V195H1121.11V199ZM1129.61 197V312.5H1133.61V197H1129.61ZM1131.61 314.5H1152.61V310.5H1131.61V314.5ZM1150.61 312.5V323H1154.61V312.5H1150.61ZM1152.61 321H1079.11V325H1152.61V321ZM1081.11 323V312.5H1077.11V323H1081.11ZM1079.11 314.5H1089.61V310.5H1079.11V314.5ZM1091.61 312.5V302H1087.61V312.5H1091.61ZM1089.61 304H1100.11V300H1089.61V304ZM1102.11 302V218H1098.11V302H1102.11ZM1100.11 216H1089.61V220H1100.11V216ZM1091.61 218V197H1087.61V218H1091.61ZM1089.61 195H1058.11V199H1089.61V195ZM961.611 197V207.5H965.611V197H961.611ZM963.611 205.5H953.111V209.5H963.611V205.5ZM955.111 207.5V197H951.111V207.5H955.111ZM953.111 199H963.611V195H953.111V199ZM965.611 197V186.5H961.611V197H965.611ZM963.611 188.5H984.611V184.5H963.611V188.5ZM986.611 186.5V176H982.611V186.5H986.611ZM984.611 178H1005.61V174H984.611V178ZM1003.61 176V186.5H1007.61V176H1003.61ZM1005.61 188.5H1026.61V184.5H1005.61V188.5ZM1024.61 186.5V207.5H1028.61V186.5H1024.61ZM1026.61 209.5H1037.11V205.5H1026.61V209.5ZM1035.11 207.5V312.5H1039.11V207.5H1035.11ZM1037.11 314.5H1058.11V310.5H1037.11V314.5ZM1056.11 312.5V323H1060.11V312.5H1056.11ZM1058.11 321H984.611V325H1058.11V321ZM986.611 323V312.5H982.611V323H986.611ZM984.611 314.5H1005.61V310.5H984.611V314.5ZM1007.61 312.5V207.5H1003.61V312.5H1007.61ZM1005.61 205.5H995.111V209.5H1005.61V205.5ZM997.111 207.5V197H993.111V207.5H997.111ZM995.111 195H963.611V199H995.111V195ZM902.611 323V312.5H898.611V323H902.611ZM900.611 314.5H921.611V310.5H900.611V314.5ZM923.611 312.5V207.5H919.611V312.5H923.611ZM921.611 205.5H911.111V209.5H921.611V205.5ZM913.111 207.5V197H909.111V207.5H913.111ZM911.111 195H900.611V199H911.111V195ZM902.611 197V186.5H898.611V197H902.611ZM900.611 188.5H942.611V184.5H900.611V188.5ZM944.611 186.5V176H940.611V186.5H944.611ZM942.611 178H953.111V174H942.611V178ZM951.111 176V197H955.111V176H951.111ZM953.111 195H942.611V199H953.111V195ZM940.611 197V207.5H944.611V197H940.611ZM942.611 209.5H953.111V205.5H942.611V209.5ZM951.111 207.5V312.5H955.111V207.5H951.111ZM953.111 314.5H974.111V310.5H953.111V314.5ZM972.111 312.5V323H976.111V312.5H972.111ZM974.111 321H900.611V325H974.111V321ZM1268.11 186.5V188.5H1270.11V186.5H1268.11ZM1257.61 186.5H1255.61V188.5H1257.61V186.5ZM1257.61 176V174H1255.61V176H1257.61ZM1268.11 165.5V163.5H1266.11V165.5H1268.11ZM1299.61 165.5H1301.61V163.5H1299.61V165.5ZM1299.61 176H1297.61V178H1299.61V176ZM1310.11 176H1312.11V174H1310.11V176ZM1310.11 197V199H1312.11V197H1310.11ZM1278.61 197H1276.61V199H1278.61V197ZM1278.61 176H1280.61V174H1278.61V176ZM1152.61 344V342H1150.61V344H1152.61ZM1173.61 344V346H1175.61V344H1173.61ZM1173.61 323H1175.61V321H1173.61V323ZM1163.11 323H1161.11V325H1163.11V323ZM1163.11 291.5V289.5H1161.11V291.5H1163.11ZM1173.61 291.5V293.5H1175.61V291.5H1173.61ZM1173.61 281V279H1171.61V281H1173.61ZM1194.61 281V283H1196.61V281H1194.61ZM1194.61 270.5H1196.61V268.5H1194.61V270.5ZM1173.61 270.5H1171.61V272.5H1173.61V270.5ZM1173.61 260H1175.61V258H1173.61V260ZM1163.11 260H1161.11V262H1163.11V260ZM1163.11 207.5V205.5H1161.11V207.5H1163.11ZM1173.61 207.5V209.5H1175.61V207.5H1173.61ZM1173.61 197V195H1171.61V197H1173.61ZM1184.11 197V199H1186.11V197H1184.11ZM1184.11 186.5V184.5H1182.11V186.5H1184.11ZM1205.11 186.5V188.5H1207.11V186.5H1205.11ZM1205.11 176V174H1203.11V176H1205.11ZM1236.61 176H1238.61V174H1236.61V176ZM1236.61 186.5H1234.61V188.5H1236.61V186.5ZM1257.61 186.5H1259.61V184.5H1257.61V186.5ZM1257.61 197H1255.61V199H1257.61V197ZM1268.11 197H1270.11V195H1268.11V197ZM1268.11 207.5H1266.11V209.5H1268.11V207.5ZM1278.61 207.5H1280.61V205.5H1278.61V207.5ZM1278.61 249.5V251.5H1280.61V249.5H1278.61ZM1268.11 249.5V247.5H1266.11V249.5H1268.11ZM1268.11 270.5V272.5H1270.11V270.5H1268.11ZM1257.61 270.5V268.5H1255.61V270.5H1257.61ZM1257.61 281V283H1259.61V281H1257.61ZM1194.61 281V279H1192.61V281H1194.61ZM1194.61 291.5V293.5H1196.61V291.5H1194.61ZM1184.11 291.5V289.5H1182.11V291.5H1184.11ZM1184.11 312.5H1182.11V314.5H1184.11V312.5ZM1268.11 312.5H1270.11V310.5H1268.11V312.5ZM1268.11 323H1266.11V325H1268.11V323ZM1289.11 323H1291.11V321H1289.11V323ZM1289.11 375.5V377.5H1291.11V375.5H1289.11ZM1278.61 375.5V373.5H1276.61V375.5H1278.61ZM1278.61 386V388H1280.61V386H1278.61ZM1257.61 386V384H1255.61V386H1257.61ZM1257.61 396.5V398.5H1259.61V396.5H1257.61ZM1184.11 396.5H1182.11V398.5H1184.11V396.5ZM1184.11 386H1186.11V384H1184.11V386ZM1152.61 386H1150.61V388H1152.61V386ZM1205.11 270.5H1203.11V272.5H1205.11V270.5ZM1236.61 270.5V272.5H1238.61V270.5H1236.61ZM1236.61 260V258H1234.61V260H1236.61ZM1247.11 260V262H1249.11V260H1247.11ZM1247.11 197H1249.11V195H1247.11V197ZM1236.61 197H1234.61V199H1236.61V197ZM1236.61 186.5H1238.61V184.5H1236.61V186.5ZM1215.61 186.5V184.5H1213.61V186.5H1215.61ZM1215.61 197V199H1217.61V197H1215.61ZM1205.11 197V195H1203.11V197H1205.11ZM1205.11 207.5V209.5H1207.11V207.5H1205.11ZM1194.61 207.5V205.5H1192.61V207.5H1194.61ZM1194.61 260H1192.61V262H1194.61V260ZM1205.11 260H1207.11V258H1205.11V260ZM1194.61 323H1196.61V321H1194.61V323ZM1184.11 323V321H1182.11V323H1184.11ZM1184.11 333.5H1182.11V335.5H1184.11V333.5ZM1194.61 333.5V335.5H1196.61V333.5H1194.61ZM1194.61 386H1192.61V388H1194.61V386ZM1247.11 386V388H1249.11V386H1247.11ZM1247.11 375.5V373.5H1245.11V375.5H1247.11ZM1268.11 375.5V377.5H1270.11V375.5H1268.11ZM1268.11 344H1270.11V342H1268.11V344ZM1205.11 344H1203.11V346H1205.11V344ZM1205.11 333.5H1207.11V331.5H1205.11V333.5ZM1194.61 333.5V331.5H1192.61V333.5H1194.61ZM1194.61 344V346H1196.61V344H1194.61ZM1173.61 344V342H1171.61V344H1173.61ZM1173.61 375.5H1171.61V377.5H1173.61V375.5ZM1194.61 375.5H1196.61V373.5H1194.61V375.5ZM1266.11 176V186.5H1270.11V176H1266.11ZM1268.11 184.5H1257.61V188.5H1268.11V184.5ZM1259.61 186.5V176H1255.61V186.5H1259.61ZM1257.61 178H1268.11V174H1257.61V178ZM1270.11 176V165.5H1266.11V176H1270.11ZM1268.11 167.5H1299.61V163.5H1268.11V167.5ZM1297.61 165.5V176H1301.61V165.5H1297.61ZM1299.61 178H1310.11V174H1299.61V178ZM1308.11 176V197H1312.11V176H1308.11ZM1310.11 195H1278.61V199H1310.11V195ZM1280.61 197V176H1276.61V197H1280.61ZM1278.61 174H1268.11V178H1278.61V174ZM1152.61 346H1173.61V342H1152.61V346ZM1175.61 344V323H1171.61V344H1175.61ZM1173.61 321H1163.11V325H1173.61V321ZM1165.11 323V291.5H1161.11V323H1165.11ZM1163.11 293.5H1173.61V289.5H1163.11V293.5ZM1175.61 291.5V281H1171.61V291.5H1175.61ZM1173.61 283H1194.61V279H1173.61V283ZM1196.61 281V270.5H1192.61V281H1196.61ZM1194.61 268.5H1173.61V272.5H1194.61V268.5ZM1175.61 270.5V260H1171.61V270.5H1175.61ZM1173.61 258H1163.11V262H1173.61V258ZM1165.11 260V207.5H1161.11V260H1165.11ZM1163.11 209.5H1173.61V205.5H1163.11V209.5ZM1175.61 207.5V197H1171.61V207.5H1175.61ZM1173.61 199H1184.11V195H1173.61V199ZM1186.11 197V186.5H1182.11V197H1186.11ZM1184.11 188.5H1205.11V184.5H1184.11V188.5ZM1207.11 186.5V176H1203.11V186.5H1207.11ZM1205.11 178H1236.61V174H1205.11V178ZM1234.61 176V186.5H1238.61V176H1234.61ZM1236.61 188.5H1257.61V184.5H1236.61V188.5ZM1255.61 186.5V197H1259.61V186.5H1255.61ZM1257.61 199H1268.11V195H1257.61V199ZM1266.11 197V207.5H1270.11V197H1266.11ZM1268.11 209.5H1278.61V205.5H1268.11V209.5ZM1276.61 207.5V249.5H1280.61V207.5H1276.61ZM1278.61 247.5H1268.11V251.5H1278.61V247.5ZM1266.11 249.5V270.5H1270.11V249.5H1266.11ZM1268.11 268.5H1257.61V272.5H1268.11V268.5ZM1255.61 270.5V281H1259.61V270.5H1255.61ZM1257.61 279H1194.61V283H1257.61V279ZM1192.61 281V291.5H1196.61V281H1192.61ZM1194.61 289.5H1184.11V293.5H1194.61V289.5ZM1182.11 291.5V312.5H1186.11V291.5H1182.11ZM1184.11 314.5H1268.11V310.5H1184.11V314.5ZM1266.11 312.5V323H1270.11V312.5H1266.11ZM1268.11 325H1289.11V321H1268.11V325ZM1287.11 323V375.5H1291.11V323H1287.11ZM1289.11 373.5H1278.61V377.5H1289.11V373.5ZM1276.61 375.5V386H1280.61V375.5H1276.61ZM1278.61 384H1257.61V388H1278.61V384ZM1255.61 386V396.5H1259.61V386H1255.61ZM1257.61 394.5H1184.11V398.5H1257.61V394.5ZM1186.11 396.5V386H1182.11V396.5H1186.11ZM1184.11 384H1152.61V388H1184.11V384ZM1154.61 386V344H1150.61V386H1154.61ZM1205.11 272.5H1236.61V268.5H1205.11V272.5ZM1238.61 270.5V260H1234.61V270.5H1238.61ZM1236.61 262H1247.11V258H1236.61V262ZM1249.11 260V197H1245.11V260H1249.11ZM1247.11 195H1236.61V199H1247.11V195ZM1238.61 197V186.5H1234.61V197H1238.61ZM1236.61 184.5H1215.61V188.5H1236.61V184.5ZM1213.61 186.5V197H1217.61V186.5H1213.61ZM1215.61 195H1205.11V199H1215.61V195ZM1203.11 197V207.5H1207.11V197H1203.11ZM1205.11 205.5H1194.61V209.5H1205.11V205.5ZM1192.61 207.5V260H1196.61V207.5H1192.61ZM1194.61 262H1205.11V258H1194.61V262ZM1203.11 260V270.5H1207.11V260H1203.11ZM1194.61 321H1184.11V325H1194.61V321ZM1182.11 323V333.5H1186.11V323H1182.11ZM1184.11 335.5H1194.61V331.5H1184.11V335.5ZM1196.61 333.5V323H1192.61V333.5H1196.61ZM1194.61 388H1247.11V384H1194.61V388ZM1249.11 386V375.5H1245.11V386H1249.11ZM1247.11 377.5H1268.11V373.5H1247.11V377.5ZM1270.11 375.5V344H1266.11V375.5H1270.11ZM1268.11 342H1205.11V346H1268.11V342ZM1207.11 344V333.5H1203.11V344H1207.11ZM1205.11 331.5H1194.61V335.5H1205.11V331.5ZM1192.61 333.5V344H1196.61V333.5H1192.61ZM1194.61 342H1173.61V346H1194.61V342ZM1171.61 344V375.5H1175.61V344H1171.61ZM1173.61 377.5H1194.61V373.5H1173.61V377.5ZM1192.61 375.5V386H1196.61V375.5H1192.61ZM1425.63 239V241H1427.63V239H1425.63ZM1320.63 239V237H1318.63V239H1320.63ZM1320.63 249.5H1318.63V251.5H1320.63V249.5ZM1331.13 249.5H1333.13V247.5H1331.13V249.5ZM1331.13 281H1329.13V283H1331.13V281ZM1341.63 281H1343.63V279H1341.63V281ZM1341.63 291.5H1339.63V293.5H1341.63V291.5ZM1352.13 291.5H1354.13V289.5H1352.13V291.5ZM1352.13 302H1350.13V304H1352.13V302ZM1404.63 302H1406.63V300H1404.63V302ZM1404.63 312.5V314.5H1406.63V312.5H1404.63ZM1394.13 312.5V310.5H1392.13V312.5H1394.13ZM1394.13 323V325H1396.13V323H1394.13ZM1331.13 323H1329.13V325H1331.13V323ZM1331.13 312.5H1333.13V310.5H1331.13V312.5ZM1320.63 312.5H1318.63V314.5H1320.63V312.5ZM1320.63 302H1322.63V300H1320.63V302ZM1310.13 302H1308.13V304H1310.13V302ZM1310.13 281H1312.13V279H1310.13V281ZM1299.63 281H1297.63V283H1299.63V281ZM1299.63 228.5V226.5H1297.63V228.5H1299.63ZM1310.13 228.5V230.5H1312.13V228.5H1310.13ZM1310.13 207.5V205.5H1308.13V207.5H1310.13ZM1320.63 207.5V209.5H1322.63V207.5H1320.63ZM1320.63 197V195H1318.63V197H1320.63ZM1331.13 197V199H1333.13V197H1331.13ZM1331.13 186.5V184.5H1329.13V186.5H1331.13ZM1352.13 186.5V188.5H1354.13V186.5H1352.13ZM1352.13 176V174H1350.13V176H1352.13ZM1383.63 176H1385.63V174H1383.63V176ZM1383.63 186.5H1381.63V188.5H1383.63V186.5ZM1404.63 186.5H1406.63V184.5H1404.63V186.5ZM1404.63 197H1402.63V199H1404.63V197ZM1415.13 197H1417.13V195H1415.13V197ZM1415.13 218H1413.13V220H1415.13V218ZM1425.63 218H1427.63V216H1425.63V218ZM1362.63 186.5V184.5H1360.63V186.5H1362.63ZM1362.63 197V199H1364.63V197H1362.63ZM1341.63 197V195H1339.63V197H1341.63ZM1341.63 207.5V209.5H1343.63V207.5H1341.63ZM1331.13 207.5V205.5H1329.13V207.5H1331.13ZM1331.13 228.5H1329.13V230.5H1331.13V228.5ZM1394.13 228.5V230.5H1396.13V228.5H1394.13ZM1394.13 207.5H1396.13V205.5H1394.13V207.5ZM1383.63 207.5H1381.63V209.5H1383.63V207.5ZM1383.63 197H1385.63V195H1383.63V197ZM1373.13 197H1371.13V199H1373.13V197ZM1373.13 186.5H1375.13V184.5H1373.13V186.5ZM1415.13 302V304H1417.13V302H1415.13ZM1404.63 302H1402.63V304H1404.63V302ZM1404.63 291.5V289.5H1402.63V291.5H1404.63ZM1415.13 291.5H1417.13V289.5H1415.13V291.5ZM1425.63 237H1320.63V241H1425.63V237ZM1318.63 239V249.5H1322.63V239H1318.63ZM1320.63 251.5H1331.13V247.5H1320.63V251.5ZM1329.13 249.5V281H1333.13V249.5H1329.13ZM1331.13 283H1341.63V279H1331.13V283ZM1339.63 281V291.5H1343.63V281H1339.63ZM1341.63 293.5H1352.13V289.5H1341.63V293.5ZM1350.13 291.5V302H1354.13V291.5H1350.13ZM1352.13 304H1404.63V300H1352.13V304ZM1402.63 302V312.5H1406.63V302H1402.63ZM1404.63 310.5H1394.13V314.5H1404.63V310.5ZM1392.13 312.5V323H1396.13V312.5H1392.13ZM1394.13 321H1331.13V325H1394.13V321ZM1333.13 323V312.5H1329.13V323H1333.13ZM1331.13 310.5H1320.63V314.5H1331.13V310.5ZM1322.63 312.5V302H1318.63V312.5H1322.63ZM1320.63 300H1310.13V304H1320.63V300ZM1312.13 302V281H1308.13V302H1312.13ZM1310.13 279H1299.63V283H1310.13V279ZM1301.63 281V228.5H1297.63V281H1301.63ZM1299.63 230.5H1310.13V226.5H1299.63V230.5ZM1312.13 228.5V207.5H1308.13V228.5H1312.13ZM1310.13 209.5H1320.63V205.5H1310.13V209.5ZM1322.63 207.5V197H1318.63V207.5H1322.63ZM1320.63 199H1331.13V195H1320.63V199ZM1333.13 197V186.5H1329.13V197H1333.13ZM1331.13 188.5H1352.13V184.5H1331.13V188.5ZM1354.13 186.5V176H1350.13V186.5H1354.13ZM1352.13 178H1383.63V174H1352.13V178ZM1381.63 176V186.5H1385.63V176H1381.63ZM1383.63 188.5H1404.63V184.5H1383.63V188.5ZM1402.63 186.5V197H1406.63V186.5H1402.63ZM1404.63 199H1415.13V195H1404.63V199ZM1413.13 197V218H1417.13V197H1413.13ZM1415.13 220H1425.63V216H1415.13V220ZM1423.63 218V239H1427.63V218H1423.63ZM1360.63 186.5V197H1364.63V186.5H1360.63ZM1362.63 195H1341.63V199H1362.63V195ZM1339.63 197V207.5H1343.63V197H1339.63ZM1341.63 205.5H1331.13V209.5H1341.63V205.5ZM1329.13 207.5V228.5H1333.13V207.5H1329.13ZM1331.13 230.5H1394.13V226.5H1331.13V230.5ZM1396.13 228.5V207.5H1392.13V228.5H1396.13ZM1394.13 205.5H1383.63V209.5H1394.13V205.5ZM1385.63 207.5V197H1381.63V207.5H1385.63ZM1383.63 195H1373.13V199H1383.63V195ZM1375.13 197V186.5H1371.13V197H1375.13ZM1373.13 184.5H1362.63V188.5H1373.13V184.5ZM1415.13 300H1404.63V304H1415.13V300ZM1406.63 302V291.5H1402.63V302H1406.63ZM1404.63 293.5H1415.13V289.5H1404.63V293.5ZM1413.13 291.5V302H1417.13V291.5H1413.13ZM1499.21 176H1501.21V174H1499.21V176ZM1499.21 197H1497.21V199H1499.21V197ZM1509.71 197V199H1511.71V197H1509.71ZM1509.71 186.5V184.5H1507.71V186.5H1509.71ZM1530.71 186.5V188.5H1532.71V186.5H1530.71ZM1530.71 176V174H1528.71V176H1530.71ZM1562.21 176H1564.21V174H1562.21V176ZM1562.21 186.5H1560.21V188.5H1562.21V186.5ZM1572.71 186.5H1574.71V184.5H1572.71V186.5ZM1572.71 197H1570.71V199H1572.71V197ZM1583.21 197H1585.21V195H1583.21V197ZM1583.21 312.5H1581.21V314.5H1583.21V312.5ZM1604.21 312.5H1606.21V310.5H1604.21V312.5ZM1604.21 323V325H1606.21V323H1604.21ZM1530.71 323H1528.71V325H1530.71V323ZM1530.71 312.5V310.5H1528.71V312.5H1530.71ZM1551.71 312.5V314.5H1553.71V312.5H1551.71ZM1551.71 197H1553.71V195H1551.71V197ZM1509.71 197V195H1507.71V197H1509.71ZM1509.71 207.5V209.5H1511.71V207.5H1509.71ZM1499.21 207.5H1497.21V209.5H1499.21V207.5ZM1499.21 197H1501.21V195H1499.21V197ZM1488.71 197V195H1486.71V197H1488.71ZM1488.71 207.5H1486.71V209.5H1488.71V207.5ZM1499.21 207.5H1501.21V205.5H1499.21V207.5ZM1499.21 312.5H1497.21V314.5H1499.21V312.5ZM1520.21 312.5H1522.21V310.5H1520.21V312.5ZM1520.21 323V325H1522.21V323H1520.21ZM1446.71 323H1444.71V325H1446.71V323ZM1446.71 312.5V310.5H1444.71V312.5H1446.71ZM1467.71 312.5V314.5H1469.71V312.5H1467.71ZM1467.71 197H1469.71V195H1467.71V197ZM1446.71 197H1444.71V199H1446.71V197ZM1446.71 186.5V184.5H1444.71V186.5H1446.71ZM1488.71 186.5V188.5H1490.71V186.5H1488.71ZM1488.71 176V174H1486.71V176H1488.71ZM1497.21 176V197H1501.21V176H1497.21ZM1499.21 199H1509.71V195H1499.21V199ZM1511.71 197V186.5H1507.71V197H1511.71ZM1509.71 188.5H1530.71V184.5H1509.71V188.5ZM1532.71 186.5V176H1528.71V186.5H1532.71ZM1530.71 178H1562.21V174H1530.71V178ZM1560.21 176V186.5H1564.21V176H1560.21ZM1562.21 188.5H1572.71V184.5H1562.21V188.5ZM1570.71 186.5V197H1574.71V186.5H1570.71ZM1572.71 199H1583.21V195H1572.71V199ZM1581.21 197V312.5H1585.21V197H1581.21ZM1583.21 314.5H1604.21V310.5H1583.21V314.5ZM1602.21 312.5V323H1606.21V312.5H1602.21ZM1604.21 321H1530.71V325H1604.21V321ZM1532.71 323V312.5H1528.71V323H1532.71ZM1530.71 314.5H1551.71V310.5H1530.71V314.5ZM1553.71 312.5V197H1549.71V312.5H1553.71ZM1551.71 195H1509.71V199H1551.71V195ZM1507.71 197V207.5H1511.71V197H1507.71ZM1509.71 205.5H1499.21V209.5H1509.71V205.5ZM1501.21 207.5V197H1497.21V207.5H1501.21ZM1499.21 195H1488.71V199H1499.21V195ZM1486.71 197V207.5H1490.71V197H1486.71ZM1488.71 209.5H1499.21V205.5H1488.71V209.5ZM1497.21 207.5V312.5H1501.21V207.5H1497.21ZM1499.21 314.5H1520.21V310.5H1499.21V314.5ZM1518.21 312.5V323H1522.21V312.5H1518.21ZM1520.21 321H1446.71V325H1520.21V321ZM1448.71 323V312.5H1444.71V323H1448.71ZM1446.71 314.5H1467.71V310.5H1446.71V314.5ZM1469.71 312.5V197H1465.71V312.5H1469.71ZM1467.71 195H1446.71V199H1467.71V195ZM1448.71 197V186.5H1444.71V197H1448.71ZM1446.71 188.5H1488.71V184.5H1446.71V188.5ZM1490.71 186.5V176H1486.71V186.5H1490.71ZM1488.71 178H1499.21V174H1488.71V178Z" fill="black" mask="url(#path-4-outside-2_555_2)"/>
<rect x="1.5" y="1.5" width="1923" height="467" rx="233.5" stroke="black" stroke-width="3"/>
</svg>
