<svg width="1080" height="264" viewBox="0 0 1080 264" fill="none" xmlns="http://www.w3.org/2000/svg">
<mask id="path-1-outside-1_636_79" maskUnits="userSpaceOnUse" x="154" y="60" width="767" height="175" fill="black">
<rect fill="white" x="154" y="60" width="767" height="175"/>
<path d="M157.397 63.4H263.307V100.78H257.077V88.32H250.847V75.86H244.617V69.63H213.467V75.86H219.697V175.54H225.927V181.77H238.387V188H182.317V181.77H194.777V175.54H201.007V69.63H182.317V75.86H169.857V82.09H163.627V100.78H157.397V63.4ZM325.558 181.77V188H281.948V181.77H275.718V175.54H269.488V163.08H263.258V131.93H269.488V119.47H275.718V113.24H281.948V107.01H294.408V100.78H313.098V107.01H325.558V113.24H331.788V119.47H338.018V125.7H344.248V163.08H338.018V175.54H331.788V181.77H325.558ZM300.638 107.01V113.24H288.178V119.47H281.948V163.08H288.178V175.54H294.408V181.77H313.098V175.54H319.328V169.31H325.558V125.7H319.328V113.24H306.868V107.01H300.638ZM381.698 113.24V175.54H400.388V181.77H394.158V188H369.238V181.77H363.008V113.24H350.548V107.01H356.778V100.78H363.008V94.55H369.238V88.32H375.468V82.09H381.698V107.01H406.618V113.24H381.698ZM406.618 175.54H400.388V169.31H406.618V175.54ZM487.684 138.16H425.384V144.39H431.614V163.08H437.844V169.31H444.074V175.54H475.224V181.77H468.994V188H431.614V181.77H425.384V175.54H419.154V163.08H412.924V131.93H419.154V119.47H425.384V113.24H431.614V107.01H444.074V100.78H462.764V107.01H475.224V113.24H481.454V125.7H487.684V138.16ZM450.304 107.01V113.24H437.844V119.47H431.614V131.93H468.994V119.47H462.764V113.24H456.534V107.01H450.304ZM481.454 175.54H475.224V169.31H481.454V175.54ZM593.636 113.24V119.47H581.176V113.24H587.406V107.01H599.866V100.78H618.556V107.01H631.016V113.24H637.246V181.77H649.706V188H606.096V181.77H612.326V175.54H618.556V125.7H612.326V113.24H593.636ZM537.566 113.24V119.47H531.336V113.24H537.566V107.01H550.026V100.78H562.486V107.01H574.946V119.47H581.176V181.77H593.636V188H550.026V181.77H562.486V119.47H556.256V113.24H537.566ZM500.186 188V181.77H512.646V119.47H506.416V113.24H500.186V107.01H525.106V100.78H531.336V113.24H525.106V119.47H531.336V181.77H543.796V188H500.186ZM718.236 100.78V107.01H712.006V100.78H718.236V94.55H736.926V100.78H743.156V113.24H724.466V100.78H718.236ZM649.706 200.46H662.166V188H655.936V169.31H662.166V163.08H674.626V156.85H662.166V150.62H655.936V119.47H662.166V113.24H668.396V107.01H680.856V100.78H699.546V107.01H712.006V113.24H718.236V119.47H724.466V144.39H718.236V156.85H712.006V163.08H674.626V169.31H668.396V181.77H718.236V188H730.696V219.15H724.466V225.38H712.006V231.61H668.396V225.38H649.706V200.46ZM680.856 156.85H699.546V150.62H705.776V113.24H699.546V107.01H687.086V113.24H680.856V119.47H674.626V150.62H680.856V156.85ZM674.626 188H668.396V194.23H674.626V188ZM674.626 225.38H705.776V219.15H718.236V200.46H680.856V194.23H674.626V200.46H662.166V219.15H674.626V225.38ZM811.7 138.16H749.4V144.39H755.63V163.08H761.86V169.31H768.09V175.54H799.24V181.77H793.01V188H755.63V181.77H749.4V175.54H743.17V163.08H736.94V131.93H743.17V119.47H749.4V113.24H755.63V107.01H768.09V100.78H786.78V107.01H799.24V113.24H805.47V125.7H811.7V138.16ZM774.32 107.01V113.24H761.86V119.47H755.63V131.93H793.01V119.47H786.78V113.24H780.55V107.01H774.32ZM805.47 175.54H799.24V169.31H805.47V175.54ZM855.352 100.78V113.24H861.582V107.01H874.042V100.78H892.732V107.01H898.962V113.24H905.192V181.77H917.652V188H874.042V181.77H886.502V113.24H861.582V119.47H855.352V113.24H849.122V119.47H855.352V181.77H867.812V188H824.202V181.77H836.662V113.24H824.202V107.01H849.122V100.78H855.352Z"/>
</mask>
<path d="M157.397 63.4V60.4H154.397V63.4H157.397ZM263.307 63.4H266.307V60.4H263.307V63.4ZM263.307 100.78V103.78H266.307V100.78H263.307ZM257.077 100.78H254.077V103.78H257.077V100.78ZM257.077 88.32H260.077V85.32H257.077V88.32ZM250.847 88.32H247.847V91.32H250.847V88.32ZM250.847 75.86H253.847V72.86H250.847V75.86ZM244.617 75.86H241.617V78.86H244.617V75.86ZM244.617 69.63H247.617V66.63H244.617V69.63ZM213.467 69.63V66.63H210.467V69.63H213.467ZM213.467 75.86H210.467V78.86H213.467V75.86ZM219.697 75.86H222.697V72.86H219.697V75.86ZM219.697 175.54H216.697V178.54H219.697V175.54ZM225.927 175.54H228.927V172.54H225.927V175.54ZM225.927 181.77H222.927V184.77H225.927V181.77ZM238.387 181.77H241.387V178.77H238.387V181.77ZM238.387 188V191H241.387V188H238.387ZM182.317 188H179.317V191H182.317V188ZM182.317 181.77V178.77H179.317V181.77H182.317ZM194.777 181.77V184.77H197.777V181.77H194.777ZM194.777 175.54V172.54H191.777V175.54H194.777ZM201.007 175.54V178.54H204.007V175.54H201.007ZM201.007 69.63H204.007V66.63H201.007V69.63ZM182.317 69.63V66.63H179.317V69.63H182.317ZM182.317 75.86V78.86H185.317V75.86H182.317ZM169.857 75.86V72.86H166.857V75.86H169.857ZM169.857 82.09V85.09H172.857V82.09H169.857ZM163.627 82.09V79.09H160.627V82.09H163.627ZM163.627 100.78V103.78H166.627V100.78H163.627ZM157.397 100.78H154.397V103.78H157.397V100.78ZM157.397 66.4H263.307V60.4H157.397V66.4ZM260.307 63.4V100.78H266.307V63.4H260.307ZM263.307 97.78H257.077V103.78H263.307V97.78ZM260.077 100.78V88.32H254.077V100.78H260.077ZM257.077 85.32H250.847V91.32H257.077V85.32ZM253.847 88.32V75.86H247.847V88.32H253.847ZM250.847 72.86H244.617V78.86H250.847V72.86ZM247.617 75.86V69.63H241.617V75.86H247.617ZM244.617 66.63H213.467V72.63H244.617V66.63ZM210.467 69.63V75.86H216.467V69.63H210.467ZM213.467 78.86H219.697V72.86H213.467V78.86ZM216.697 75.86V175.54H222.697V75.86H216.697ZM219.697 178.54H225.927V172.54H219.697V178.54ZM222.927 175.54V181.77H228.927V175.54H222.927ZM225.927 184.77H238.387V178.77H225.927V184.77ZM235.387 181.77V188H241.387V181.77H235.387ZM238.387 185H182.317V191H238.387V185ZM185.317 188V181.77H179.317V188H185.317ZM182.317 184.77H194.777V178.77H182.317V184.77ZM197.777 181.77V175.54H191.777V181.77H197.777ZM194.777 178.54H201.007V172.54H194.777V178.54ZM204.007 175.54V69.63H198.007V175.54H204.007ZM201.007 66.63H182.317V72.63H201.007V66.63ZM179.317 69.63V75.86H185.317V69.63H179.317ZM182.317 72.86H169.857V78.86H182.317V72.86ZM166.857 75.86V82.09H172.857V75.86H166.857ZM169.857 79.09H163.627V85.09H169.857V79.09ZM160.627 82.09V100.78H166.627V82.09H160.627ZM163.627 97.78H157.397V103.78H163.627V97.78ZM160.397 100.78V63.4H154.397V100.78H160.397ZM325.558 181.77V178.77H322.558V181.77H325.558ZM325.558 188V191H328.558V188H325.558ZM281.948 188H278.948V191H281.948V188ZM281.948 181.77H284.948V178.77H281.948V181.77ZM275.718 181.77H272.718V184.77H275.718V181.77ZM275.718 175.54H278.718V172.54H275.718V175.54ZM269.488 175.54H266.488V178.54H269.488V175.54ZM269.488 163.08H272.488V160.08H269.488V163.08ZM263.258 163.08H260.258V166.08H263.258V163.08ZM263.258 131.93V128.93H260.258V131.93H263.258ZM269.488 131.93V134.93H272.488V131.93H269.488ZM269.488 119.47V116.47H266.488V119.47H269.488ZM275.718 119.47V122.47H278.718V119.47H275.718ZM275.718 113.24V110.24H272.718V113.24H275.718ZM281.948 113.24V116.24H284.948V113.24H281.948ZM281.948 107.01V104.01H278.948V107.01H281.948ZM294.408 107.01V110.01H297.408V107.01H294.408ZM294.408 100.78V97.78H291.408V100.78H294.408ZM313.098 100.78H316.098V97.78H313.098V100.78ZM313.098 107.01H310.098V110.01H313.098V107.01ZM325.558 107.01H328.558V104.01H325.558V107.01ZM325.558 113.24H322.558V116.24H325.558V113.24ZM331.788 113.24H334.788V110.24H331.788V113.24ZM331.788 119.47H328.788V122.47H331.788V119.47ZM338.018 119.47H341.018V116.47H338.018V119.47ZM338.018 125.7H335.018V128.7H338.018V125.7ZM344.248 125.7H347.248V122.7H344.248V125.7ZM344.248 163.08V166.08H347.248V163.08H344.248ZM338.018 163.08V160.08H335.018V163.08H338.018ZM338.018 175.54V178.54H341.018V175.54H338.018ZM331.788 175.54V172.54H328.788V175.54H331.788ZM331.788 181.77V184.77H334.788V181.77H331.788ZM300.638 107.01V104.01H297.638V107.01H300.638ZM300.638 113.24V116.24H303.638V113.24H300.638ZM288.178 113.24V110.24H285.178V113.24H288.178ZM288.178 119.47V122.47H291.178V119.47H288.178ZM281.948 119.47V116.47H278.948V119.47H281.948ZM281.948 163.08H278.948V166.08H281.948V163.08ZM288.178 163.08H291.178V160.08H288.178V163.08ZM288.178 175.54H285.178V178.54H288.178V175.54ZM294.408 175.54H297.408V172.54H294.408V175.54ZM294.408 181.77H291.408V184.77H294.408V181.77ZM313.098 181.77V184.77H316.098V181.77H313.098ZM313.098 175.54V172.54H310.098V175.54H313.098ZM319.328 175.54V178.54H322.328V175.54H319.328ZM319.328 169.31V166.31H316.328V169.31H319.328ZM325.558 169.31V172.31H328.558V169.31H325.558ZM325.558 125.7H328.558V122.7H325.558V125.7ZM319.328 125.7H316.328V128.7H319.328V125.7ZM319.328 113.24H322.328V110.24H319.328V113.24ZM306.868 113.24H303.868V116.24H306.868V113.24ZM306.868 107.01H309.868V104.01H306.868V107.01ZM322.558 181.77V188H328.558V181.77H322.558ZM325.558 185H281.948V191H325.558V185ZM284.948 188V181.77H278.948V188H284.948ZM281.948 178.77H275.718V184.77H281.948V178.77ZM278.718 181.77V175.54H272.718V181.77H278.718ZM275.718 172.54H269.488V178.54H275.718V172.54ZM272.488 175.54V163.08H266.488V175.54H272.488ZM269.488 160.08H263.258V166.08H269.488V160.08ZM266.258 163.08V131.93H260.258V163.08H266.258ZM263.258 134.93H269.488V128.93H263.258V134.93ZM272.488 131.93V119.47H266.488V131.93H272.488ZM269.488 122.47H275.718V116.47H269.488V122.47ZM278.718 119.47V113.24H272.718V119.47H278.718ZM275.718 116.24H281.948V110.24H275.718V116.24ZM284.948 113.24V107.01H278.948V113.24H284.948ZM281.948 110.01H294.408V104.01H281.948V110.01ZM297.408 107.01V100.78H291.408V107.01H297.408ZM294.408 103.78H313.098V97.78H294.408V103.78ZM310.098 100.78V107.01H316.098V100.78H310.098ZM313.098 110.01H325.558V104.01H313.098V110.01ZM322.558 107.01V113.24H328.558V107.01H322.558ZM325.558 116.24H331.788V110.24H325.558V116.24ZM328.788 113.24V119.47H334.788V113.24H328.788ZM331.788 122.47H338.018V116.47H331.788V122.47ZM335.018 119.47V125.7H341.018V119.47H335.018ZM338.018 128.7H344.248V122.7H338.018V128.7ZM341.248 125.7V163.08H347.248V125.7H341.248ZM344.248 160.08H338.018V166.08H344.248V160.08ZM335.018 163.08V175.54H341.018V163.08H335.018ZM338.018 172.54H331.788V178.54H338.018V172.54ZM328.788 175.54V181.77H334.788V175.54H328.788ZM331.788 178.77H325.558V184.77H331.788V178.77ZM297.638 107.01V113.24H303.638V107.01H297.638ZM300.638 110.24H288.178V116.24H300.638V110.24ZM285.178 113.24V119.47H291.178V113.24H285.178ZM288.178 116.47H281.948V122.47H288.178V116.47ZM278.948 119.47V163.08H284.948V119.47H278.948ZM281.948 166.08H288.178V160.08H281.948V166.08ZM285.178 163.08V175.54H291.178V163.08H285.178ZM288.178 178.54H294.408V172.54H288.178V178.54ZM291.408 175.54V181.77H297.408V175.54H291.408ZM294.408 184.77H313.098V178.77H294.408V184.77ZM316.098 181.77V175.54H310.098V181.77H316.098ZM313.098 178.54H319.328V172.54H313.098V178.54ZM322.328 175.54V169.31H316.328V175.54H322.328ZM319.328 172.31H325.558V166.31H319.328V172.31ZM328.558 169.31V125.7H322.558V169.31H328.558ZM325.558 122.7H319.328V128.7H325.558V122.7ZM322.328 125.7V113.24H316.328V125.7H322.328ZM319.328 110.24H306.868V116.24H319.328V110.24ZM309.868 113.24V107.01H303.868V113.24H309.868ZM306.868 104.01H300.638V110.01H306.868V104.01ZM381.698 113.24V110.24H378.698V113.24H381.698ZM381.698 175.54H378.698V178.54H381.698V175.54ZM400.388 175.54H403.388V172.54H400.388V175.54ZM400.388 181.77V184.77H403.388V181.77H400.388ZM394.158 181.77V178.77H391.158V181.77H394.158ZM394.158 188V191H397.158V188H394.158ZM369.238 188H366.238V191H369.238V188ZM369.238 181.77H372.238V178.77H369.238V181.77ZM363.008 181.77H360.008V184.77H363.008V181.77ZM363.008 113.24H366.008V110.24H363.008V113.24ZM350.548 113.24H347.548V116.24H350.548V113.24ZM350.548 107.01V104.01H347.548V107.01H350.548ZM356.778 107.01V110.01H359.778V107.01H356.778ZM356.778 100.78V97.78H353.778V100.78H356.778ZM363.008 100.78V103.78H366.008V100.78H363.008ZM363.008 94.55V91.55H360.008V94.55H363.008ZM369.238 94.55V97.55H372.238V94.55H369.238ZM369.238 88.32V85.32H366.238V88.32H369.238ZM375.468 88.32V91.32H378.468V88.32H375.468ZM375.468 82.09V79.09H372.468V82.09H375.468ZM381.698 82.09H384.698V79.09H381.698V82.09ZM381.698 107.01H378.698V110.01H381.698V107.01ZM406.618 107.01H409.618V104.01H406.618V107.01ZM406.618 113.24V116.24H409.618V113.24H406.618ZM406.618 175.54V178.54H409.618V175.54H406.618ZM400.388 175.54H397.388V178.54H400.388V175.54ZM400.388 169.31V166.31H397.388V169.31H400.388ZM406.618 169.31H409.618V166.31H406.618V169.31ZM378.698 113.24V175.54H384.698V113.24H378.698ZM381.698 178.54H400.388V172.54H381.698V178.54ZM397.388 175.54V181.77H403.388V175.54H397.388ZM400.388 178.77H394.158V184.77H400.388V178.77ZM391.158 181.77V188H397.158V181.77H391.158ZM394.158 185H369.238V191H394.158V185ZM372.238 188V181.77H366.238V188H372.238ZM369.238 178.77H363.008V184.77H369.238V178.77ZM366.008 181.77V113.24H360.008V181.77H366.008ZM363.008 110.24H350.548V116.24H363.008V110.24ZM353.548 113.24V107.01H347.548V113.24H353.548ZM350.548 110.01H356.778V104.01H350.548V110.01ZM359.778 107.01V100.78H353.778V107.01H359.778ZM356.778 103.78H363.008V97.78H356.778V103.78ZM366.008 100.78V94.55H360.008V100.78H366.008ZM363.008 97.55H369.238V91.55H363.008V97.55ZM372.238 94.55V88.32H366.238V94.55H372.238ZM369.238 91.32H375.468V85.32H369.238V91.32ZM378.468 88.32V82.09H372.468V88.32H378.468ZM375.468 85.09H381.698V79.09H375.468V85.09ZM378.698 82.09V107.01H384.698V82.09H378.698ZM381.698 110.01H406.618V104.01H381.698V110.01ZM403.618 107.01V113.24H409.618V107.01H403.618ZM406.618 110.24H381.698V116.24H406.618V110.24ZM406.618 172.54H400.388V178.54H406.618V172.54ZM403.388 175.54V169.31H397.388V175.54H403.388ZM400.388 172.31H406.618V166.31H400.388V172.31ZM403.618 169.31V175.54H409.618V169.31H403.618ZM487.684 138.16V141.16H490.684V138.16H487.684ZM425.384 138.16V135.16H422.384V138.16H425.384ZM425.384 144.39H422.384V147.39H425.384V144.39ZM431.614 144.39H434.614V141.39H431.614V144.39ZM431.614 163.08H428.614V166.08H431.614V163.08ZM437.844 163.08H440.844V160.08H437.844V163.08ZM437.844 169.31H434.844V172.31H437.844V169.31ZM444.074 169.31H447.074V166.31H444.074V169.31ZM444.074 175.54H441.074V178.54H444.074V175.54ZM475.224 175.54H478.224V172.54H475.224V175.54ZM475.224 181.77V184.77H478.224V181.77H475.224ZM468.994 181.77V178.77H465.994V181.77H468.994ZM468.994 188V191H471.994V188H468.994ZM431.614 188H428.614V191H431.614V188ZM431.614 181.77H434.614V178.77H431.614V181.77ZM425.384 181.77H422.384V184.77H425.384V181.77ZM425.384 175.54H428.384V172.54H425.384V175.54ZM419.154 175.54H416.154V178.54H419.154V175.54ZM419.154 163.08H422.154V160.08H419.154V163.08ZM412.924 163.08H409.924V166.08H412.924V163.08ZM412.924 131.93V128.93H409.924V131.93H412.924ZM419.154 131.93V134.93H422.154V131.93H419.154ZM419.154 119.47V116.47H416.154V119.47H419.154ZM425.384 119.47V122.47H428.384V119.47H425.384ZM425.384 113.24V110.24H422.384V113.24H425.384ZM431.614 113.24V116.24H434.614V113.24H431.614ZM431.614 107.01V104.01H428.614V107.01H431.614ZM444.074 107.01V110.01H447.074V107.01H444.074ZM444.074 100.78V97.78H441.074V100.78H444.074ZM462.764 100.78H465.764V97.78H462.764V100.78ZM462.764 107.01H459.764V110.01H462.764V107.01ZM475.224 107.01H478.224V104.01H475.224V107.01ZM475.224 113.24H472.224V116.24H475.224V113.24ZM481.454 113.24H484.454V110.24H481.454V113.24ZM481.454 125.7H478.454V128.7H481.454V125.7ZM487.684 125.7H490.684V122.7H487.684V125.7ZM450.304 107.01V104.01H447.304V107.01H450.304ZM450.304 113.24V116.24H453.304V113.24H450.304ZM437.844 113.24V110.24H434.844V113.24H437.844ZM437.844 119.47V122.47H440.844V119.47H437.844ZM431.614 119.47V116.47H428.614V119.47H431.614ZM431.614 131.93H428.614V134.93H431.614V131.93ZM468.994 131.93V134.93H471.994V131.93H468.994ZM468.994 119.47H471.994V116.47H468.994V119.47ZM462.764 119.47H459.764V122.47H462.764V119.47ZM462.764 113.24H465.764V110.24H462.764V113.24ZM456.534 113.24H453.534V116.24H456.534V113.24ZM456.534 107.01H459.534V104.01H456.534V107.01ZM481.454 175.54V178.54H484.454V175.54H481.454ZM475.224 175.54H472.224V178.54H475.224V175.54ZM475.224 169.31V166.31H472.224V169.31H475.224ZM481.454 169.31H484.454V166.31H481.454V169.31ZM487.684 135.16H425.384V141.16H487.684V135.16ZM422.384 138.16V144.39H428.384V138.16H422.384ZM425.384 147.39H431.614V141.39H425.384V147.39ZM428.614 144.39V163.08H434.614V144.39H428.614ZM431.614 166.08H437.844V160.08H431.614V166.08ZM434.844 163.08V169.31H440.844V163.08H434.844ZM437.844 172.31H444.074V166.31H437.844V172.31ZM441.074 169.31V175.54H447.074V169.31H441.074ZM444.074 178.54H475.224V172.54H444.074V178.54ZM472.224 175.54V181.77H478.224V175.54H472.224ZM475.224 178.77H468.994V184.77H475.224V178.77ZM465.994 181.77V188H471.994V181.77H465.994ZM468.994 185H431.614V191H468.994V185ZM434.614 188V181.77H428.614V188H434.614ZM431.614 178.77H425.384V184.77H431.614V178.77ZM428.384 181.77V175.54H422.384V181.77H428.384ZM425.384 172.54H419.154V178.54H425.384V172.54ZM422.154 175.54V163.08H416.154V175.54H422.154ZM419.154 160.08H412.924V166.08H419.154V160.08ZM415.924 163.08V131.93H409.924V163.08H415.924ZM412.924 134.93H419.154V128.93H412.924V134.93ZM422.154 131.93V119.47H416.154V131.93H422.154ZM419.154 122.47H425.384V116.47H419.154V122.47ZM428.384 119.47V113.24H422.384V119.47H428.384ZM425.384 116.24H431.614V110.24H425.384V116.24ZM434.614 113.24V107.01H428.614V113.24H434.614ZM431.614 110.01H444.074V104.01H431.614V110.01ZM447.074 107.01V100.78H441.074V107.01H447.074ZM444.074 103.78H462.764V97.78H444.074V103.78ZM459.764 100.78V107.01H465.764V100.78H459.764ZM462.764 110.01H475.224V104.01H462.764V110.01ZM472.224 107.01V113.24H478.224V107.01H472.224ZM475.224 116.24H481.454V110.24H475.224V116.24ZM478.454 113.24V125.7H484.454V113.24H478.454ZM481.454 128.7H487.684V122.7H481.454V128.7ZM484.684 125.7V138.16H490.684V125.7H484.684ZM447.304 107.01V113.24H453.304V107.01H447.304ZM450.304 110.24H437.844V116.24H450.304V110.24ZM434.844 113.24V119.47H440.844V113.24H434.844ZM437.844 116.47H431.614V122.47H437.844V116.47ZM428.614 119.47V131.93H434.614V119.47H428.614ZM431.614 134.93H468.994V128.93H431.614V134.93ZM471.994 131.93V119.47H465.994V131.93H471.994ZM468.994 116.47H462.764V122.47H468.994V116.47ZM465.764 119.47V113.24H459.764V119.47H465.764ZM462.764 110.24H456.534V116.24H462.764V110.24ZM459.534 113.24V107.01H453.534V113.24H459.534ZM456.534 104.01H450.304V110.01H456.534V104.01ZM481.454 172.54H475.224V178.54H481.454V172.54ZM478.224 175.54V169.31H472.224V175.54H478.224ZM475.224 172.31H481.454V166.31H475.224V172.31ZM478.454 169.31V175.54H484.454V169.31H478.454ZM593.636 113.24V110.24H590.636V113.24H593.636ZM593.636 119.47V122.47H596.636V119.47H593.636ZM581.176 119.47H578.176V122.47H581.176V119.47ZM581.176 113.24V110.24H578.176V113.24H581.176ZM587.406 113.24V116.24H590.406V113.24H587.406ZM587.406 107.01V104.01H584.406V107.01H587.406ZM599.866 107.01V110.01H602.866V107.01H599.866ZM599.866 100.78V97.78H596.866V100.78H599.866ZM618.556 100.78H621.556V97.78H618.556V100.78ZM618.556 107.01H615.556V110.01H618.556V107.01ZM631.016 107.01H634.016V104.01H631.016V107.01ZM631.016 113.24H628.016V116.24H631.016V113.24ZM637.246 113.24H640.246V110.24H637.246V113.24ZM637.246 181.77H634.246V184.77H637.246V181.77ZM649.706 181.77H652.706V178.77H649.706V181.77ZM649.706 188V191H652.706V188H649.706ZM606.096 188H603.096V191H606.096V188ZM606.096 181.77V178.77H603.096V181.77H606.096ZM612.326 181.77V184.77H615.326V181.77H612.326ZM612.326 175.54V172.54H609.326V175.54H612.326ZM618.556 175.54V178.54H621.556V175.54H618.556ZM618.556 125.7H621.556V122.7H618.556V125.7ZM612.326 125.7H609.326V128.7H612.326V125.7ZM612.326 113.24H615.326V110.24H612.326V113.24ZM537.566 119.47V122.47H540.566V119.47H537.566ZM531.336 119.47H528.336V122.47H531.336V119.47ZM531.336 113.24V110.24H528.336V113.24H531.336ZM537.566 107.01V104.01H534.566V107.01H537.566ZM550.026 107.01V110.01H553.026V107.01H550.026ZM550.026 100.78V97.78H547.026V100.78H550.026ZM562.486 100.78H565.486V97.78H562.486V100.78ZM562.486 107.01H559.486V110.01H562.486V107.01ZM574.946 107.01H577.946V104.01H574.946V107.01ZM574.946 119.47H571.946V122.47H574.946V119.47ZM581.176 119.47H584.176V116.47H581.176V119.47ZM581.176 181.77H578.176V184.77H581.176V181.77ZM593.636 181.77H596.636V178.77H593.636V181.77ZM593.636 188V191H596.636V188H593.636ZM550.026 188H547.026V191H550.026V188ZM550.026 181.77V178.77H547.026V181.77H550.026ZM562.486 181.77V184.77H565.486V181.77H562.486ZM562.486 119.47H565.486V116.47H562.486V119.47ZM556.256 119.47H553.256V122.47H556.256V119.47ZM556.256 113.24H559.256V110.24H556.256V113.24ZM500.186 188H497.186V191H500.186V188ZM500.186 181.77V178.77H497.186V181.77H500.186ZM512.646 181.77V184.77H515.646V181.77H512.646ZM512.646 119.47H515.646V116.47H512.646V119.47ZM506.416 119.47H503.416V122.47H506.416V119.47ZM506.416 113.24H509.416V110.24H506.416V113.24ZM500.186 113.24H497.186V116.24H500.186V113.24ZM500.186 107.01V104.01H497.186V107.01H500.186ZM525.106 107.01V110.01H528.106V107.01H525.106ZM525.106 100.78V97.78H522.106V100.78H525.106ZM531.336 100.78H534.336V97.78H531.336V100.78ZM531.336 113.24V116.24H534.336V113.24H531.336ZM525.106 113.24V110.24H522.106V113.24H525.106ZM525.106 119.47H522.106V122.47H525.106V119.47ZM531.336 119.47H534.336V116.47H531.336V119.47ZM531.336 181.77H528.336V184.77H531.336V181.77ZM543.796 181.77H546.796V178.77H543.796V181.77ZM543.796 188V191H546.796V188H543.796ZM590.636 113.24V119.47H596.636V113.24H590.636ZM593.636 116.47H581.176V122.47H593.636V116.47ZM584.176 119.47V113.24H578.176V119.47H584.176ZM581.176 116.24H587.406V110.24H581.176V116.24ZM590.406 113.24V107.01H584.406V113.24H590.406ZM587.406 110.01H599.866V104.01H587.406V110.01ZM602.866 107.01V100.78H596.866V107.01H602.866ZM599.866 103.78H618.556V97.78H599.866V103.78ZM615.556 100.78V107.01H621.556V100.78H615.556ZM618.556 110.01H631.016V104.01H618.556V110.01ZM628.016 107.01V113.24H634.016V107.01H628.016ZM631.016 116.24H637.246V110.24H631.016V116.24ZM634.246 113.24V181.77H640.246V113.24H634.246ZM637.246 184.77H649.706V178.77H637.246V184.77ZM646.706 181.77V188H652.706V181.77H646.706ZM649.706 185H606.096V191H649.706V185ZM609.096 188V181.77H603.096V188H609.096ZM606.096 184.77H612.326V178.77H606.096V184.77ZM615.326 181.77V175.54H609.326V181.77H615.326ZM612.326 178.54H618.556V172.54H612.326V178.54ZM621.556 175.54V125.7H615.556V175.54H621.556ZM618.556 122.7H612.326V128.7H618.556V122.7ZM615.326 125.7V113.24H609.326V125.7H615.326ZM612.326 110.24H593.636V116.24H612.326V110.24ZM534.566 113.24V119.47H540.566V113.24H534.566ZM537.566 116.47H531.336V122.47H537.566V116.47ZM534.336 119.47V113.24H528.336V119.47H534.336ZM531.336 116.24H537.566V110.24H531.336V116.24ZM540.566 113.24V107.01H534.566V113.24H540.566ZM537.566 110.01H550.026V104.01H537.566V110.01ZM553.026 107.01V100.78H547.026V107.01H553.026ZM550.026 103.78H562.486V97.78H550.026V103.78ZM559.486 100.78V107.01H565.486V100.78H559.486ZM562.486 110.01H574.946V104.01H562.486V110.01ZM571.946 107.01V119.47H577.946V107.01H571.946ZM574.946 122.47H581.176V116.47H574.946V122.47ZM578.176 119.47V181.77H584.176V119.47H578.176ZM581.176 184.77H593.636V178.77H581.176V184.77ZM590.636 181.77V188H596.636V181.77H590.636ZM593.636 185H550.026V191H593.636V185ZM553.026 188V181.77H547.026V188H553.026ZM550.026 184.77H562.486V178.77H550.026V184.77ZM565.486 181.77V119.47H559.486V181.77H565.486ZM562.486 116.47H556.256V122.47H562.486V116.47ZM559.256 119.47V113.24H553.256V119.47H559.256ZM556.256 110.24H537.566V116.24H556.256V110.24ZM503.186 188V181.77H497.186V188H503.186ZM500.186 184.77H512.646V178.77H500.186V184.77ZM515.646 181.77V119.47H509.646V181.77H515.646ZM512.646 116.47H506.416V122.47H512.646V116.47ZM509.416 119.47V113.24H503.416V119.47H509.416ZM506.416 110.24H500.186V116.24H506.416V110.24ZM503.186 113.24V107.01H497.186V113.24H503.186ZM500.186 110.01H525.106V104.01H500.186V110.01ZM528.106 107.01V100.78H522.106V107.01H528.106ZM525.106 103.78H531.336V97.78H525.106V103.78ZM528.336 100.78V113.24H534.336V100.78H528.336ZM531.336 110.24H525.106V116.24H531.336V110.24ZM522.106 113.24V119.47H528.106V113.24H522.106ZM525.106 122.47H531.336V116.47H525.106V122.47ZM528.336 119.47V181.77H534.336V119.47H528.336ZM531.336 184.77H543.796V178.77H531.336V184.77ZM540.796 181.77V188H546.796V181.77H540.796ZM543.796 185H500.186V191H543.796V185ZM718.236 107.01V110.01H721.236V107.01H718.236ZM712.006 107.01H709.006V110.01H712.006V107.01ZM712.006 100.78V97.78H709.006V100.78H712.006ZM718.236 94.55V91.55H715.236V94.55H718.236ZM736.926 94.55H739.926V91.55H736.926V94.55ZM736.926 100.78H733.926V103.78H736.926V100.78ZM743.156 100.78H746.156V97.78H743.156V100.78ZM743.156 113.24V116.24H746.156V113.24H743.156ZM724.466 113.24H721.466V116.24H724.466V113.24ZM724.466 100.78H727.466V97.78H724.466V100.78ZM649.706 200.46V197.46H646.706V200.46H649.706ZM662.166 200.46V203.46H665.166V200.46H662.166ZM662.166 188H665.166V185H662.166V188ZM655.936 188H652.936V191H655.936V188ZM655.936 169.31V166.31H652.936V169.31H655.936ZM662.166 169.31V172.31H665.166V169.31H662.166ZM662.166 163.08V160.08H659.166V163.08H662.166ZM674.626 163.08V166.08H677.626V163.08H674.626ZM674.626 156.85H677.626V153.85H674.626V156.85ZM662.166 156.85H659.166V159.85H662.166V156.85ZM662.166 150.62H665.166V147.62H662.166V150.62ZM655.936 150.62H652.936V153.62H655.936V150.62ZM655.936 119.47V116.47H652.936V119.47H655.936ZM662.166 119.47V122.47H665.166V119.47H662.166ZM662.166 113.24V110.24H659.166V113.24H662.166ZM668.396 113.24V116.24H671.396V113.24H668.396ZM668.396 107.01V104.01H665.396V107.01H668.396ZM680.856 107.01V110.01H683.856V107.01H680.856ZM680.856 100.78V97.78H677.856V100.78H680.856ZM699.546 100.78H702.546V97.78H699.546V100.78ZM699.546 107.01H696.546V110.01H699.546V107.01ZM712.006 107.01H715.006V104.01H712.006V107.01ZM712.006 113.24H709.006V116.24H712.006V113.24ZM718.236 113.24H721.236V110.24H718.236V113.24ZM718.236 119.47H715.236V122.47H718.236V119.47ZM724.466 119.47H727.466V116.47H724.466V119.47ZM724.466 144.39V147.39H727.466V144.39H724.466ZM718.236 144.39V141.39H715.236V144.39H718.236ZM718.236 156.85V159.85H721.236V156.85H718.236ZM712.006 156.85V153.85H709.006V156.85H712.006ZM712.006 163.08V166.08H715.006V163.08H712.006ZM674.626 163.08V160.08H671.626V163.08H674.626ZM674.626 169.31V172.31H677.626V169.31H674.626ZM668.396 169.31V166.31H665.396V169.31H668.396ZM668.396 181.77H665.396V184.77H668.396V181.77ZM718.236 181.77H721.236V178.77H718.236V181.77ZM718.236 188H715.236V191H718.236V188ZM730.696 188H733.696V185H730.696V188ZM730.696 219.15V222.15H733.696V219.15H730.696ZM724.466 219.15V216.15H721.466V219.15H724.466ZM724.466 225.38V228.38H727.466V225.38H724.466ZM712.006 225.38V222.38H709.006V225.38H712.006ZM712.006 231.61V234.61H715.006V231.61H712.006ZM668.396 231.61H665.396V234.61H668.396V231.61ZM668.396 225.38H671.396V222.38H668.396V225.38ZM649.706 225.38H646.706V228.38H649.706V225.38ZM680.856 156.85H677.856V159.85H680.856V156.85ZM699.546 156.85V159.85H702.546V156.85H699.546ZM699.546 150.62V147.62H696.546V150.62H699.546ZM705.776 150.62V153.62H708.776V150.62H705.776ZM705.776 113.24H708.776V110.24H705.776V113.24ZM699.546 113.24H696.546V116.24H699.546V113.24ZM699.546 107.01H702.546V104.01H699.546V107.01ZM687.086 107.01V104.01H684.086V107.01H687.086ZM687.086 113.24V116.24H690.086V113.24H687.086ZM680.856 113.24V110.24H677.856V113.24H680.856ZM680.856 119.47V122.47H683.856V119.47H680.856ZM674.626 119.47V116.47H671.626V119.47H674.626ZM674.626 150.62H671.626V153.62H674.626V150.62ZM680.856 150.62H683.856V147.62H680.856V150.62ZM674.626 188H677.626V185H674.626V188ZM668.396 188V185H665.396V188H668.396ZM668.396 194.23H665.396V197.23H668.396V194.23ZM674.626 194.23V197.23H677.626V194.23H674.626ZM674.626 225.38H671.626V228.38H674.626V225.38ZM705.776 225.38V228.38H708.776V225.38H705.776ZM705.776 219.15V216.15H702.776V219.15H705.776ZM718.236 219.15V222.15H721.236V219.15H718.236ZM718.236 200.46H721.236V197.46H718.236V200.46ZM680.856 200.46H677.856V203.46H680.856V200.46ZM680.856 194.23H683.856V191.23H680.856V194.23ZM674.626 194.23V191.23H671.626V194.23H674.626ZM674.626 200.46V203.46H677.626V200.46H674.626ZM662.166 200.46V197.46H659.166V200.46H662.166ZM662.166 219.15H659.166V222.15H662.166V219.15ZM674.626 219.15H677.626V216.15H674.626V219.15ZM715.236 100.78V107.01H721.236V100.78H715.236ZM718.236 104.01H712.006V110.01H718.236V104.01ZM715.006 107.01V100.78H709.006V107.01H715.006ZM712.006 103.78H718.236V97.78H712.006V103.78ZM721.236 100.78V94.55H715.236V100.78H721.236ZM718.236 97.55H736.926V91.55H718.236V97.55ZM733.926 94.55V100.78H739.926V94.55H733.926ZM736.926 103.78H743.156V97.78H736.926V103.78ZM740.156 100.78V113.24H746.156V100.78H740.156ZM743.156 110.24H724.466V116.24H743.156V110.24ZM727.466 113.24V100.78H721.466V113.24H727.466ZM724.466 97.78H718.236V103.78H724.466V97.78ZM649.706 203.46H662.166V197.46H649.706V203.46ZM665.166 200.46V188H659.166V200.46H665.166ZM662.166 185H655.936V191H662.166V185ZM658.936 188V169.31H652.936V188H658.936ZM655.936 172.31H662.166V166.31H655.936V172.31ZM665.166 169.31V163.08H659.166V169.31H665.166ZM662.166 166.08H674.626V160.08H662.166V166.08ZM677.626 163.08V156.85H671.626V163.08H677.626ZM674.626 153.85H662.166V159.85H674.626V153.85ZM665.166 156.85V150.62H659.166V156.85H665.166ZM662.166 147.62H655.936V153.62H662.166V147.62ZM658.936 150.62V119.47H652.936V150.62H658.936ZM655.936 122.47H662.166V116.47H655.936V122.47ZM665.166 119.47V113.24H659.166V119.47H665.166ZM662.166 116.24H668.396V110.24H662.166V116.24ZM671.396 113.24V107.01H665.396V113.24H671.396ZM668.396 110.01H680.856V104.01H668.396V110.01ZM683.856 107.01V100.78H677.856V107.01H683.856ZM680.856 103.78H699.546V97.78H680.856V103.78ZM696.546 100.78V107.01H702.546V100.78H696.546ZM699.546 110.01H712.006V104.01H699.546V110.01ZM709.006 107.01V113.24H715.006V107.01H709.006ZM712.006 116.24H718.236V110.24H712.006V116.24ZM715.236 113.24V119.47H721.236V113.24H715.236ZM718.236 122.47H724.466V116.47H718.236V122.47ZM721.466 119.47V144.39H727.466V119.47H721.466ZM724.466 141.39H718.236V147.39H724.466V141.39ZM715.236 144.39V156.85H721.236V144.39H715.236ZM718.236 153.85H712.006V159.85H718.236V153.85ZM709.006 156.85V163.08H715.006V156.85H709.006ZM712.006 160.08H674.626V166.08H712.006V160.08ZM671.626 163.08V169.31H677.626V163.08H671.626ZM674.626 166.31H668.396V172.31H674.626V166.31ZM665.396 169.31V181.77H671.396V169.31H665.396ZM668.396 184.77H718.236V178.77H668.396V184.77ZM715.236 181.77V188H721.236V181.77H715.236ZM718.236 191H730.696V185H718.236V191ZM727.696 188V219.15H733.696V188H727.696ZM730.696 216.15H724.466V222.15H730.696V216.15ZM721.466 219.15V225.38H727.466V219.15H721.466ZM724.466 222.38H712.006V228.38H724.466V222.38ZM709.006 225.38V231.61H715.006V225.38H709.006ZM712.006 228.61H668.396V234.61H712.006V228.61ZM671.396 231.61V225.38H665.396V231.61H671.396ZM668.396 222.38H649.706V228.38H668.396V222.38ZM652.706 225.38V200.46H646.706V225.38H652.706ZM680.856 159.85H699.546V153.85H680.856V159.85ZM702.546 156.85V150.62H696.546V156.85H702.546ZM699.546 153.62H705.776V147.62H699.546V153.62ZM708.776 150.62V113.24H702.776V150.62H708.776ZM705.776 110.24H699.546V116.24H705.776V110.24ZM702.546 113.24V107.01H696.546V113.24H702.546ZM699.546 104.01H687.086V110.01H699.546V104.01ZM684.086 107.01V113.24H690.086V107.01H684.086ZM687.086 110.24H680.856V116.24H687.086V110.24ZM677.856 113.24V119.47H683.856V113.24H677.856ZM680.856 116.47H674.626V122.47H680.856V116.47ZM671.626 119.47V150.62H677.626V119.47H671.626ZM674.626 153.62H680.856V147.62H674.626V153.62ZM677.856 150.62V156.85H683.856V150.62H677.856ZM674.626 185H668.396V191H674.626V185ZM665.396 188V194.23H671.396V188H665.396ZM668.396 197.23H674.626V191.23H668.396V197.23ZM677.626 194.23V188H671.626V194.23H677.626ZM674.626 228.38H705.776V222.38H674.626V228.38ZM708.776 225.38V219.15H702.776V225.38H708.776ZM705.776 222.15H718.236V216.15H705.776V222.15ZM721.236 219.15V200.46H715.236V219.15H721.236ZM718.236 197.46H680.856V203.46H718.236V197.46ZM683.856 200.46V194.23H677.856V200.46H683.856ZM680.856 191.23H674.626V197.23H680.856V191.23ZM671.626 194.23V200.46H677.626V194.23H671.626ZM674.626 197.46H662.166V203.46H674.626V197.46ZM659.166 200.46V219.15H665.166V200.46H659.166ZM662.166 222.15H674.626V216.15H662.166V222.15ZM671.626 219.15V225.38H677.626V219.15H671.626ZM811.7 138.16V141.16H814.7V138.16H811.7ZM749.4 138.16V135.16H746.4V138.16H749.4ZM749.4 144.39H746.4V147.39H749.4V144.39ZM755.63 144.39H758.63V141.39H755.63V144.39ZM755.63 163.08H752.63V166.08H755.63V163.08ZM761.86 163.08H764.86V160.08H761.86V163.08ZM761.86 169.31H758.86V172.31H761.86V169.31ZM768.09 169.31H771.09V166.31H768.09V169.31ZM768.09 175.54H765.09V178.54H768.09V175.54ZM799.24 175.54H802.24V172.54H799.24V175.54ZM799.24 181.77V184.77H802.24V181.77H799.24ZM793.01 181.77V178.77H790.01V181.77H793.01ZM793.01 188V191H796.01V188H793.01ZM755.63 188H752.63V191H755.63V188ZM755.63 181.77H758.63V178.77H755.63V181.77ZM749.4 181.77H746.4V184.77H749.4V181.77ZM749.4 175.54H752.4V172.54H749.4V175.54ZM743.17 175.54H740.17V178.54H743.17V175.54ZM743.17 163.08H746.17V160.08H743.17V163.08ZM736.94 163.08H733.94V166.08H736.94V163.08ZM736.94 131.93V128.93H733.94V131.93H736.94ZM743.17 131.93V134.93H746.17V131.93H743.17ZM743.17 119.47V116.47H740.17V119.47H743.17ZM749.4 119.47V122.47H752.4V119.47H749.4ZM749.4 113.24V110.24H746.4V113.24H749.4ZM755.63 113.24V116.24H758.63V113.24H755.63ZM755.63 107.01V104.01H752.63V107.01H755.63ZM768.09 107.01V110.01H771.09V107.01H768.09ZM768.09 100.78V97.78H765.09V100.78H768.09ZM786.78 100.78H789.78V97.78H786.78V100.78ZM786.78 107.01H783.78V110.01H786.78V107.01ZM799.24 107.01H802.24V104.01H799.24V107.01ZM799.24 113.24H796.24V116.24H799.24V113.24ZM805.47 113.24H808.47V110.24H805.47V113.24ZM805.47 125.7H802.47V128.7H805.47V125.7ZM811.7 125.7H814.7V122.7H811.7V125.7ZM774.32 107.01V104.01H771.32V107.01H774.32ZM774.32 113.24V116.24H777.32V113.24H774.32ZM761.86 113.24V110.24H758.86V113.24H761.86ZM761.86 119.47V122.47H764.86V119.47H761.86ZM755.63 119.47V116.47H752.63V119.47H755.63ZM755.63 131.93H752.63V134.93H755.63V131.93ZM793.01 131.93V134.93H796.01V131.93H793.01ZM793.01 119.47H796.01V116.47H793.01V119.47ZM786.78 119.47H783.78V122.47H786.78V119.47ZM786.78 113.24H789.78V110.24H786.78V113.24ZM780.55 113.24H777.55V116.24H780.55V113.24ZM780.55 107.01H783.55V104.01H780.55V107.01ZM805.47 175.54V178.54H808.47V175.54H805.47ZM799.24 175.54H796.24V178.54H799.24V175.54ZM799.24 169.31V166.31H796.24V169.31H799.24ZM805.47 169.31H808.47V166.31H805.47V169.31ZM811.7 135.16H749.4V141.16H811.7V135.16ZM746.4 138.16V144.39H752.4V138.16H746.4ZM749.4 147.39H755.63V141.39H749.4V147.39ZM752.63 144.39V163.08H758.63V144.39H752.63ZM755.63 166.08H761.86V160.08H755.63V166.08ZM758.86 163.08V169.31H764.86V163.08H758.86ZM761.86 172.31H768.09V166.31H761.86V172.31ZM765.09 169.31V175.54H771.09V169.31H765.09ZM768.09 178.54H799.24V172.54H768.09V178.54ZM796.24 175.54V181.77H802.24V175.54H796.24ZM799.24 178.77H793.01V184.77H799.24V178.77ZM790.01 181.77V188H796.01V181.77H790.01ZM793.01 185H755.63V191H793.01V185ZM758.63 188V181.77H752.63V188H758.63ZM755.63 178.77H749.4V184.77H755.63V178.77ZM752.4 181.77V175.54H746.4V181.77H752.4ZM749.4 172.54H743.17V178.54H749.4V172.54ZM746.17 175.54V163.08H740.17V175.54H746.17ZM743.17 160.08H736.94V166.08H743.17V160.08ZM739.94 163.08V131.93H733.94V163.08H739.94ZM736.94 134.93H743.17V128.93H736.94V134.93ZM746.17 131.93V119.47H740.17V131.93H746.17ZM743.17 122.47H749.4V116.47H743.17V122.47ZM752.4 119.47V113.24H746.4V119.47H752.4ZM749.4 116.24H755.63V110.24H749.4V116.24ZM758.63 113.24V107.01H752.63V113.24H758.63ZM755.63 110.01H768.09V104.01H755.63V110.01ZM771.09 107.01V100.78H765.09V107.01H771.09ZM768.09 103.78H786.78V97.78H768.09V103.78ZM783.78 100.78V107.01H789.78V100.78H783.78ZM786.78 110.01H799.24V104.01H786.78V110.01ZM796.24 107.01V113.24H802.24V107.01H796.24ZM799.24 116.24H805.47V110.24H799.24V116.24ZM802.47 113.24V125.7H808.47V113.24H802.47ZM805.47 128.7H811.7V122.7H805.47V128.7ZM808.7 125.7V138.16H814.7V125.7H808.7ZM771.32 107.01V113.24H777.32V107.01H771.32ZM774.32 110.24H761.86V116.24H774.32V110.24ZM758.86 113.24V119.47H764.86V113.24H758.86ZM761.86 116.47H755.63V122.47H761.86V116.47ZM752.63 119.47V131.93H758.63V119.47H752.63ZM755.63 134.93H793.01V128.93H755.63V134.93ZM796.01 131.93V119.47H790.01V131.93H796.01ZM793.01 116.47H786.78V122.47H793.01V116.47ZM789.78 119.47V113.24H783.78V119.47H789.78ZM786.78 110.24H780.55V116.24H786.78V110.24ZM783.55 113.24V107.01H777.55V113.24H783.55ZM780.55 104.01H774.32V110.01H780.55V104.01ZM805.47 172.54H799.24V178.54H805.47V172.54ZM802.24 175.54V169.31H796.24V175.54H802.24ZM799.24 172.31H805.47V166.31H799.24V172.31ZM802.47 169.31V175.54H808.47V169.31H802.47ZM855.352 100.78H858.352V97.78H855.352V100.78ZM855.352 113.24H852.352V116.24H855.352V113.24ZM861.582 113.24V116.24H864.582V113.24H861.582ZM861.582 107.01V104.01H858.582V107.01H861.582ZM874.042 107.01V110.01H877.042V107.01H874.042ZM874.042 100.78V97.78H871.042V100.78H874.042ZM892.732 100.78H895.732V97.78H892.732V100.78ZM892.732 107.01H889.732V110.01H892.732V107.01ZM898.962 107.01H901.962V104.01H898.962V107.01ZM898.962 113.24H895.962V116.24H898.962V113.24ZM905.192 113.24H908.192V110.24H905.192V113.24ZM905.192 181.77H902.192V184.77H905.192V181.77ZM917.652 181.77H920.652V178.77H917.652V181.77ZM917.652 188V191H920.652V188H917.652ZM874.042 188H871.042V191H874.042V188ZM874.042 181.77V178.77H871.042V181.77H874.042ZM886.502 181.77V184.77H889.502V181.77H886.502ZM886.502 113.24H889.502V110.24H886.502V113.24ZM861.582 113.24V110.24H858.582V113.24H861.582ZM861.582 119.47V122.47H864.582V119.47H861.582ZM855.352 119.47H852.352V122.47H855.352V119.47ZM855.352 113.24H858.352V110.24H855.352V113.24ZM849.122 113.24V110.24H846.122V113.24H849.122ZM849.122 119.47H846.122V122.47H849.122V119.47ZM855.352 119.47H858.352V116.47H855.352V119.47ZM855.352 181.77H852.352V184.77H855.352V181.77ZM867.812 181.77H870.812V178.77H867.812V181.77ZM867.812 188V191H870.812V188H867.812ZM824.202 188H821.202V191H824.202V188ZM824.202 181.77V178.77H821.202V181.77H824.202ZM836.662 181.77V184.77H839.662V181.77H836.662ZM836.662 113.24H839.662V110.24H836.662V113.24ZM824.202 113.24H821.202V116.24H824.202V113.24ZM824.202 107.01V104.01H821.202V107.01H824.202ZM849.122 107.01V110.01H852.122V107.01H849.122ZM849.122 100.78V97.78H846.122V100.78H849.122ZM852.352 100.78V113.24H858.352V100.78H852.352ZM855.352 116.24H861.582V110.24H855.352V116.24ZM864.582 113.24V107.01H858.582V113.24H864.582ZM861.582 110.01H874.042V104.01H861.582V110.01ZM877.042 107.01V100.78H871.042V107.01H877.042ZM874.042 103.78H892.732V97.78H874.042V103.78ZM889.732 100.78V107.01H895.732V100.78H889.732ZM892.732 110.01H898.962V104.01H892.732V110.01ZM895.962 107.01V113.24H901.962V107.01H895.962ZM898.962 116.24H905.192V110.24H898.962V116.24ZM902.192 113.24V181.77H908.192V113.24H902.192ZM905.192 184.77H917.652V178.77H905.192V184.77ZM914.652 181.77V188H920.652V181.77H914.652ZM917.652 185H874.042V191H917.652V185ZM877.042 188V181.77H871.042V188H877.042ZM874.042 184.77H886.502V178.77H874.042V184.77ZM889.502 181.77V113.24H883.502V181.77H889.502ZM886.502 110.24H861.582V116.24H886.502V110.24ZM858.582 113.24V119.47H864.582V113.24H858.582ZM861.582 116.47H855.352V122.47H861.582V116.47ZM858.352 119.47V113.24H852.352V119.47H858.352ZM855.352 110.24H849.122V116.24H855.352V110.24ZM846.122 113.24V119.47H852.122V113.24H846.122ZM849.122 122.47H855.352V116.47H849.122V122.47ZM852.352 119.47V181.77H858.352V119.47H852.352ZM855.352 184.77H867.812V178.77H855.352V184.77ZM864.812 181.77V188H870.812V181.77H864.812ZM867.812 185H824.202V191H867.812V185ZM827.202 188V181.77H821.202V188H827.202ZM824.202 184.77H836.662V178.77H824.202V184.77ZM839.662 181.77V113.24H833.662V181.77H839.662ZM836.662 110.24H824.202V116.24H836.662V110.24ZM827.202 113.24V107.01H821.202V113.24H827.202ZM824.202 110.01H849.122V104.01H824.202V110.01ZM852.122 107.01V100.78H846.122V107.01H852.122ZM849.122 103.78H855.352V97.78H849.122V103.78Z" fill="#2B2A29" mask="url(#path-1-outside-1_636_79)"/>
<rect x="2" y="2" width="1076" height="260" rx="130" stroke="#2B2A29" stroke-width="4"/>
</svg>
