<svg width="720" height="176" viewBox="0 0 1926 470" fill="none" xmlns="http://www.w3.org/2000/svg">
<mask id="path-1-outside-1_693_8" maskUnits="userSpaceOnUse" x="344" y="109" width="1239" height="292" fill="black">
<rect fill="white" x="344" y="109" width="1239" height="292"/>
<path d="M348.377 113H526.877V176H516.377V155H505.877V134H495.377V123.5H442.877V134H453.377V302H463.877V312.5H484.877V323H390.377V312.5H411.377V302H421.877V123.5H390.377V134H369.377V144.5H358.877V176H348.377V113ZM616.795 312.5V323H543.295V312.5H532.795V302H522.295V281H511.795V228.5H522.295V207.5H532.795V197H543.295V186.5H564.295V176H595.795V186.5H616.795V197H627.295V207.5H637.795V218H648.295V281H637.795V302H627.295V312.5H616.795ZM574.795 186.5V197H553.795V207.5H543.295V281H553.795V302H564.295V312.5H595.795V302H606.295V291.5H616.795V218H606.295V197H585.295V186.5H574.795ZM705.412 197V302H736.912V312.5H726.412V323H684.412V312.5H673.912V197H652.912V186.5H663.412V176H673.912V165.5H684.412V155H694.912V144.5H705.412V186.5H747.412V197H705.412ZM747.412 302H736.912V291.5H747.412V302ZM884.041 239H779.041V249.5H789.541V281H800.041V291.5H810.541V302H863.041V312.5H852.541V323H789.541V312.5H779.041V302H768.541V281H758.041V228.5H768.541V207.5H779.041V197H789.541V186.5H810.541V176H842.041V186.5H863.041V197H873.541V218H884.041V239ZM821.041 186.5V197H800.041V207.5H789.541V228.5H852.541V207.5H842.041V197H831.541V186.5H821.041ZM873.541 302H863.041V291.5H873.541V302ZM1047.61 197V207.5H1026.61V197H1037.11V186.5H1058.11V176H1089.61V186.5H1110.61V197H1121.11V312.5H1142.11V323H1068.61V312.5H1079.11V302H1089.61V218H1079.11V197H1047.61ZM953.111 197V207.5H942.611V197H953.111V186.5H974.111V176H995.111V186.5H1016.11V207.5H1026.61V312.5H1047.61V323H974.111V312.5H995.111V207.5H984.611V197H953.111ZM890.111 323V312.5H911.111V207.5H900.611V197H890.111V186.5H932.111V176H942.611V197H932.111V207.5H942.611V312.5H963.611V323H890.111ZM1260.61 176V186.5H1250.11V176H1260.61V165.5H1292.11V176H1302.61V197H1271.11V176H1260.61ZM1145.11 344H1166.11V323H1155.61V291.5H1166.11V281H1187.11V270.5H1166.11V260H1155.61V207.5H1166.11V197H1176.61V186.5H1197.61V176H1229.11V186.5H1250.11V197H1260.61V207.5H1271.11V249.5H1260.61V270.5H1250.11V281H1187.11V291.5H1176.61V312.5H1260.61V323H1281.61V375.5H1271.11V386H1250.11V396.5H1176.61V386H1145.11V344ZM1197.61 270.5H1229.11V260H1239.61V197H1229.11V186.5H1208.11V197H1197.61V207.5H1187.11V260H1197.61V270.5ZM1187.11 323H1176.61V333.5H1187.11V323ZM1187.11 386H1239.61V375.5H1260.61V344H1197.61V333.5H1187.11V344H1166.11V375.5H1187.11V386ZM1418.13 239H1313.13V249.5H1323.63V281H1334.13V291.5H1344.63V302H1397.13V312.5H1386.63V323H1323.63V312.5H1313.13V302H1302.63V281H1292.13V228.5H1302.63V207.5H1313.13V197H1323.63V186.5H1344.63V176H1376.13V186.5H1397.13V197H1407.63V218H1418.13V239ZM1355.13 186.5V197H1334.13V207.5H1323.63V228.5H1386.63V207.5H1376.13V197H1365.63V186.5H1355.13ZM1407.63 302H1397.13V291.5H1407.63V302ZM1473.71 176V197H1484.21V186.5H1505.21V176H1536.71V186.5H1547.21V197H1557.71V312.5H1578.71V323H1505.21V312.5H1526.21V197H1484.21V207.5H1473.71V197H1463.21V207.5H1473.71V312.5H1494.71V323H1421.21V312.5H1442.21V197H1421.21V186.5H1463.21V176H1473.71Z"/>
</mask>
<path d="M348.377 113V109H344.377V113H348.377ZM526.877 113H530.877V109H526.877V113ZM526.877 176V180H530.877V176H526.877ZM516.377 176H512.377V180H516.377V176ZM516.377 155H520.377V151H516.377V155ZM505.877 155H501.877V159H505.877V155ZM505.877 134H509.877V130H505.877V134ZM495.377 134H491.377V138H495.377V134ZM495.377 123.5H499.377V119.5H495.377V123.5ZM442.877 123.5V119.5H438.877V123.5H442.877ZM442.877 134H438.877V138H442.877V134ZM453.377 134H457.377V130H453.377V134ZM453.377 302H449.377V306H453.377V302ZM463.877 302H467.877V298H463.877V302ZM463.877 312.5H459.877V316.5H463.877V312.5ZM484.877 312.5H488.877V308.5H484.877V312.5ZM484.877 323V327H488.877V323H484.877ZM390.377 323H386.377V327H390.377V323ZM390.377 312.5V308.5H386.377V312.5H390.377ZM411.377 312.5V316.5H415.377V312.5H411.377ZM411.377 302V298H407.377V302H411.377ZM421.877 302V306H425.877V302H421.877ZM421.877 123.5H425.877V119.5H421.877V123.5ZM390.377 123.5V119.5H386.377V123.5H390.377ZM390.377 134V138H394.377V134H390.377ZM369.377 134V130H365.377V134H369.377ZM369.377 144.5V148.5H373.377V144.5H369.377ZM358.877 144.5V140.5H354.877V144.5H358.877ZM358.877 176V180H362.877V176H358.877ZM348.377 176H344.377V180H348.377V176ZM348.377 117H526.877V109H348.377V117ZM522.877 113V176H530.877V113H522.877ZM526.877 172H516.377V180H526.877V172ZM520.377 176V155H512.377V176H520.377ZM516.377 151H505.877V159H516.377V151ZM509.877 155V134H501.877V155H509.877ZM505.877 130H495.377V138H505.877V130ZM499.377 134V123.5H491.377V134H499.377ZM495.377 119.5H442.877V127.5H495.377V119.5ZM438.877 123.5V134H446.877V123.5H438.877ZM442.877 138H453.377V130H442.877V138ZM449.377 134V302H457.377V134H449.377ZM453.377 306H463.877V298H453.377V306ZM459.877 302V312.5H467.877V302H459.877ZM463.877 316.5H484.877V308.5H463.877V316.5ZM480.877 312.5V323H488.877V312.5H480.877ZM484.877 319H390.377V327H484.877V319ZM394.377 323V312.5H386.377V323H394.377ZM390.377 316.5H411.377V308.5H390.377V316.5ZM415.377 312.5V302H407.377V312.5H415.377ZM411.377 306H421.877V298H411.377V306ZM425.877 302V123.5H417.877V302H425.877ZM421.877 119.5H390.377V127.5H421.877V119.5ZM386.377 123.5V134H394.377V123.5H386.377ZM390.377 130H369.377V138H390.377V130ZM365.377 134V144.5H373.377V134H365.377ZM369.377 140.5H358.877V148.5H369.377V140.5ZM354.877 144.5V176H362.877V144.5H354.877ZM358.877 172H348.377V180H358.877V172ZM352.377 176V113H344.377V176H352.377ZM616.795 312.5V308.5H612.795V312.5H616.795ZM616.795 323V327H620.795V323H616.795ZM543.295 323H539.295V327H543.295V323ZM543.295 312.5H547.295V308.5H543.295V312.5ZM532.795 312.5H528.795V316.5H532.795V312.5ZM532.795 302H536.795V298H532.795V302ZM522.295 302H518.295V306H522.295V302ZM522.295 281H526.295V277H522.295V281ZM511.795 281H507.795V285H511.795V281ZM511.795 228.5V224.5H507.795V228.5H511.795ZM522.295 228.5V232.5H526.295V228.5H522.295ZM522.295 207.5V203.5H518.295V207.5H522.295ZM532.795 207.5V211.5H536.795V207.5H532.795ZM532.795 197V193H528.795V197H532.795ZM543.295 197V201H547.295V197H543.295ZM543.295 186.5V182.5H539.295V186.5H543.295ZM564.295 186.5V190.5H568.295V186.5H564.295ZM564.295 176V172H560.295V176H564.295ZM595.795 176H599.795V172H595.795V176ZM595.795 186.5H591.795V190.5H595.795V186.5ZM616.795 186.5H620.795V182.5H616.795V186.5ZM616.795 197H612.795V201H616.795V197ZM627.295 197H631.295V193H627.295V197ZM627.295 207.5H623.295V211.5H627.295V207.5ZM637.795 207.5H641.795V203.5H637.795V207.5ZM637.795 218H633.795V222H637.795V218ZM648.295 218H652.295V214H648.295V218ZM648.295 281V285H652.295V281H648.295ZM637.795 281V277H633.795V281H637.795ZM637.795 302V306H641.795V302H637.795ZM627.295 302V298H623.295V302H627.295ZM627.295 312.5V316.5H631.295V312.5H627.295ZM574.795 186.5V182.5H570.795V186.5H574.795ZM574.795 197V201H578.795V197H574.795ZM553.795 197V193H549.795V197H553.795ZM553.795 207.5V211.5H557.795V207.5H553.795ZM543.295 207.5V203.5H539.295V207.5H543.295ZM543.295 281H539.295V285H543.295V281ZM553.795 281H557.795V277H553.795V281ZM553.795 302H549.795V306H553.795V302ZM564.295 302H568.295V298H564.295V302ZM564.295 312.5H560.295V316.5H564.295V312.5ZM595.795 312.5V316.5H599.795V312.5H595.795ZM595.795 302V298H591.795V302H595.795ZM606.295 302V306H610.295V302H606.295ZM606.295 291.5V287.5H602.295V291.5H606.295ZM616.795 291.5V295.5H620.795V291.5H616.795ZM616.795 218H620.795V214H616.795V218ZM606.295 218H602.295V222H606.295V218ZM606.295 197H610.295V193H606.295V197ZM585.295 197H581.295V201H585.295V197ZM585.295 186.5H589.295V182.5H585.295V186.5ZM612.795 312.5V323H620.795V312.5H612.795ZM616.795 319H543.295V327H616.795V319ZM547.295 323V312.5H539.295V323H547.295ZM543.295 308.5H532.795V316.5H543.295V308.5ZM536.795 312.5V302H528.795V312.5H536.795ZM532.795 298H522.295V306H532.795V298ZM526.295 302V281H518.295V302H526.295ZM522.295 277H511.795V285H522.295V277ZM515.795 281V228.5H507.795V281H515.795ZM511.795 232.5H522.295V224.5H511.795V232.5ZM526.295 228.5V207.5H518.295V228.5H526.295ZM522.295 211.5H532.795V203.5H522.295V211.5ZM536.795 207.5V197H528.795V207.5H536.795ZM532.795 201H543.295V193H532.795V201ZM547.295 197V186.5H539.295V197H547.295ZM543.295 190.5H564.295V182.5H543.295V190.5ZM568.295 186.5V176H560.295V186.5H568.295ZM564.295 180H595.795V172H564.295V180ZM591.795 176V186.5H599.795V176H591.795ZM595.795 190.5H616.795V182.5H595.795V190.5ZM612.795 186.5V197H620.795V186.5H612.795ZM616.795 201H627.295V193H616.795V201ZM623.295 197V207.5H631.295V197H623.295ZM627.295 211.5H637.795V203.5H627.295V211.5ZM633.795 207.5V218H641.795V207.5H633.795ZM637.795 222H648.295V214H637.795V222ZM644.295 218V281H652.295V218H644.295ZM648.295 277H637.795V285H648.295V277ZM633.795 281V302H641.795V281H633.795ZM637.795 298H627.295V306H637.795V298ZM623.295 302V312.5H631.295V302H623.295ZM627.295 308.5H616.795V316.5H627.295V308.5ZM570.795 186.5V197H578.795V186.5H570.795ZM574.795 193H553.795V201H574.795V193ZM549.795 197V207.5H557.795V197H549.795ZM553.795 203.5H543.295V211.5H553.795V203.5ZM539.295 207.5V281H547.295V207.5H539.295ZM543.295 285H553.795V277H543.295V285ZM549.795 281V302H557.795V281H549.795ZM553.795 306H564.295V298H553.795V306ZM560.295 302V312.5H568.295V302H560.295ZM564.295 316.5H595.795V308.5H564.295V316.5ZM599.795 312.5V302H591.795V312.5H599.795ZM595.795 306H606.295V298H595.795V306ZM610.295 302V291.5H602.295V302H610.295ZM606.295 295.5H616.795V287.5H606.295V295.5ZM620.795 291.5V218H612.795V291.5H620.795ZM616.795 214H606.295V222H616.795V214ZM610.295 218V197H602.295V218H610.295ZM606.295 193H585.295V201H606.295V193ZM589.295 197V186.5H581.295V197H589.295ZM585.295 182.5H574.795V190.5H585.295V182.5ZM705.412 197V193H701.412V197H705.412ZM705.412 302H701.412V306H705.412V302ZM736.912 302H740.912V298H736.912V302ZM736.912 312.5V316.5H740.912V312.5H736.912ZM726.412 312.5V308.5H722.412V312.5H726.412ZM726.412 323V327H730.412V323H726.412ZM684.412 323H680.412V327H684.412V323ZM684.412 312.5H688.412V308.5H684.412V312.5ZM673.912 312.5H669.912V316.5H673.912V312.5ZM673.912 197H677.912V193H673.912V197ZM652.912 197H648.912V201H652.912V197ZM652.912 186.5V182.5H648.912V186.5H652.912ZM663.412 186.5V190.5H667.412V186.5H663.412ZM663.412 176V172H659.412V176H663.412ZM673.912 176V180H677.912V176H673.912ZM673.912 165.5V161.5H669.912V165.5H673.912ZM684.412 165.5V169.5H688.412V165.5H684.412ZM684.412 155V151H680.412V155H684.412ZM694.912 155V159H698.912V155H694.912ZM694.912 144.5V140.5H690.912V144.5H694.912ZM705.412 144.5H709.412V140.5H705.412V144.5ZM705.412 186.5H701.412V190.5H705.412V186.5ZM747.412 186.5H751.412V182.5H747.412V186.5ZM747.412 197V201H751.412V197H747.412ZM747.412 302V306H751.412V302H747.412ZM736.912 302H732.912V306H736.912V302ZM736.912 291.5V287.5H732.912V291.5H736.912ZM747.412 291.5H751.412V287.5H747.412V291.5ZM701.412 197V302H709.412V197H701.412ZM705.412 306H736.912V298H705.412V306ZM732.912 302V312.5H740.912V302H732.912ZM736.912 308.5H726.412V316.5H736.912V308.5ZM722.412 312.5V323H730.412V312.5H722.412ZM726.412 319H684.412V327H726.412V319ZM688.412 323V312.5H680.412V323H688.412ZM684.412 308.5H673.912V316.5H684.412V308.5ZM677.912 312.5V197H669.912V312.5H677.912ZM673.912 193H652.912V201H673.912V193ZM656.912 197V186.5H648.912V197H656.912ZM652.912 190.5H663.412V182.5H652.912V190.5ZM667.412 186.5V176H659.412V186.5H667.412ZM663.412 180H673.912V172H663.412V180ZM677.912 176V165.5H669.912V176H677.912ZM673.912 169.5H684.412V161.5H673.912V169.5ZM688.412 165.5V155H680.412V165.5H688.412ZM684.412 159H694.912V151H684.412V159ZM698.912 155V144.5H690.912V155H698.912ZM694.912 148.5H705.412V140.5H694.912V148.5ZM701.412 144.5V186.5H709.412V144.5H701.412ZM705.412 190.5H747.412V182.5H705.412V190.5ZM743.412 186.5V197H751.412V186.5H743.412ZM747.412 193H705.412V201H747.412V193ZM747.412 298H736.912V306H747.412V298ZM740.912 302V291.5H732.912V302H740.912ZM736.912 295.5H747.412V287.5H736.912V295.5ZM743.412 291.5V302H751.412V291.5H743.412ZM884.041 239V243H888.041V239H884.041ZM779.041 239V235H775.041V239H779.041ZM779.041 249.5H775.041V253.5H779.041V249.5ZM789.541 249.5H793.541V245.5H789.541V249.5ZM789.541 281H785.541V285H789.541V281ZM800.041 281H804.041V277H800.041V281ZM800.041 291.5H796.041V295.5H800.041V291.5ZM810.541 291.5H814.541V287.5H810.541V291.5ZM810.541 302H806.541V306H810.541V302ZM863.041 302H867.041V298H863.041V302ZM863.041 312.5V316.5H867.041V312.5H863.041ZM852.541 312.5V308.5H848.541V312.5H852.541ZM852.541 323V327H856.541V323H852.541ZM789.541 323H785.541V327H789.541V323ZM789.541 312.5H793.541V308.5H789.541V312.5ZM779.041 312.5H775.041V316.5H779.041V312.5ZM779.041 302H783.041V298H779.041V302ZM768.541 302H764.541V306H768.541V302ZM768.541 281H772.541V277H768.541V281ZM758.041 281H754.041V285H758.041V281ZM758.041 228.5V224.5H754.041V228.5H758.041ZM768.541 228.5V232.5H772.541V228.5H768.541ZM768.541 207.5V203.5H764.541V207.5H768.541ZM779.041 207.5V211.5H783.041V207.5H779.041ZM779.041 197V193H775.041V197H779.041ZM789.541 197V201H793.541V197H789.541ZM789.541 186.5V182.5H785.541V186.5H789.541ZM810.541 186.5V190.5H814.541V186.5H810.541ZM810.541 176V172H806.541V176H810.541ZM842.041 176H846.041V172H842.041V176ZM842.041 186.5H838.041V190.5H842.041V186.5ZM863.041 186.5H867.041V182.5H863.041V186.5ZM863.041 197H859.041V201H863.041V197ZM873.541 197H877.541V193H873.541V197ZM873.541 218H869.541V222H873.541V218ZM884.041 218H888.041V214H884.041V218ZM821.041 186.5V182.5H817.041V186.5H821.041ZM821.041 197V201H825.041V197H821.041ZM800.041 197V193H796.041V197H800.041ZM800.041 207.5V211.5H804.041V207.5H800.041ZM789.541 207.5V203.5H785.541V207.5H789.541ZM789.541 228.5H785.541V232.5H789.541V228.5ZM852.541 228.5V232.5H856.541V228.5H852.541ZM852.541 207.5H856.541V203.5H852.541V207.5ZM842.041 207.5H838.041V211.5H842.041V207.5ZM842.041 197H846.041V193H842.041V197ZM831.541 197H827.541V201H831.541V197ZM831.541 186.5H835.541V182.5H831.541V186.5ZM873.541 302V306H877.541V302H873.541ZM863.041 302H859.041V306H863.041V302ZM863.041 291.5V287.5H859.041V291.5H863.041ZM873.541 291.5H877.541V287.5H873.541V291.5ZM884.041 235H779.041V243H884.041V235ZM775.041 239V249.5H783.041V239H775.041ZM779.041 253.5H789.541V245.5H779.041V253.5ZM785.541 249.5V281H793.541V249.5H785.541ZM789.541 285H800.041V277H789.541V285ZM796.041 281V291.5H804.041V281H796.041ZM800.041 295.5H810.541V287.5H800.041V295.5ZM806.541 291.5V302H814.541V291.5H806.541ZM810.541 306H863.041V298H810.541V306ZM859.041 302V312.5H867.041V302H859.041ZM863.041 308.5H852.541V316.5H863.041V308.5ZM848.541 312.5V323H856.541V312.5H848.541ZM852.541 319H789.541V327H852.541V319ZM793.541 323V312.5H785.541V323H793.541ZM789.541 308.5H779.041V316.5H789.541V308.5ZM783.041 312.5V302H775.041V312.5H783.041ZM779.041 298H768.541V306H779.041V298ZM772.541 302V281H764.541V302H772.541ZM768.541 277H758.041V285H768.541V277ZM762.041 281V228.5H754.041V281H762.041ZM758.041 232.5H768.541V224.5H758.041V232.5ZM772.541 228.5V207.5H764.541V228.5H772.541ZM768.541 211.5H779.041V203.5H768.541V211.5ZM783.041 207.5V197H775.041V207.5H783.041ZM779.041 201H789.541V193H779.041V201ZM793.541 197V186.5H785.541V197H793.541ZM789.541 190.5H810.541V182.5H789.541V190.5ZM814.541 186.5V176H806.541V186.5H814.541ZM810.541 180H842.041V172H810.541V180ZM838.041 176V186.5H846.041V176H838.041ZM842.041 190.5H863.041V182.5H842.041V190.5ZM859.041 186.5V197H867.041V186.5H859.041ZM863.041 201H873.541V193H863.041V201ZM869.541 197V218H877.541V197H869.541ZM873.541 222H884.041V214H873.541V222ZM880.041 218V239H888.041V218H880.041ZM817.041 186.5V197H825.041V186.5H817.041ZM821.041 193H800.041V201H821.041V193ZM796.041 197V207.5H804.041V197H796.041ZM800.041 203.5H789.541V211.5H800.041V203.5ZM785.541 207.5V228.5H793.541V207.5H785.541ZM789.541 232.5H852.541V224.5H789.541V232.5ZM856.541 228.5V207.5H848.541V228.5H856.541ZM852.541 203.5H842.041V211.5H852.541V203.5ZM846.041 207.5V197H838.041V207.5H846.041ZM842.041 193H831.541V201H842.041V193ZM835.541 197V186.5H827.541V197H835.541ZM831.541 182.5H821.041V190.5H831.541V182.5ZM873.541 298H863.041V306H873.541V298ZM867.041 302V291.5H859.041V302H867.041ZM863.041 295.5H873.541V287.5H863.041V295.5ZM869.541 291.5V302H877.541V291.5H869.541ZM1047.61 197V193H1043.61V197H1047.61ZM1047.61 207.5V211.5H1051.61V207.5H1047.61ZM1026.61 207.5H1022.61V211.5H1026.61V207.5ZM1026.61 197V193H1022.61V197H1026.61ZM1037.11 197V201H1041.11V197H1037.11ZM1037.11 186.5V182.5H1033.11V186.5H1037.11ZM1058.11 186.5V190.5H1062.11V186.5H1058.11ZM1058.11 176V172H1054.11V176H1058.11ZM1089.61 176H1093.61V172H1089.61V176ZM1089.61 186.5H1085.61V190.5H1089.61V186.5ZM1110.61 186.5H1114.61V182.5H1110.61V186.5ZM1110.61 197H1106.61V201H1110.61V197ZM1121.11 197H1125.11V193H1121.11V197ZM1121.11 312.5H1117.11V316.5H1121.11V312.5ZM1142.11 312.5H1146.11V308.5H1142.11V312.5ZM1142.11 323V327H1146.11V323H1142.11ZM1068.61 323H1064.61V327H1068.61V323ZM1068.61 312.5V308.5H1064.61V312.5H1068.61ZM1079.11 312.5V316.5H1083.11V312.5H1079.11ZM1079.11 302V298H1075.11V302H1079.11ZM1089.61 302V306H1093.61V302H1089.61ZM1089.61 218H1093.61V214H1089.61V218ZM1079.11 218H1075.11V222H1079.11V218ZM1079.11 197H1083.11V193H1079.11V197ZM953.111 207.5V211.5H957.111V207.5H953.111ZM942.611 207.5H938.611V211.5H942.611V207.5ZM942.611 197V193H938.611V197H942.611ZM953.111 186.5V182.5H949.111V186.5H953.111ZM974.111 186.5V190.5H978.111V186.5H974.111ZM974.111 176V172H970.111V176H974.111ZM995.111 176H999.111V172H995.111V176ZM995.111 186.5H991.111V190.5H995.111V186.5ZM1016.11 186.5H1020.11V182.5H1016.11V186.5ZM1016.11 207.5H1012.11V211.5H1016.11V207.5ZM1026.61 207.5H1030.61V203.5H1026.61V207.5ZM1026.61 312.5H1022.61V316.5H1026.61V312.5ZM1047.61 312.5H1051.61V308.5H1047.61V312.5ZM1047.61 323V327H1051.61V323H1047.61ZM974.111 323H970.111V327H974.111V323ZM974.111 312.5V308.5H970.111V312.5H974.111ZM995.111 312.5V316.5H999.111V312.5H995.111ZM995.111 207.5H999.111V203.5H995.111V207.5ZM984.611 207.5H980.611V211.5H984.611V207.5ZM984.611 197H988.611V193H984.611V197ZM890.111 323H886.111V327H890.111V323ZM890.111 312.5V308.5H886.111V312.5H890.111ZM911.111 312.5V316.5H915.111V312.5H911.111ZM911.111 207.5H915.111V203.5H911.111V207.5ZM900.611 207.5H896.611V211.5H900.611V207.5ZM900.611 197H904.611V193H900.611V197ZM890.111 197H886.111V201H890.111V197ZM890.111 186.5V182.5H886.111V186.5H890.111ZM932.111 186.5V190.5H936.111V186.5H932.111ZM932.111 176V172H928.111V176H932.111ZM942.611 176H946.611V172H942.611V176ZM942.611 197V201H946.611V197H942.611ZM932.111 197V193H928.111V197H932.111ZM932.111 207.5H928.111V211.5H932.111V207.5ZM942.611 207.5H946.611V203.5H942.611V207.5ZM942.611 312.5H938.611V316.5H942.611V312.5ZM963.611 312.5H967.611V308.5H963.611V312.5ZM963.611 323V327H967.611V323H963.611ZM1043.61 197V207.5H1051.61V197H1043.61ZM1047.61 203.5H1026.61V211.5H1047.61V203.5ZM1030.61 207.5V197H1022.61V207.5H1030.61ZM1026.61 201H1037.11V193H1026.61V201ZM1041.11 197V186.5H1033.11V197H1041.11ZM1037.11 190.5H1058.11V182.5H1037.11V190.5ZM1062.11 186.5V176H1054.11V186.5H1062.11ZM1058.11 180H1089.61V172H1058.11V180ZM1085.61 176V186.5H1093.61V176H1085.61ZM1089.61 190.5H1110.61V182.5H1089.61V190.5ZM1106.61 186.5V197H1114.61V186.5H1106.61ZM1110.61 201H1121.11V193H1110.61V201ZM1117.11 197V312.5H1125.11V197H1117.11ZM1121.11 316.5H1142.11V308.5H1121.11V316.5ZM1138.11 312.5V323H1146.11V312.5H1138.11ZM1142.11 319H1068.61V327H1142.11V319ZM1072.61 323V312.5H1064.61V323H1072.61ZM1068.61 316.5H1079.11V308.5H1068.61V316.5ZM1083.11 312.5V302H1075.11V312.5H1083.11ZM1079.11 306H1089.61V298H1079.11V306ZM1093.61 302V218H1085.61V302H1093.61ZM1089.61 214H1079.11V222H1089.61V214ZM1083.11 218V197H1075.11V218H1083.11ZM1079.11 193H1047.61V201H1079.11V193ZM949.111 197V207.5H957.111V197H949.111ZM953.111 203.5H942.611V211.5H953.111V203.5ZM946.611 207.5V197H938.611V207.5H946.611ZM942.611 201H953.111V193H942.611V201ZM957.111 197V186.5H949.111V197H957.111ZM953.111 190.5H974.111V182.5H953.111V190.5ZM978.111 186.5V176H970.111V186.5H978.111ZM974.111 180H995.111V172H974.111V180ZM991.111 176V186.5H999.111V176H991.111ZM995.111 190.5H1016.11V182.5H995.111V190.5ZM1012.11 186.5V207.5H1020.11V186.5H1012.11ZM1016.11 211.5H1026.61V203.5H1016.11V211.5ZM1022.61 207.5V312.5H1030.61V207.5H1022.61ZM1026.61 316.5H1047.61V308.5H1026.61V316.5ZM1043.61 312.5V323H1051.61V312.5H1043.61ZM1047.61 319H974.111V327H1047.61V319ZM978.111 323V312.5H970.111V323H978.111ZM974.111 316.5H995.111V308.5H974.111V316.5ZM999.111 312.5V207.5H991.111V312.5H999.111ZM995.111 203.5H984.611V211.5H995.111V203.5ZM988.611 207.5V197H980.611V207.5H988.611ZM984.611 193H953.111V201H984.611V193ZM894.111 323V312.5H886.111V323H894.111ZM890.111 316.5H911.111V308.5H890.111V316.5ZM915.111 312.5V207.5H907.111V312.5H915.111ZM911.111 203.5H900.611V211.5H911.111V203.5ZM904.611 207.5V197H896.611V207.5H904.611ZM900.611 193H890.111V201H900.611V193ZM894.111 197V186.5H886.111V197H894.111ZM890.111 190.5H932.111V182.5H890.111V190.5ZM936.111 186.5V176H928.111V186.5H936.111ZM932.111 180H942.611V172H932.111V180ZM938.611 176V197H946.611V176H938.611ZM942.611 193H932.111V201H942.611V193ZM928.111 197V207.5H936.111V197H928.111ZM932.111 211.5H942.611V203.5H932.111V211.5ZM938.611 207.5V312.5H946.611V207.5H938.611ZM942.611 316.5H963.611V308.5H942.611V316.5ZM959.611 312.5V323H967.611V312.5H959.611ZM963.611 319H890.111V327H963.611V319ZM1260.61 186.5V190.5H1264.61V186.5H1260.61ZM1250.11 186.5H1246.11V190.5H1250.11V186.5ZM1250.11 176V172H1246.11V176H1250.11ZM1260.61 165.5V161.5H1256.61V165.5H1260.61ZM1292.11 165.5H1296.11V161.5H1292.11V165.5ZM1292.11 176H1288.11V180H1292.11V176ZM1302.61 176H1306.61V172H1302.61V176ZM1302.61 197V201H1306.61V197H1302.61ZM1271.11 197H1267.11V201H1271.11V197ZM1271.11 176H1275.11V172H1271.11V176ZM1145.11 344V340H1141.11V344H1145.11ZM1166.11 344V348H1170.11V344H1166.11ZM1166.11 323H1170.11V319H1166.11V323ZM1155.61 323H1151.61V327H1155.61V323ZM1155.61 291.5V287.5H1151.61V291.5H1155.61ZM1166.11 291.5V295.5H1170.11V291.5H1166.11ZM1166.11 281V277H1162.11V281H1166.11ZM1187.11 281V285H1191.11V281H1187.11ZM1187.11 270.5H1191.11V266.5H1187.11V270.5ZM1166.11 270.5H1162.11V274.5H1166.11V270.5ZM1166.11 260H1170.11V256H1166.11V260ZM1155.61 260H1151.61V264H1155.61V260ZM1155.61 207.5V203.5H1151.61V207.5H1155.61ZM1166.11 207.5V211.5H1170.11V207.5H1166.11ZM1166.11 197V193H1162.11V197H1166.11ZM1176.61 197V201H1180.61V197H1176.61ZM1176.61 186.5V182.5H1172.61V186.5H1176.61ZM1197.61 186.5V190.5H1201.61V186.5H1197.61ZM1197.61 176V172H1193.61V176H1197.61ZM1229.11 176H1233.11V172H1229.11V176ZM1229.11 186.5H1225.11V190.5H1229.11V186.5ZM1250.11 186.5H1254.11V182.5H1250.11V186.5ZM1250.11 197H1246.11V201H1250.11V197ZM1260.61 197H1264.61V193H1260.61V197ZM1260.61 207.5H1256.61V211.5H1260.61V207.5ZM1271.11 207.5H1275.11V203.5H1271.11V207.5ZM1271.11 249.5V253.5H1275.11V249.5H1271.11ZM1260.61 249.5V245.5H1256.61V249.5H1260.61ZM1260.61 270.5V274.5H1264.61V270.5H1260.61ZM1250.11 270.5V266.5H1246.11V270.5H1250.11ZM1250.11 281V285H1254.11V281H1250.11ZM1187.11 281V277H1183.11V281H1187.11ZM1187.11 291.5V295.5H1191.11V291.5H1187.11ZM1176.61 291.5V287.5H1172.61V291.5H1176.61ZM1176.61 312.5H1172.61V316.5H1176.61V312.5ZM1260.61 312.5H1264.61V308.5H1260.61V312.5ZM1260.61 323H1256.61V327H1260.61V323ZM1281.61 323H1285.61V319H1281.61V323ZM1281.61 375.5V379.5H1285.61V375.5H1281.61ZM1271.11 375.5V371.5H1267.11V375.5H1271.11ZM1271.11 386V390H1275.11V386H1271.11ZM1250.11 386V382H1246.11V386H1250.11ZM1250.11 396.5V400.5H1254.11V396.5H1250.11ZM1176.61 396.5H1172.61V400.5H1176.61V396.5ZM1176.61 386H1180.61V382H1176.61V386ZM1145.11 386H1141.11V390H1145.11V386ZM1197.61 270.5H1193.61V274.5H1197.61V270.5ZM1229.11 270.5V274.5H1233.11V270.5H1229.11ZM1229.11 260V256H1225.11V260H1229.11ZM1239.61 260V264H1243.61V260H1239.61ZM1239.61 197H1243.61V193H1239.61V197ZM1229.11 197H1225.11V201H1229.11V197ZM1229.11 186.5H1233.11V182.5H1229.11V186.5ZM1208.11 186.5V182.5H1204.11V186.5H1208.11ZM1208.11 197V201H1212.11V197H1208.11ZM1197.61 197V193H1193.61V197H1197.61ZM1197.61 207.5V211.5H1201.61V207.5H1197.61ZM1187.11 207.5V203.5H1183.11V207.5H1187.11ZM1187.11 260H1183.11V264H1187.11V260ZM1197.61 260H1201.61V256H1197.61V260ZM1187.11 323H1191.11V319H1187.11V323ZM1176.61 323V319H1172.61V323H1176.61ZM1176.61 333.5H1172.61V337.5H1176.61V333.5ZM1187.11 333.5V337.5H1191.11V333.5H1187.11ZM1187.11 386H1183.11V390H1187.11V386ZM1239.61 386V390H1243.61V386H1239.61ZM1239.61 375.5V371.5H1235.61V375.5H1239.61ZM1260.61 375.5V379.5H1264.61V375.5H1260.61ZM1260.61 344H1264.61V340H1260.61V344ZM1197.61 344H1193.61V348H1197.61V344ZM1197.61 333.5H1201.61V329.5H1197.61V333.5ZM1187.11 333.5V329.5H1183.11V333.5H1187.11ZM1187.11 344V348H1191.11V344H1187.11ZM1166.11 344V340H1162.11V344H1166.11ZM1166.11 375.5H1162.11V379.5H1166.11V375.5ZM1187.11 375.5H1191.11V371.5H1187.11V375.5ZM1256.61 176V186.5H1264.61V176H1256.61ZM1260.61 182.5H1250.11V190.5H1260.61V182.5ZM1254.11 186.5V176H1246.11V186.5H1254.11ZM1250.11 180H1260.61V172H1250.11V180ZM1264.61 176V165.5H1256.61V176H1264.61ZM1260.61 169.5H1292.11V161.5H1260.61V169.5ZM1288.11 165.5V176H1296.11V165.5H1288.11ZM1292.11 180H1302.61V172H1292.11V180ZM1298.61 176V197H1306.61V176H1298.61ZM1302.61 193H1271.11V201H1302.61V193ZM1275.11 197V176H1267.11V197H1275.11ZM1271.11 172H1260.61V180H1271.11V172ZM1145.11 348H1166.11V340H1145.11V348ZM1170.11 344V323H1162.11V344H1170.11ZM1166.11 319H1155.61V327H1166.11V319ZM1159.61 323V291.5H1151.61V323H1159.61ZM1155.61 295.5H1166.11V287.5H1155.61V295.5ZM1170.11 291.5V281H1162.11V291.5H1170.11ZM1166.11 285H1187.11V277H1166.11V285ZM1191.11 281V270.5H1183.11V281H1191.11ZM1187.11 266.5H1166.11V274.5H1187.11V266.5ZM1170.11 270.5V260H1162.11V270.5H1170.11ZM1166.11 256H1155.61V264H1166.11V256ZM1159.61 260V207.5H1151.61V260H1159.61ZM1155.61 211.5H1166.11V203.5H1155.61V211.5ZM1170.11 207.5V197H1162.11V207.5H1170.11ZM1166.11 201H1176.61V193H1166.11V201ZM1180.61 197V186.5H1172.61V197H1180.61ZM1176.61 190.5H1197.61V182.5H1176.61V190.5ZM1201.61 186.5V176H1193.61V186.5H1201.61ZM1197.61 180H1229.11V172H1197.61V180ZM1225.11 176V186.5H1233.11V176H1225.11ZM1229.11 190.5H1250.11V182.5H1229.11V190.5ZM1246.11 186.5V197H1254.11V186.5H1246.11ZM1250.11 201H1260.61V193H1250.11V201ZM1256.61 197V207.5H1264.61V197H1256.61ZM1260.61 211.5H1271.11V203.5H1260.61V211.5ZM1267.11 207.5V249.5H1275.11V207.5H1267.11ZM1271.11 245.5H1260.61V253.5H1271.11V245.5ZM1256.61 249.5V270.5H1264.61V249.5H1256.61ZM1260.61 266.5H1250.11V274.5H1260.61V266.5ZM1246.11 270.5V281H1254.11V270.5H1246.11ZM1250.11 277H1187.11V285H1250.11V277ZM1183.11 281V291.5H1191.11V281H1183.11ZM1187.11 287.5H1176.61V295.5H1187.11V287.5ZM1172.61 291.5V312.5H1180.61V291.5H1172.61ZM1176.61 316.5H1260.61V308.5H1176.61V316.5ZM1256.61 312.5V323H1264.61V312.5H1256.61ZM1260.61 327H1281.61V319H1260.61V327ZM1277.61 323V375.5H1285.61V323H1277.61ZM1281.61 371.5H1271.11V379.5H1281.61V371.5ZM1267.11 375.5V386H1275.11V375.5H1267.11ZM1271.11 382H1250.11V390H1271.11V382ZM1246.11 386V396.5H1254.11V386H1246.11ZM1250.11 392.5H1176.61V400.5H1250.11V392.5ZM1180.61 396.5V386H1172.61V396.5H1180.61ZM1176.61 382H1145.11V390H1176.61V382ZM1149.11 386V344H1141.11V386H1149.11ZM1197.61 274.5H1229.11V266.5H1197.61V274.5ZM1233.11 270.5V260H1225.11V270.5H1233.11ZM1229.11 264H1239.61V256H1229.11V264ZM1243.61 260V197H1235.61V260H1243.61ZM1239.61 193H1229.11V201H1239.61V193ZM1233.11 197V186.5H1225.11V197H1233.11ZM1229.11 182.5H1208.11V190.5H1229.11V182.5ZM1204.11 186.5V197H1212.11V186.5H1204.11ZM1208.11 193H1197.61V201H1208.11V193ZM1193.61 197V207.5H1201.61V197H1193.61ZM1197.61 203.5H1187.11V211.5H1197.61V203.5ZM1183.11 207.5V260H1191.11V207.5H1183.11ZM1187.11 264H1197.61V256H1187.11V264ZM1193.61 260V270.5H1201.61V260H1193.61ZM1187.11 319H1176.61V327H1187.11V319ZM1172.61 323V333.5H1180.61V323H1172.61ZM1176.61 337.5H1187.11V329.5H1176.61V337.5ZM1191.11 333.5V323H1183.11V333.5H1191.11ZM1187.11 390H1239.61V382H1187.11V390ZM1243.61 386V375.5H1235.61V386H1243.61ZM1239.61 379.5H1260.61V371.5H1239.61V379.5ZM1264.61 375.5V344H1256.61V375.5H1264.61ZM1260.61 340H1197.61V348H1260.61V340ZM1201.61 344V333.5H1193.61V344H1201.61ZM1197.61 329.5H1187.11V337.5H1197.61V329.5ZM1183.11 333.5V344H1191.11V333.5H1183.11ZM1187.11 340H1166.11V348H1187.11V340ZM1162.11 344V375.5H1170.11V344H1162.11ZM1166.11 379.5H1187.11V371.5H1166.11V379.5ZM1183.11 375.5V386H1191.11V375.5H1183.11ZM1418.13 239V243H1422.13V239H1418.13ZM1313.13 239V235H1309.13V239H1313.13ZM1313.13 249.5H1309.13V253.5H1313.13V249.5ZM1323.63 249.5H1327.63V245.5H1323.63V249.5ZM1323.63 281H1319.63V285H1323.63V281ZM1334.13 281H1338.13V277H1334.13V281ZM1334.13 291.5H1330.13V295.5H1334.13V291.5ZM1344.63 291.5H1348.63V287.5H1344.63V291.5ZM1344.63 302H1340.63V306H1344.63V302ZM1397.13 302H1401.13V298H1397.13V302ZM1397.13 312.5V316.5H1401.13V312.5H1397.13ZM1386.63 312.5V308.5H1382.63V312.5H1386.63ZM1386.63 323V327H1390.63V323H1386.63ZM1323.63 323H1319.63V327H1323.63V323ZM1323.63 312.5H1327.63V308.5H1323.63V312.5ZM1313.13 312.5H1309.13V316.5H1313.13V312.5ZM1313.13 302H1317.13V298H1313.13V302ZM1302.63 302H1298.63V306H1302.63V302ZM1302.63 281H1306.63V277H1302.63V281ZM1292.13 281H1288.13V285H1292.13V281ZM1292.13 228.5V224.5H1288.13V228.5H1292.13ZM1302.63 228.5V232.5H1306.63V228.5H1302.63ZM1302.63 207.5V203.5H1298.63V207.5H1302.63ZM1313.13 207.5V211.5H1317.13V207.5H1313.13ZM1313.13 197V193H1309.13V197H1313.13ZM1323.63 197V201H1327.63V197H1323.63ZM1323.63 186.5V182.5H1319.63V186.5H1323.63ZM1344.63 186.5V190.5H1348.63V186.5H1344.63ZM1344.63 176V172H1340.63V176H1344.63ZM1376.13 176H1380.13V172H1376.13V176ZM1376.13 186.5H1372.13V190.5H1376.13V186.5ZM1397.13 186.5H1401.13V182.5H1397.13V186.5ZM1397.13 197H1393.13V201H1397.13V197ZM1407.63 197H1411.63V193H1407.63V197ZM1407.63 218H1403.63V222H1407.63V218ZM1418.13 218H1422.13V214H1418.13V218ZM1355.13 186.5V182.5H1351.13V186.5H1355.13ZM1355.13 197V201H1359.13V197H1355.13ZM1334.13 197V193H1330.13V197H1334.13ZM1334.13 207.5V211.5H1338.13V207.5H1334.13ZM1323.63 207.5V203.5H1319.63V207.5H1323.63ZM1323.63 228.5H1319.63V232.5H1323.63V228.5ZM1386.63 228.5V232.5H1390.63V228.5H1386.63ZM1386.63 207.5H1390.63V203.5H1386.63V207.5ZM1376.13 207.5H1372.13V211.5H1376.13V207.5ZM1376.13 197H1380.13V193H1376.13V197ZM1365.63 197H1361.63V201H1365.63V197ZM1365.63 186.5H1369.63V182.5H1365.63V186.5ZM1407.63 302V306H1411.63V302H1407.63ZM1397.13 302H1393.13V306H1397.13V302ZM1397.13 291.5V287.5H1393.13V291.5H1397.13ZM1407.63 291.5H1411.63V287.5H1407.63V291.5ZM1418.13 235H1313.13V243H1418.13V235ZM1309.13 239V249.5H1317.13V239H1309.13ZM1313.13 253.5H1323.63V245.5H1313.13V253.5ZM1319.63 249.5V281H1327.63V249.5H1319.63ZM1323.63 285H1334.13V277H1323.63V285ZM1330.13 281V291.5H1338.13V281H1330.13ZM1334.13 295.5H1344.63V287.5H1334.13V295.5ZM1340.63 291.5V302H1348.63V291.5H1340.63ZM1344.63 306H1397.13V298H1344.63V306ZM1393.13 302V312.5H1401.13V302H1393.13ZM1397.13 308.5H1386.63V316.5H1397.13V308.5ZM1382.63 312.5V323H1390.63V312.5H1382.63ZM1386.63 319H1323.63V327H1386.63V319ZM1327.63 323V312.5H1319.63V323H1327.63ZM1323.63 308.5H1313.13V316.5H1323.63V308.5ZM1317.13 312.5V302H1309.13V312.5H1317.13ZM1313.13 298H1302.63V306H1313.13V298ZM1306.63 302V281H1298.63V302H1306.63ZM1302.63 277H1292.13V285H1302.63V277ZM1296.13 281V228.5H1288.13V281H1296.13ZM1292.13 232.5H1302.63V224.5H1292.13V232.5ZM1306.63 228.5V207.5H1298.63V228.5H1306.63ZM1302.63 211.5H1313.13V203.5H1302.63V211.5ZM1317.13 207.5V197H1309.13V207.5H1317.13ZM1313.13 201H1323.63V193H1313.13V201ZM1327.63 197V186.5H1319.63V197H1327.63ZM1323.63 190.5H1344.63V182.5H1323.63V190.5ZM1348.63 186.5V176H1340.63V186.5H1348.63ZM1344.63 180H1376.13V172H1344.63V180ZM1372.13 176V186.5H1380.13V176H1372.13ZM1376.13 190.5H1397.13V182.5H1376.13V190.5ZM1393.13 186.5V197H1401.13V186.5H1393.13ZM1397.13 201H1407.63V193H1397.13V201ZM1403.63 197V218H1411.63V197H1403.63ZM1407.63 222H1418.13V214H1407.63V222ZM1414.13 218V239H1422.13V218H1414.13ZM1351.13 186.5V197H1359.13V186.5H1351.13ZM1355.13 193H1334.13V201H1355.13V193ZM1330.13 197V207.5H1338.13V197H1330.13ZM1334.13 203.5H1323.63V211.5H1334.13V203.5ZM1319.63 207.5V228.5H1327.63V207.5H1319.63ZM1323.63 232.5H1386.63V224.5H1323.63V232.5ZM1390.63 228.5V207.5H1382.63V228.5H1390.63ZM1386.63 203.5H1376.13V211.5H1386.63V203.5ZM1380.13 207.5V197H1372.13V207.5H1380.13ZM1376.13 193H1365.63V201H1376.13V193ZM1369.63 197V186.5H1361.63V197H1369.63ZM1365.63 182.5H1355.13V190.5H1365.63V182.5ZM1407.63 298H1397.13V306H1407.63V298ZM1401.13 302V291.5H1393.13V302H1401.13ZM1397.13 295.5H1407.63V287.5H1397.13V295.5ZM1403.63 291.5V302H1411.63V291.5H1403.63ZM1473.71 176H1477.71V172H1473.71V176ZM1473.71 197H1469.71V201H1473.71V197ZM1484.21 197V201H1488.21V197H1484.21ZM1484.21 186.5V182.5H1480.21V186.5H1484.21ZM1505.21 186.5V190.5H1509.21V186.5H1505.21ZM1505.21 176V172H1501.21V176H1505.21ZM1536.71 176H1540.71V172H1536.71V176ZM1536.71 186.5H1532.71V190.5H1536.71V186.5ZM1547.21 186.5H1551.21V182.5H1547.21V186.5ZM1547.21 197H1543.21V201H1547.21V197ZM1557.71 197H1561.71V193H1557.71V197ZM1557.71 312.5H1553.71V316.5H1557.71V312.5ZM1578.71 312.5H1582.71V308.5H1578.71V312.5ZM1578.71 323V327H1582.71V323H1578.71ZM1505.21 323H1501.21V327H1505.21V323ZM1505.21 312.5V308.5H1501.21V312.5H1505.21ZM1526.21 312.5V316.5H1530.21V312.5H1526.21ZM1526.21 197H1530.21V193H1526.21V197ZM1484.21 197V193H1480.21V197H1484.21ZM1484.21 207.5V211.5H1488.21V207.5H1484.21ZM1473.71 207.5H1469.71V211.5H1473.71V207.5ZM1473.71 197H1477.71V193H1473.71V197ZM1463.21 197V193H1459.21V197H1463.21ZM1463.21 207.5H1459.21V211.5H1463.21V207.5ZM1473.71 207.5H1477.71V203.5H1473.71V207.5ZM1473.71 312.5H1469.71V316.5H1473.71V312.5ZM1494.71 312.5H1498.71V308.5H1494.71V312.5ZM1494.71 323V327H1498.71V323H1494.71ZM1421.21 323H1417.21V327H1421.21V323ZM1421.21 312.5V308.5H1417.21V312.5H1421.21ZM1442.21 312.5V316.5H1446.21V312.5H1442.21ZM1442.21 197H1446.21V193H1442.21V197ZM1421.21 197H1417.21V201H1421.21V197ZM1421.21 186.5V182.5H1417.21V186.5H1421.21ZM1463.21 186.5V190.5H1467.21V186.5H1463.21ZM1463.21 176V172H1459.21V176H1463.21ZM1469.71 176V197H1477.71V176H1469.71ZM1473.71 201H1484.21V193H1473.71V201ZM1488.21 197V186.5H1480.21V197H1488.21ZM1484.21 190.5H1505.21V182.5H1484.21V190.5ZM1509.21 186.5V176H1501.21V186.5H1509.21ZM1505.21 180H1536.71V172H1505.21V180ZM1532.71 176V186.5H1540.71V176H1532.71ZM1536.71 190.5H1547.21V182.5H1536.71V190.5ZM1543.21 186.5V197H1551.21V186.5H1543.21ZM1547.21 201H1557.71V193H1547.21V201ZM1553.71 197V312.5H1561.71V197H1553.71ZM1557.71 316.5H1578.71V308.5H1557.71V316.5ZM1574.71 312.5V323H1582.71V312.5H1574.71ZM1578.71 319H1505.21V327H1578.71V319ZM1509.21 323V312.5H1501.21V323H1509.21ZM1505.21 316.5H1526.21V308.5H1505.21V316.5ZM1530.21 312.5V197H1522.21V312.5H1530.21ZM1526.21 193H1484.21V201H1526.21V193ZM1480.21 197V207.5H1488.21V197H1480.21ZM1484.21 203.5H1473.71V211.5H1484.21V203.5ZM1477.71 207.5V197H1469.71V207.5H1477.71ZM1473.71 193H1463.21V201H1473.71V193ZM1459.21 197V207.5H1467.21V197H1459.21ZM1463.21 211.5H1473.71V203.5H1463.21V211.5ZM1469.71 207.5V312.5H1477.71V207.5H1469.71ZM1473.71 316.5H1494.71V308.5H1473.71V316.5ZM1490.71 312.5V323H1498.71V312.5H1490.71ZM1494.71 319H1421.21V327H1494.71V319ZM1425.21 323V312.5H1417.21V323H1425.21ZM1421.21 316.5H1442.21V308.5H1421.21V316.5ZM1446.21 312.5V197H1438.21V312.5H1446.21ZM1442.21 193H1421.21V201H1442.21V193ZM1425.21 197V186.5H1417.21V197H1425.21ZM1421.21 190.5H1463.21V182.5H1421.21V190.5ZM1467.21 186.5V176H1459.21V186.5H1467.21ZM1463.21 180H1473.71V172H1463.21V180Z" fill="black" mask="url(#path-1-outside-1_693_8)"/>
<rect x="2.5" y="2.5" width="1921" height="465" rx="232.5" stroke="black" stroke-width="5"/>
</svg>
