<svg width="132" height="153" viewBox="0 0 132 153" fill="none" xmlns="http://www.w3.org/2000/svg">
<path d="M65.7352 0.882812C73.8107 29.1795 102.882 45.9639 131.426 38.8091C110.958 59.9511 110.958 93.5198 131.426 114.662C102.882 107.507 73.8107 124.291 65.7352 152.588C57.6597 124.291 28.5883 107.507 0.0449232 114.662C20.5128 93.5198 20.5128 59.9511 0.0449219 38.8091C28.5883 45.9639 57.6597 29.1795 65.7352 0.882812Z" fill="#2B2A29"/>
<path d="M43.7926 84.5451L48.4286 74.6651C49.3786 72.6131 48.8846 71.3971 47.0226 71.1311L46.4526 71.0551V70.0671H53.6346V71.0171C52.3426 71.3591 51.3546 72.3471 50.5946 73.9431L43.4506 89.0291H43.3746L36.1926 73.6391C35.4326 72.0431 34.6726 71.3211 33.2666 71.0171V70.0671H41.9306V71.0551L41.3606 71.1311C39.9166 71.3591 39.4226 72.2711 39.9926 73.6011L43.9826 82.5311L43.4126 83.7471L43.7926 84.5451Z" fill="white"/>
<path d="M62.597 60.9471V84.3171C62.597 85.8751 63.585 86.6731 65.637 86.8631L66.435 86.9391V87.9271H55.301V86.9391L56.061 86.8631C58.113 86.6731 59.101 85.8751 59.101 84.3171V65.5451C59.101 64.3671 58.721 63.9491 56.897 63.1891L55.377 62.5431L62.597 60.9471Z" fill="white"/>
<path d="M70.3154 83.6331H74.5714V87.9271H70.3154V83.6331Z" fill="white"/>
<path d="M85.8066 60.9091C91.3166 60.9091 95.4206 66.5331 95.4206 74.5131C95.4206 82.4931 91.3546 88.3451 86.2246 88.3451C80.7146 88.3451 76.6106 82.7211 76.6106 74.7411C76.6106 66.7231 80.6386 60.9091 85.8066 60.9091ZM85.7686 62.5051C82.4626 62.5051 80.4106 66.9131 80.4106 74.0571C80.4106 81.7711 82.6906 86.7491 86.1866 86.7491C89.5306 86.7491 91.6207 82.3031 91.6207 75.1971C91.6207 67.4831 89.3026 62.5051 85.7686 62.5051Z" fill="white"/>
</svg>
