<svg width="100" height="100" viewBox="0 0 147 147" fill="none" xmlns="http://www.w3.org/2000/svg">
<path d="M92.9226 0.460938C93.3992 29.8836 117.136 53.6202 146.558 54.0969C121.316 69.2209 112.628 101.646 126.926 127.365C101.207 113.066 68.7824 121.755 53.6584 146.997C53.1818 117.574 29.4451 93.8377 0.0224609 93.3611C25.2649 78.237 33.9531 45.8121 19.6546 20.093C45.3736 34.3916 77.7985 25.7034 92.9226 0.460938Z" fill="#2B2A29"/>
<path d="M48.3515 74.8794L55.3279 66.6057C56.7645 64.884 56.6034 63.5925 54.8881 62.8598L54.3617 62.6407L54.6152 61.6944L61.4945 63.5377L61.2507 64.4476C59.9254 64.4436 58.7255 65.1364 57.5879 66.4701L46.8731 79.0867L46.8003 79.0671L43.8709 62.4825C43.5526 60.7587 43.0099 59.8721 41.7412 59.2201L41.985 58.3101L50.2839 60.5338L50.0303 61.4801L49.4648 61.4066C48.0231 61.2544 47.3159 62.0012 47.5205 63.4214L49.0504 72.9991L48.1923 74.0175L48.3515 74.8794Z" fill="white"/>
<path d="M74.6135 57.6511C79.8912 59.0653 82.3788 65.5055 80.3307 73.1492C78.2826 80.7928 72.886 85.3546 67.9723 84.038C62.6945 82.6238 60.2069 76.1835 62.255 68.5399C64.3129 60.8598 69.6633 56.3247 74.6135 57.6511ZM74.1675 59.1701C71.0008 58.3216 67.904 62.0171 66.0704 68.86C64.0906 76.2488 64.9968 81.6022 68.3455 82.4995C71.5485 83.3577 74.6915 79.6355 76.5153 72.829C78.4952 65.4402 77.5525 60.0771 74.1675 59.1701Z" fill="white"/>
<path d="M80.282 82.4989L84.3586 83.5912L83.2565 87.7042L79.1799 86.6119L80.282 82.4989Z" fill="white"/>
<path d="M94.2129 91.0691C89.2991 89.7525 86.5949 85.8679 87.6189 82.0461C88.4577 78.9158 90.9693 77.4042 95.2496 76.7175L96.5144 76.5103L95.9568 75.9708L94.7017 76.1416C92.3717 73.9178 91.7167 71.5576 92.3311 69.2645C93.2479 65.8431 96.8769 63.6556 101.39 64.8649C105.503 65.967 107.9 69.106 106.993 72.491C106.262 75.2209 104.143 76.7209 100.553 77.1632L99.2612 77.3243L99.8552 77.8736L101.137 77.7489C104.786 80.8724 105.334 83.6329 104.651 86.1808C103.647 89.9298 99.3451 92.4443 94.2129 91.0691ZM99.7384 76.1258C101.739 75.6476 103.309 74.1566 103.904 71.9363C104.645 69.1701 103.279 66.6974 100.804 66.0342C98.4017 65.3905 96.3151 66.626 95.6812 68.9918C95.1838 70.8482 95.8102 72.7325 97.9004 74.541L99.7384 76.1258ZM94.6225 89.5404C97.7528 90.3791 100.175 88.7654 100.877 86.1447C101.443 84.0336 101.008 82.1616 98.2171 79.6193L96.1828 77.7478C93.6095 78.0336 91.7433 79.7572 91.0118 82.4871C90.134 85.7629 91.6015 88.7309 94.6225 89.5404Z" fill="white"/>
</svg>
